<svg width="1980" height="863" viewBox="0 0 1980 863" fill="none" xmlns="http://www.w3.org/2000/svg">
<path d="M921.688 591.135C909.634 591.135 898.257 594.044 888.215 599.139C893.006 587.724 895.676 575.173 895.676 562.031C895.676 509.093 852.729 466.169 799.763 466.169C762.767 466.169 730.694 487.117 714.701 517.752C695.711 473.822 651.999 443.1 601.089 443.1C579.955 443.1 560.068 448.414 542.675 457.751C547.007 448.348 549.457 437.874 549.457 426.832C549.457 385.963 516.312 352.836 475.422 352.836C457.548 352.836 441.161 359.155 428.362 369.695C428.866 366.218 429.128 362.654 429.128 359.046C429.128 318.178 395.983 285.05 355.093 285.05C314.203 285.05 284.471 314.898 281.321 352.88C266.225 342.974 248.176 337.201 228.77 337.201C211.902 337.201 196.062 341.575 182.301 349.206C182.41 347.282 182.498 345.357 182.498 343.411C182.498 290.473 139.552 247.549 86.585 247.549C33.6185 247.549 -9.32796 290.473 -9.32796 343.411C-9.32796 346.013 -9.1967 348.572 -8.9998 351.108C-10.5313 351.043 -12.0846 350.999 -13.6379 350.999C-59.6691 350.999 -98.1306 383.427 -107.407 426.679C-128.169 410.935 -154.029 401.598 -182.098 401.598C-250.423 401.598 -305.818 456.963 -305.818 525.252C-305.818 552.694 -296.87 578.016 -281.73 598.526C-285.231 598.023 -288.819 597.739 -292.451 597.739C-333.341 597.739 -366.486 630.867 -366.486 671.735C-366.486 707.88 -340.56 737.946 -306.299 744.419L-316.516 767.947L-318.704 851.039C-318.704 851.039 921.776 872.906 915.213 857.599C911.975 850.033 905.521 792.35 899.832 735.869C906.768 738.012 914.141 739.171 921.776 739.171C962.666 739.171 995.811 706.043 995.811 665.175C995.811 624.307 962.666 591.179 921.776 591.179L921.688 591.135Z" fill="url(#paint0_linear_4_43972)"/>
<path d="M-513.965 460.549C-501.91 460.549 -490.534 463.458 -480.492 468.553C-485.305 457.138 -487.952 444.609 -487.952 431.445C-487.952 378.507 -445.006 335.583 -392.039 335.583C-355.043 335.583 -322.97 356.531 -306.978 387.166C-287.987 343.258 -244.275 312.514 -193.365 312.514C-172.231 312.514 -152.344 317.828 -134.951 327.165C-139.283 317.762 -141.733 307.288 -141.733 296.246C-141.733 255.377 -108.588 222.25 -67.6983 222.25C-49.824 222.25 -33.4375 228.569 -20.6389 239.109C-21.1421 235.632 -21.4045 232.068 -21.4045 228.46C-21.4045 187.592 11.7406 154.464 52.6305 154.464C93.5204 154.464 123.253 184.312 126.403 222.294C141.499 212.388 159.548 206.615 178.954 206.615C195.822 206.615 211.661 210.989 225.423 218.62C225.313 216.696 225.226 214.772 225.226 212.825C225.226 159.887 268.172 116.963 321.139 116.963C374.105 116.963 417.052 159.887 417.052 212.825C417.052 215.428 416.92 217.986 416.723 220.522C418.255 220.457 419.808 220.413 421.361 220.413C467.393 220.413 505.854 252.841 515.13 296.093C535.893 280.349 561.752 271.012 589.822 271.012C658.147 271.012 713.542 326.377 713.542 394.666C713.542 422.108 704.594 447.43 689.454 467.94C692.954 467.437 696.542 467.153 700.174 467.153C741.064 467.153 774.209 500.281 774.209 541.149C774.209 577.294 748.284 607.36 714.023 613.833L724.24 637.361L726.428 720.453C726.428 720.453 -514.052 742.32 -507.489 727.013C-504.251 719.447 -497.797 661.764 -492.109 605.283C-499.044 607.426 -506.417 608.585 -514.052 608.585C-554.942 608.585 -588.087 575.457 -588.087 534.589C-588.087 493.721 -554.942 460.593 -514.052 460.593L-513.965 460.549Z" fill="url(#paint1_linear_4_43972)"/>
<path d="M1405.74 372.45C1417.79 372.45 1429.17 375.358 1439.21 380.453C1434.4 369.039 1431.75 356.487 1431.75 343.346C1431.75 290.407 1474.7 247.484 1527.66 247.484C1564.66 247.484 1596.73 268.432 1612.73 299.066C1631.72 255.159 1675.43 224.415 1726.34 224.415C1747.47 224.415 1767.36 229.728 1784.75 239.065C1780.42 229.663 1777.97 219.189 1777.97 208.146C1777.97 167.278 1811.11 134.15 1852 134.15C1869.88 134.15 1886.27 140.47 1899.06 151.009C1898.56 147.532 1898.3 143.968 1898.3 140.36C1898.3 99.492 1931.44 66.3645 1972.33 66.3645C2013.22 66.3645 2042.96 96.2121 2046.11 134.194C2061.2 124.288 2079.25 118.516 2098.66 118.516C2115.52 118.516 2131.36 122.889 2145.13 130.52C2145.02 128.596 2144.93 126.672 2144.93 124.726C2144.93 71.7873 2187.88 28.8636 2240.84 28.8636C2293.81 28.8636 2336.75 71.7873 2336.75 124.726C2336.75 127.328 2336.62 129.886 2336.43 132.423C2337.96 132.357 2339.51 132.313 2341.06 132.313C2387.1 132.313 2425.56 164.741 2434.83 207.993C2455.6 192.249 2481.46 182.912 2509.52 182.912C2577.85 182.912 2633.24 238.278 2633.24 306.567C2633.24 334.009 2624.3 359.33 2609.16 379.841C2612.66 379.338 2616.25 379.054 2619.88 379.054C2660.77 379.054 2693.91 412.181 2693.91 453.049C2693.91 489.194 2667.99 519.261 2633.73 525.733L2643.94 549.261L2646.13 632.354C2646.13 632.354 1405.65 654.22 1412.21 638.913C1415.45 631.348 1421.91 573.664 1427.59 517.183C1420.66 519.326 1413.29 520.485 1405.65 520.485C1364.76 520.485 1331.62 487.358 1331.62 446.489C1331.62 405.621 1364.76 372.494 1405.65 372.494L1405.74 372.45Z" fill="url(#paint2_linear_4_43972)"/>
<path d="M2244.74 593.213C2235.22 593.213 2226.25 595.509 2218.31 599.532C2222.09 590.523 2224.19 580.618 2224.19 570.231C2224.19 528.423 2190.28 494.53 2148.45 494.53C2119.24 494.53 2093.91 511.061 2081.29 535.267C2066.3 500.587 2031.78 476.315 1991.59 476.315C1974.89 476.315 1959.18 480.514 1945.45 487.882C1948.88 480.448 1950.81 472.182 1950.81 463.458C1950.81 431.183 1924.64 405.031 1892.35 405.031C1878.24 405.031 1865.28 410.038 1855.18 418.347C1855.57 415.592 1855.79 412.793 1855.79 409.929C1855.79 377.654 1829.62 351.502 1797.33 351.502C1765.04 351.502 1741.57 375.074 1739.09 405.053C1727.17 397.225 1712.93 392.676 1697.59 392.676C1684.27 392.676 1671.77 396.131 1660.88 402.166C1660.97 400.658 1661.03 399.127 1661.03 397.596C1661.03 355.788 1627.12 321.895 1585.29 321.895C1543.46 321.895 1509.55 355.788 1509.55 397.596C1509.55 399.652 1509.66 401.663 1509.81 403.675C1508.61 403.61 1507.38 403.588 1506.16 403.588C1469.8 403.588 1439.43 429.193 1432.12 463.348C1415.74 450.928 1395.3 443.537 1373.14 443.537C1319.19 443.537 1275.43 487.248 1275.43 541.171C1275.43 562.84 1282.5 582.848 1294.45 599.029C1291.69 598.636 1288.84 598.417 1285.98 598.417C1253.69 598.417 1227.52 624.591 1227.52 656.844C1227.52 685.38 1248 709.126 1275.06 714.243L1266.99 732.808L1265.26 798.429C1265.26 798.429 2244.78 815.703 2239.59 803.611C2237.03 797.641 2231.96 752.072 2227.45 707.486C2232.92 709.192 2238.74 710.089 2244.78 710.089C2277.07 710.089 2303.24 683.936 2303.24 651.662C2303.24 619.387 2277.07 593.235 2244.78 593.235L2244.74 593.213Z" fill="url(#paint3_linear_4_43972)"/>
<path d="M1710.39 203.707C1710.61 201.761 1710.72 199.815 1710.72 197.825C1710.72 167.934 1686.48 143.706 1656.57 143.706C1651.8 143.706 1647.18 144.318 1642.79 145.477C1631.93 113.968 1602.03 91.3358 1566.83 91.3358C1529.26 91.3358 1497.74 117.094 1488.94 151.906C1480.63 146.723 1470.8 143.706 1460.3 143.706C1433.02 143.706 1410.44 163.888 1406.7 190.128C1399.77 181.775 1389.31 176.44 1377.6 176.44C1360.39 176.44 1345.86 187.963 1341.31 203.707H1710.39Z" fill="url(#paint4_linear_4_43972)"/>
<path d="M1150.62 148.145C1150.51 147.073 1150.44 145.98 1150.44 144.865C1150.44 128.246 1163.92 114.777 1180.55 114.777C1183.2 114.777 1185.76 115.126 1188.21 115.761C1194.24 98.2456 1210.85 85.6724 1230.43 85.6724C1251.3 85.6724 1268.83 99.9949 1273.73 119.347C1278.34 116.46 1283.81 114.798 1289.65 114.798C1304.82 114.798 1317.35 126.016 1319.43 140.601C1323.28 135.965 1329.1 132.991 1335.6 132.991C1345.18 132.991 1353.23 139.398 1355.77 148.145H1150.62V148.145Z" fill="url(#paint5_linear_4_43972)"/>
<path d="M240.256 74.0177C240.125 72.7494 240.037 71.4593 240.037 70.1473C240.037 50.4676 256.008 34.5051 275.698 34.5051C278.827 34.5051 281.868 34.9206 284.777 35.664C291.932 14.9129 311.622 0 334.812 0C359.556 0 380.319 16.9683 386.116 39.8843C391.586 36.4731 398.062 34.4833 404.975 34.4833C422.937 34.4833 437.814 47.778 440.264 65.0524C444.837 59.5421 451.728 56.0435 459.429 56.0435C470.762 56.0435 480.345 63.6311 483.32 74.0177H240.234H240.256Z" fill="url(#paint6_linear_4_43972)"/>
<path d="M504.804 170.842C504.717 170.033 504.673 169.224 504.673 168.393C504.673 155.995 514.737 145.936 527.141 145.936C529.111 145.936 531.036 146.199 532.852 146.68C537.359 133.604 549.763 124.223 564.378 124.223C579.955 124.223 593.06 134.915 596.692 149.347C600.148 147.204 604.218 145.936 608.571 145.936C619.904 145.936 629.268 154.311 630.799 165.2C633.665 161.724 638.019 159.515 642.876 159.515C650.03 159.515 656.046 164.304 657.928 170.842H504.782H504.804Z" fill="url(#paint7_linear_4_43972)"/>
<path d="M810.155 405.074C810.067 404.287 810.024 403.5 810.024 402.713C810.024 390.686 819.781 380.956 831.792 380.956C833.717 380.956 835.555 381.196 837.327 381.677C841.703 369.017 853.714 359.899 867.869 359.899C882.987 359.899 895.654 370.263 899.198 384.258C902.545 382.18 906.483 380.956 910.728 380.956C921.71 380.956 930.79 389.068 932.278 399.63C935.056 396.262 939.278 394.119 943.982 394.119C950.896 394.119 956.737 398.755 958.575 405.096H810.133L810.155 405.074Z" fill="url(#paint8_linear_4_43972)"/>
<defs>
<linearGradient id="paint0_linear_4_43972" x1="314.575" y1="863" x2="314.575" y2="247.484" gradientUnits="userSpaceOnUse">
<stop stop-color="white" stop-opacity="0"/>
<stop offset="1" stop-color="white"/>
</linearGradient>
<linearGradient id="paint1_linear_4_43972" x1="93.1484" y1="732.414" x2="93.1484" y2="116.898" gradientUnits="userSpaceOnUse">
<stop stop-color="white" stop-opacity="0"/>
<stop offset="1" stop-color="white"/>
</linearGradient>
<linearGradient id="paint2_linear_4_43972" x1="2012.85" y1="644.314" x2="2012.85" y2="28.8199" gradientUnits="userSpaceOnUse">
<stop stop-color="white" stop-opacity="0"/>
<stop offset="1" stop-color="white"/>
</linearGradient>
<linearGradient id="paint3_linear_4_43972" x1="1765.35" y1="807.875" x2="1765.35" y2="321.851" gradientUnits="userSpaceOnUse">
<stop stop-color="white" stop-opacity="0"/>
<stop offset="1" stop-color="white"/>
</linearGradient>
<linearGradient id="paint4_linear_4_43972" x1="1526" y1="203.707" x2="1526" y2="91.3358" gradientUnits="userSpaceOnUse">
<stop stop-color="white" stop-opacity="0"/>
<stop offset="1" stop-color="white"/>
</linearGradient>
<linearGradient id="paint5_linear_4_43972" x1="1253.1" y1="148.145" x2="1253.1" y2="85.6724" gradientUnits="userSpaceOnUse">
<stop stop-color="white" stop-opacity="0"/>
<stop offset="1" stop-color="white"/>
</linearGradient>
<linearGradient id="paint6_linear_4_43972" x1="361.7" y1="74.0177" x2="361.7" y2="0" gradientUnits="userSpaceOnUse">
<stop stop-color="white" stop-opacity="0"/>
<stop offset="1" stop-color="white"/>
</linearGradient>
<linearGradient id="paint7_linear_4_43972" x1="581.311" y1="170.842" x2="581.311" y2="124.201" gradientUnits="userSpaceOnUse">
<stop stop-color="white" stop-opacity="0"/>
<stop offset="1" stop-color="white"/>
</linearGradient>
<linearGradient id="paint8_linear_4_43972" x1="884.321" y1="405.074" x2="884.321" y2="359.877" gradientUnits="userSpaceOnUse">
<stop stop-color="white" stop-opacity="0"/>
<stop offset="1" stop-color="white"/>
</linearGradient>
</defs>
</svg>
