<svg width="1490" height="183" viewBox="0 0 1490 183" fill="none" xmlns="http://www.w3.org/2000/svg">
<path d="M502.913 726.154C297.839 718.071 41.6415 700.822 5.0319 548.093C-28.0987 409.849 148.199 346.128 311.271 275.612C500.471 193.813 698.563 102.871 917.161 53.5888C1197.39 -9.55708 1583 9.58012 1811.73 132.694C2048.14 259.93 2030.58 457.174 1780.31 571.007C1644.86 632.633 1465.59 670.078 1302.22 691.61C1039.52 726.154 765.631 736.517 502.936 726.154H502.913Z" fill="#8FC73B"/>
<path d="M1811.73 132.694C1730.68 89.0767 1629.93 58.517 1521.16 40.0247C1406.24 182.828 1102.37 284.847 745.541 284.847C613.848 284.847 489.343 270.938 378.915 246.227C356.221 256.084 333.689 265.917 311.271 275.613C148.199 346.151 -28.0757 409.872 5.05493 548.116C41.6645 700.822 297.862 718.071 502.936 726.177C765.654 736.54 1039.52 726.177 1302.22 691.633C1465.59 670.124 1644.86 632.656 1780.31 571.03C2030.58 457.174 2048.14 259.953 1811.73 132.717V132.694Z" fill="#88C32D"/>
<g style="mix-blend-mode:multiply" opacity="0.4">
<path d="M931.238 88.5239C931.238 89.0536 928.013 89.4681 924.027 89.4681C920.041 89.4681 916.815 89.0536 916.815 88.5239C916.815 87.9942 920.041 87.5797 924.027 87.5797C928.013 87.5797 931.238 87.9942 931.238 88.5239Z" fill="#8FC73B"/>
</g>
<path d="M931.238 74.9598C931.238 62.6622 924.027 52.7136 924.027 52.7136C924.027 52.7136 916.815 62.6852 916.815 74.9598C916.815 80.9934 918.543 82.7897 920.317 83.089V83.1351H927.414C929.28 82.9969 931.238 81.3618 931.238 74.9598V74.9598Z" fill="#6AB03D"/>
<path d="M924.626 88.0864C924.764 84.9544 924.833 81.9146 924.488 78.8056C924.418 78.2069 923.635 78.2069 923.566 78.8056C923.22 81.9376 923.289 84.9544 923.428 88.0864C923.451 88.8463 924.58 88.8463 924.626 88.0864Z" fill="#336633"/>
<g style="mix-blend-mode:multiply" opacity="0.4">
<path d="M599.563 173.524C599.563 174.054 596.338 174.469 592.352 174.469C588.366 174.469 585.141 174.054 585.141 173.524C585.141 172.995 588.366 172.58 592.352 172.58C596.338 172.58 599.563 172.995 599.563 173.524Z" fill="#8FC73B"/>
</g>
<path d="M599.563 159.96C599.563 147.663 592.352 137.714 592.352 137.714C592.352 137.714 585.141 147.686 585.141 159.96C585.141 165.994 586.868 167.79 588.642 168.09V168.136H595.739C597.605 167.997 599.563 166.362 599.563 159.96V159.96Z" fill="#6AB03D"/>
<path d="M592.951 173.064C593.089 169.932 593.158 166.892 592.813 163.783C592.743 163.184 591.96 163.184 591.891 163.783C591.545 166.915 591.615 169.932 591.753 173.064C591.776 173.824 592.905 173.824 592.951 173.064Z" fill="#336633"/>
<path d="M690.477 177.416C690.477 161.25 680.984 148.146 680.984 148.146C680.984 148.146 671.492 161.25 671.492 177.416C671.492 185.361 673.773 187.733 676.1 188.102V188.171H685.431C687.896 188.01 690.453 185.822 690.453 177.416H690.477Z" fill="#6AB03D"/>
<path d="M681.791 194.688C681.975 190.566 682.067 186.582 681.606 182.46C681.514 181.677 680.477 181.677 680.408 182.46C679.948 186.559 680.04 190.543 680.224 194.688C680.27 195.702 681.745 195.702 681.791 194.688V194.688Z" fill="#336633"/>
<g style="mix-blend-mode:multiply" opacity="0.4">
<path d="M1000.54 57.4807C1000.54 58.0104 997.315 58.4249 993.329 58.4249C989.343 58.4249 986.118 58.0104 986.118 57.4807C986.118 56.951 989.343 56.5365 993.329 56.5365C997.315 56.5365 1000.54 56.951 1000.54 57.4807Z" fill="#8FC73B"/>
</g>
<path d="M1000.54 43.8935C1000.54 31.5959 993.329 21.6473 993.329 21.6473C993.329 21.6473 986.118 31.6189 986.118 43.8935C986.118 49.9271 987.846 51.7234 989.62 52.0227V52.0688H996.716C998.582 51.9306 1000.54 50.2956 1000.54 43.8935Z" fill="#6AB03D"/>
<path d="M993.928 57.0201C994.066 53.8881 994.136 50.8483 993.79 47.7394C993.721 47.1406 992.937 47.1406 992.868 47.7394C992.523 50.8713 992.592 53.8881 992.73 57.0201C992.753 57.78 993.882 57.78 993.928 57.0201Z" fill="#336633"/>
<g style="mix-blend-mode:multiply" opacity="0.4">
<path d="M1269.8 35.8334C1269.8 36.363 1266.58 36.7775 1262.59 36.7775C1258.6 36.7775 1255.38 36.363 1255.38 35.8334C1255.38 35.3037 1258.6 34.8892 1262.59 34.8892C1266.58 34.8892 1269.8 35.3037 1269.8 35.8334Z" fill="#8FC73B"/>
</g>
<path d="M1269.8 22.2461C1269.8 9.94858 1262.59 0 1262.59 0C1262.59 0 1255.38 9.97161 1255.38 22.2461C1255.38 28.2798 1257.11 30.076 1258.88 30.3754V30.4215H1265.98C1267.84 30.2833 1269.8 28.6482 1269.8 22.2461Z" fill="#6AB03D"/>
<path d="M1263.19 35.3727C1263.33 32.2408 1263.4 29.2009 1263.05 26.092C1262.98 25.4933 1262.2 25.4933 1262.13 26.092C1261.78 29.224 1261.85 32.2408 1261.99 35.3727C1262.01 36.1327 1263.14 36.1327 1263.19 35.3727V35.3727Z" fill="#336633"/>
<g style="mix-blend-mode:multiply" opacity="0.4">
<path d="M1108.16 162.401C1108.16 163.276 1102.72 163.99 1096.02 163.99C1089.31 163.99 1083.87 163.276 1083.87 162.401C1083.87 161.526 1089.31 160.812 1096.02 160.812C1102.72 160.812 1108.16 161.526 1108.16 162.401Z" fill="#8FC73B"/>
</g>
<path d="M1108.16 139.533C1108.16 118.83 1096.02 102.065 1096.02 102.065C1096.02 102.065 1083.87 118.853 1083.87 139.533C1083.87 149.689 1086.8 152.729 1089.77 153.213V153.282H1101.73C1104.89 153.075 1108.16 150.288 1108.16 139.533V139.533Z" fill="#6AB03D"/>
<path d="M1097.03 161.641C1097.26 156.368 1097.4 151.255 1096.8 146.005C1096.68 145.014 1095.37 145.014 1095.26 146.005C1094.66 151.255 1094.79 156.368 1095.03 161.641C1095.07 162.931 1096.98 162.931 1097.03 161.641V161.641Z" fill="#336633"/>
<path d="M840.993 214.079C840.993 186.421 824.773 164.013 824.773 164.013C824.773 164.013 808.553 186.444 808.553 214.079C808.553 227.666 812.47 231.742 816.456 232.364V232.456H832.422C836.638 232.157 841.016 228.449 841.016 214.079H840.993Z" fill="#6AB03D"/>
<g style="mix-blend-mode:multiply" opacity="0.3">
<g style="mix-blend-mode:multiply" opacity="0.3">
<path d="M1169.81 156.229C1169.6 155.516 1168.27 155.009 1167.32 155.308C1167.07 155.4 1166.86 155.516 1166.68 155.677C1166.56 155.147 1166.17 154.64 1165.25 154.502C1164.17 154.341 1163.11 154.963 1163.36 155.677C1163.43 155.861 1163.59 156.045 1163.77 156.229C1162.97 156.068 1162.14 156.137 1161.75 156.644C1161.29 157.243 1161.98 158.164 1163.06 158.279C1163.36 158.302 1163.66 158.279 1163.96 158.233C1163.57 158.671 1163.45 159.223 1164.12 159.661C1164.93 160.19 1166.4 160.144 1166.82 159.523C1166.93 159.361 1166.95 159.154 1166.95 158.947C1167.53 159.361 1168.29 159.661 1169.1 159.407C1170.06 159.131 1170.27 158.187 1169.44 157.68C1169.21 157.542 1168.94 157.45 1168.64 157.358C1169.37 157.174 1169.97 156.828 1169.79 156.229H1169.81Z" fill="#48903A"/>
</g>
<g style="mix-blend-mode:multiply" opacity="0.3">
<path d="M1256.85 129.7C1256.58 128.71 1254.66 127.973 1253.35 128.387C1253.01 128.502 1252.71 128.687 1252.45 128.917C1252.29 128.157 1251.74 127.443 1250.43 127.259C1248.88 127.029 1247.38 127.927 1247.75 128.894C1247.85 129.147 1248.08 129.424 1248.33 129.677C1247.18 129.47 1246 129.539 1245.45 130.253C1244.78 131.105 1245.77 132.394 1247.32 132.579C1247.73 132.625 1248.17 132.579 1248.61 132.51C1248.05 133.131 1247.87 133.891 1248.84 134.536C1249.96 135.296 1252.06 135.204 1252.66 134.329C1252.82 134.099 1252.87 133.822 1252.84 133.523C1253.65 134.122 1254.73 134.513 1255.89 134.191C1257.25 133.799 1257.57 132.463 1256.39 131.75C1256.09 131.565 1255.68 131.404 1255.24 131.289C1256.3 131.036 1257.11 130.529 1256.88 129.677L1256.85 129.7Z" fill="#48903A"/>
</g>
<g style="mix-blend-mode:multiply" opacity="0.3">
<path d="M1181.28 128.111C1181.08 127.397 1179.74 126.89 1178.8 127.19C1178.54 127.282 1178.34 127.397 1178.15 127.558C1178.04 127.029 1177.64 126.522 1176.72 126.384C1175.64 126.223 1174.58 126.844 1174.83 127.558C1174.9 127.742 1175.06 127.927 1175.25 128.111C1174.44 127.973 1173.61 128.019 1173.22 128.525C1172.76 129.124 1173.45 130.045 1174.53 130.161C1174.83 130.184 1175.13 130.161 1175.43 130.114C1175.04 130.552 1174.93 131.105 1175.59 131.542C1176.4 132.072 1177.87 132.026 1178.29 131.404C1178.4 131.243 1178.43 131.036 1178.43 130.828C1179 131.243 1179.76 131.542 1180.57 131.289C1181.54 131.013 1181.75 130.068 1180.92 129.562C1180.69 129.424 1180.41 129.331 1180.11 129.239C1180.85 129.055 1181.45 128.71 1181.26 128.111H1181.28Z" fill="#48903A"/>
</g>
<g style="mix-blend-mode:multiply" opacity="0.3">
<path d="M1044.09 69.2025C1043.88 68.4886 1042.54 67.9819 1041.6 68.2813C1041.34 68.3734 1041.14 68.4886 1040.95 68.6498C1040.84 68.1201 1040.44 67.6135 1039.52 67.4753C1038.44 67.3141 1037.38 67.9359 1037.63 68.6498C1037.7 68.834 1037.86 69.0182 1038.05 69.2025C1037.24 69.0643 1036.41 69.1104 1036.02 69.617C1035.56 70.2158 1036.25 71.1369 1037.33 71.2521C1037.63 71.2751 1037.93 71.2521 1038.23 71.206C1037.84 71.6436 1037.73 72.1963 1038.39 72.6338C1039.2 73.1635 1040.68 73.1174 1041.09 72.4956C1041.21 72.3344 1041.23 72.1272 1041.23 71.9199C1041.8 72.3344 1042.56 72.6338 1043.37 72.3805C1044.34 72.1041 1044.55 71.1599 1043.72 70.6533C1043.49 70.5151 1043.21 70.423 1042.91 70.3309C1043.65 70.1467 1044.25 69.8012 1044.06 69.2025H1044.09Z" fill="#48903A"/>
</g>
<g style="mix-blend-mode:multiply" opacity="0.3">
<path d="M1248.91 153.466C1248.7 152.752 1247.36 152.245 1246.42 152.545C1246.16 152.637 1245.96 152.752 1245.77 152.913C1245.66 152.384 1245.26 151.877 1244.34 151.739C1243.26 151.578 1242.2 152.199 1242.45 152.913C1242.52 153.098 1242.68 153.282 1242.87 153.466C1242.06 153.328 1241.23 153.374 1240.84 153.881C1240.38 154.479 1241.07 155.4 1242.15 155.516C1242.45 155.539 1242.75 155.516 1243.05 155.47C1242.66 155.907 1242.55 156.46 1243.21 156.897C1244.02 157.427 1245.5 157.381 1245.91 156.759C1246.03 156.598 1246.05 156.391 1246.05 156.183C1246.62 156.598 1247.38 156.897 1248.19 156.644C1249.16 156.368 1249.37 155.423 1248.54 154.917C1248.31 154.779 1248.03 154.687 1247.73 154.594C1248.47 154.41 1249.07 154.065 1248.88 153.466H1248.91Z" fill="#48903A"/>
</g>
<g style="mix-blend-mode:multiply" opacity="0.3">
<path d="M1266.62 125.324C1266.42 124.611 1265.08 124.104 1264.13 124.403C1263.88 124.495 1263.67 124.611 1263.49 124.772C1263.37 124.242 1262.98 123.735 1262.06 123.597C1260.98 123.436 1259.92 124.058 1260.17 124.772C1260.24 124.956 1260.4 125.14 1260.59 125.324C1259.78 125.186 1258.95 125.232 1258.56 125.739C1258.1 126.338 1258.79 127.259 1259.87 127.374C1260.17 127.397 1260.47 127.374 1260.77 127.328C1260.38 127.766 1260.26 128.318 1260.93 128.756C1261.74 129.285 1263.21 129.239 1263.63 128.618C1263.74 128.456 1263.77 128.249 1263.77 128.042C1264.34 128.456 1265.1 128.756 1265.91 128.502C1266.88 128.226 1267.08 127.282 1266.25 126.775C1266.02 126.637 1265.75 126.545 1265.45 126.453C1266.18 126.269 1266.78 125.923 1266.6 125.324H1266.62Z" fill="#48903A"/>
</g>
<g style="mix-blend-mode:multiply" opacity="0.3">
<path d="M1272.17 69.2025C1271.97 68.4886 1270.63 67.9819 1269.69 68.2813C1269.43 68.3734 1269.23 68.4886 1269.04 68.6498C1268.93 68.1201 1268.53 67.6135 1267.61 67.4753C1266.53 67.3141 1265.47 67.9359 1265.72 68.6498C1265.79 68.834 1265.95 69.0182 1266.14 69.2025C1265.33 69.0643 1264.5 69.1104 1264.11 69.617C1263.65 70.2158 1264.34 71.1369 1265.42 71.2521C1265.72 71.2751 1266.02 71.2521 1266.32 71.206C1265.93 71.6436 1265.82 72.1963 1266.48 72.6338C1267.29 73.1635 1268.77 73.1174 1269.18 72.4956C1269.29 72.3344 1269.32 72.1272 1269.32 71.9199C1269.89 72.3344 1270.65 72.6338 1271.46 72.3805C1272.43 72.1041 1272.64 71.1599 1271.81 70.6533C1271.58 70.5151 1271.3 70.423 1271 70.3309C1271.74 70.1467 1272.34 69.8012 1272.15 69.2025H1272.17Z" fill="#48903A"/>
</g>
<g style="mix-blend-mode:multiply" opacity="0.3">
<path d="M1065.49 138.981C1065.28 138.267 1063.94 137.76 1063 138.06C1062.75 138.152 1062.54 138.267 1062.36 138.428C1062.24 137.898 1061.85 137.392 1060.93 137.253C1059.84 137.092 1058.78 137.714 1059.04 138.428C1059.11 138.612 1059.27 138.796 1059.45 138.981C1058.65 138.842 1057.82 138.889 1057.42 139.395C1056.96 139.994 1057.66 140.915 1058.74 141.03C1059.04 141.053 1059.34 141.03 1059.64 140.984C1059.24 141.422 1059.13 141.974 1059.8 142.412C1060.6 142.942 1062.08 142.896 1062.49 142.274C1062.61 142.113 1062.63 141.905 1062.63 141.698C1063.21 142.113 1063.97 142.412 1064.77 142.159C1065.74 141.882 1065.95 140.938 1065.12 140.432C1064.89 140.293 1064.61 140.201 1064.31 140.109C1065.05 139.925 1065.65 139.579 1065.47 138.981H1065.49Z" fill="#48903A"/>
</g>
<g style="mix-blend-mode:multiply" opacity="0.3">
<path d="M1006.95 169.794C1006.74 169.08 1005.4 168.573 1004.46 168.872C1004.2 168.965 1004 169.08 1003.81 169.241C1003.7 168.711 1003.31 168.205 1002.38 168.066C1001.3 167.905 1000.24 168.527 1000.49 169.241C1000.56 169.425 1000.72 169.609 1000.91 169.794C1000.1 169.655 999.273 169.702 998.882 170.208C998.421 170.807 999.112 171.728 1000.19 171.843C1000.49 171.866 1000.79 171.843 1001.09 171.797C1000.7 172.235 1000.59 172.787 1001.25 173.225C1002.06 173.755 1003.54 173.709 1003.95 173.087C1004.07 172.926 1004.09 172.718 1004.09 172.511C1004.66 172.926 1005.42 173.225 1006.23 172.972C1007.2 172.695 1007.41 171.751 1006.58 171.244C1006.35 171.106 1006.07 171.014 1005.77 170.922C1006.51 170.738 1007.11 170.392 1006.92 169.794H1006.95Z" fill="#48903A"/>
</g>
<g style="mix-blend-mode:multiply" opacity="0.3">
<path d="M982.155 182.321C981.948 181.608 980.612 181.101 979.667 181.4C979.413 181.492 979.206 181.608 979.022 181.769C978.907 181.239 978.515 180.732 977.593 180.594C976.511 180.433 975.451 181.055 975.704 181.769C975.773 181.953 975.935 182.137 976.119 182.321C975.312 182.183 974.483 182.229 974.091 182.736C973.631 183.335 974.322 184.256 975.405 184.371C975.704 184.394 976.004 184.371 976.303 184.325C975.912 184.763 975.796 185.315 976.464 185.753C977.271 186.283 978.745 186.236 979.16 185.615C979.275 185.453 979.298 185.246 979.298 185.039C979.874 185.453 980.635 185.753 981.441 185.5C982.409 185.223 982.616 184.279 981.787 183.772C981.556 183.634 981.28 183.542 980.98 183.45C981.717 183.266 982.316 182.92 982.132 182.321H982.155Z" fill="#48903A"/>
</g>
<g style="mix-blend-mode:multiply" opacity="0.3">
<path d="M916.631 164.635C916.424 163.921 915.087 163.415 914.143 163.714C913.889 163.806 913.682 163.921 913.498 164.082C913.383 163.553 912.991 163.046 912.069 162.908C910.986 162.747 909.927 163.368 910.18 164.082C910.249 164.267 910.41 164.451 910.595 164.635C909.788 164.497 908.959 164.543 908.567 165.05C908.107 165.648 908.798 166.57 909.881 166.685C910.18 166.708 910.48 166.685 910.779 166.639C910.387 167.076 910.272 167.629 910.94 168.066C911.747 168.596 913.221 168.55 913.636 167.928C913.751 167.767 913.774 167.56 913.774 167.353C914.35 167.767 915.111 168.066 915.917 167.813C916.885 167.537 917.092 166.593 916.263 166.086C916.032 165.948 915.756 165.856 915.456 165.764C916.193 165.579 916.792 165.234 916.608 164.635H916.631Z" fill="#48903A"/>
</g>
<g style="mix-blend-mode:multiply" opacity="0.3">
<path d="M750.817 163.691C750.609 162.977 749.273 162.47 748.328 162.77C748.075 162.862 747.868 162.977 747.683 163.138C747.568 162.608 747.176 162.102 746.255 161.964C745.172 161.802 744.112 162.424 744.366 163.138C744.435 163.322 744.596 163.507 744.78 163.691C743.974 163.553 743.145 163.599 742.753 164.105C742.292 164.704 742.983 165.625 744.066 165.74C744.366 165.763 744.665 165.74 744.965 165.694C744.573 166.132 744.458 166.685 745.126 167.122C745.932 167.652 747.407 167.606 747.822 166.984C747.937 166.823 747.96 166.616 747.96 166.408C748.536 166.823 749.296 167.122 750.103 166.869C751.07 166.593 751.277 165.648 750.448 165.142C750.218 165.004 749.941 164.911 749.642 164.819C750.379 164.635 750.978 164.29 750.794 163.691H750.817Z" fill="#48903A"/>
</g>
<g style="mix-blend-mode:multiply" opacity="0.3">
<path d="M1221.56 142.481C1221.28 141.491 1219.37 140.754 1218.06 141.168C1217.71 141.284 1217.41 141.468 1217.16 141.698C1217 140.938 1216.44 140.224 1215.13 140.04C1213.59 139.81 1212.09 140.708 1212.46 141.675C1212.55 141.928 1212.78 142.205 1213.03 142.458C1211.88 142.251 1210.71 142.32 1210.15 143.034C1209.48 143.886 1210.48 145.175 1212.02 145.36C1212.43 145.406 1212.87 145.36 1213.31 145.291C1212.76 145.912 1212.57 146.672 1213.54 147.317C1214.67 148.077 1216.77 147.985 1217.36 147.11C1217.53 146.88 1217.57 146.603 1217.55 146.304C1218.35 146.903 1219.44 147.294 1220.59 146.972C1221.95 146.58 1222.27 145.245 1221.1 144.531C1220.8 144.346 1220.38 144.185 1219.94 144.07C1221 143.817 1221.81 143.31 1221.58 142.458L1221.56 142.481Z" fill="#48903A"/>
</g>
</g>
<path d="M1169.81 153.927C1169.6 153.213 1168.27 152.706 1167.32 153.005C1167.07 153.098 1166.86 153.213 1166.68 153.374C1166.56 152.844 1166.17 152.338 1165.25 152.199C1164.17 152.038 1163.11 152.66 1163.36 153.374C1163.43 153.558 1163.59 153.742 1163.77 153.927C1162.97 153.788 1162.14 153.834 1161.75 154.341C1161.29 154.94 1161.98 155.861 1163.06 155.976C1163.36 155.999 1163.66 155.976 1163.96 155.93C1163.57 156.368 1163.45 156.92 1164.12 157.358C1164.93 157.888 1166.4 157.842 1166.82 157.22C1166.93 157.059 1166.95 156.851 1166.95 156.644C1167.53 157.059 1168.29 157.358 1169.1 157.105C1170.06 156.828 1170.27 155.884 1169.44 155.377C1169.21 155.239 1168.94 155.147 1168.64 155.055C1169.37 154.871 1169.97 154.525 1169.79 153.927H1169.81Z" fill="#F4D531"/>
<path d="M1256.85 127.397C1256.58 126.407 1254.66 125.67 1253.35 126.084C1253.01 126.2 1252.71 126.384 1252.45 126.614C1252.29 125.854 1251.74 125.14 1250.43 124.956C1248.88 124.726 1247.38 125.624 1247.75 126.591C1247.85 126.844 1248.08 127.121 1248.33 127.374C1247.18 127.167 1246 127.236 1245.45 127.95C1244.78 128.802 1245.77 130.092 1247.32 130.276C1247.73 130.322 1248.17 130.276 1248.61 130.207C1248.05 130.828 1247.87 131.588 1248.84 132.233C1249.96 132.993 1252.06 132.901 1252.66 132.026C1252.82 131.796 1252.87 131.519 1252.84 131.22C1253.65 131.819 1254.73 132.21 1255.89 131.888C1257.25 131.496 1257.57 130.161 1256.39 129.447C1256.09 129.262 1255.68 129.101 1255.24 128.986C1256.3 128.733 1257.11 128.226 1256.88 127.374L1256.85 127.397Z" fill="#F4D531"/>
<path d="M1181.28 125.785C1181.08 125.071 1179.74 124.565 1178.8 124.864C1178.54 124.956 1178.34 125.071 1178.15 125.232C1178.04 124.703 1177.64 124.196 1176.72 124.058C1175.64 123.897 1174.58 124.519 1174.83 125.232C1174.9 125.417 1175.06 125.601 1175.25 125.785C1174.44 125.647 1173.61 125.693 1173.22 126.2C1172.76 126.798 1173.45 127.72 1174.53 127.835C1174.83 127.858 1175.13 127.835 1175.43 127.789C1175.04 128.226 1174.93 128.779 1175.59 129.216C1176.4 129.746 1177.87 129.7 1178.29 129.078C1178.4 128.917 1178.43 128.71 1178.43 128.503C1179 128.917 1179.76 129.216 1180.57 128.963C1181.54 128.687 1181.75 127.743 1180.92 127.236C1180.69 127.098 1180.41 127.006 1180.11 126.914C1180.85 126.729 1181.45 126.384 1181.26 125.785H1181.28Z" fill="#F4D531"/>
<path d="M1044.09 66.8996C1043.88 66.1857 1042.54 65.6791 1041.6 65.9785C1041.34 66.0706 1041.14 66.1857 1040.95 66.3469C1040.84 65.8172 1040.44 65.3106 1039.52 65.1724C1038.44 65.0112 1037.38 65.633 1037.63 66.3469C1037.7 66.5311 1037.86 66.7154 1038.05 66.8996C1037.24 66.7614 1036.41 66.8075 1036.02 67.3141C1035.56 67.9129 1036.25 68.8341 1037.33 68.9492C1037.63 68.9722 1037.93 68.9492 1038.23 68.9031C1037.84 69.3407 1037.73 69.8934 1038.39 70.331C1039.2 70.8606 1040.68 70.8146 1041.09 70.1928C1041.21 70.0316 1041.23 69.8243 1041.23 69.6171C1041.8 70.0316 1042.56 70.331 1043.37 70.0776C1044.34 69.8013 1044.55 68.8571 1043.72 68.3505C1043.49 68.2123 1043.21 68.1202 1042.91 68.028C1043.65 67.8438 1044.25 67.4984 1044.06 66.8996H1044.09Z" fill="#F4D531"/>
<path d="M1248.91 151.163C1248.7 150.449 1247.36 149.943 1246.42 150.242C1246.16 150.334 1245.96 150.449 1245.77 150.61C1245.66 150.081 1245.26 149.574 1244.34 149.436C1243.26 149.275 1242.2 149.897 1242.45 150.61C1242.52 150.795 1242.68 150.979 1242.87 151.163C1242.06 151.025 1241.23 151.071 1240.84 151.578C1240.38 152.176 1241.07 153.098 1242.15 153.213C1242.45 153.236 1242.75 153.213 1243.05 153.167C1242.66 153.604 1242.55 154.157 1243.21 154.594C1244.02 155.124 1245.5 155.078 1245.91 154.456C1246.03 154.295 1246.05 154.088 1246.05 153.881C1246.62 154.295 1247.38 154.594 1248.19 154.341C1249.16 154.065 1249.37 153.121 1248.54 152.614C1248.31 152.476 1248.03 152.384 1247.73 152.292C1248.47 152.107 1249.07 151.762 1248.88 151.163H1248.91Z" fill="#F4D531"/>
<path d="M1266.62 123.022C1266.42 122.308 1265.08 121.801 1264.13 122.1C1263.88 122.193 1263.67 122.308 1263.49 122.469C1263.37 121.939 1262.98 121.433 1262.06 121.294C1260.98 121.133 1259.92 121.755 1260.17 122.469C1260.24 122.653 1260.4 122.837 1260.59 123.022C1259.78 122.883 1258.95 122.929 1258.56 123.436C1258.1 124.035 1258.79 124.956 1259.87 125.071C1260.17 125.094 1260.47 125.071 1260.77 125.025C1260.38 125.463 1260.26 126.015 1260.93 126.453C1261.74 126.983 1263.21 126.937 1263.63 126.315C1263.74 126.154 1263.77 125.946 1263.77 125.739C1264.34 126.154 1265.1 126.453 1265.91 126.2C1266.88 125.923 1267.08 124.979 1266.25 124.472C1266.02 124.334 1265.75 124.242 1265.45 124.15C1266.18 123.966 1266.78 123.62 1266.6 123.022H1266.62Z" fill="#F4D531"/>
<path d="M1272.17 66.8996C1271.97 66.1857 1270.63 65.6791 1269.69 65.9785C1269.43 66.0706 1269.23 66.1857 1269.04 66.3469C1268.93 65.8172 1268.53 65.3106 1267.61 65.1724C1266.53 65.0112 1265.47 65.633 1265.72 66.3469C1265.79 66.5311 1265.95 66.7154 1266.14 66.8996C1265.33 66.7614 1264.5 66.8075 1264.11 67.3141C1263.65 67.9129 1264.34 68.8341 1265.42 68.9492C1265.72 68.9722 1266.02 68.9492 1266.32 68.9031C1265.93 69.3407 1265.82 69.8934 1266.48 70.331C1267.29 70.8606 1268.77 70.8146 1269.18 70.1928C1269.29 70.0316 1269.32 69.8243 1269.32 69.6171C1269.89 70.0316 1270.65 70.331 1271.46 70.0776C1272.43 69.8013 1272.64 68.8571 1271.81 68.3505C1271.58 68.2123 1271.3 68.1202 1271 68.028C1271.74 67.8438 1272.34 67.4984 1272.15 66.8996H1272.17Z" fill="#F4D531"/>
<path d="M1065.49 136.678C1065.28 135.964 1063.94 135.457 1063 135.757C1062.75 135.849 1062.54 135.964 1062.36 136.125C1062.24 135.595 1061.85 135.089 1060.93 134.951C1059.84 134.789 1058.78 135.411 1059.04 136.125C1059.11 136.309 1059.27 136.494 1059.45 136.678C1058.65 136.54 1057.82 136.586 1057.42 137.092C1056.96 137.691 1057.66 138.612 1058.74 138.727C1059.04 138.75 1059.34 138.727 1059.64 138.681C1059.24 139.119 1059.13 139.672 1059.8 140.109C1060.6 140.639 1062.08 140.593 1062.49 139.971C1062.61 139.81 1062.63 139.603 1062.63 139.395C1063.21 139.81 1063.97 140.109 1064.77 139.856C1065.74 139.579 1065.95 138.635 1065.12 138.129C1064.89 137.99 1064.61 137.898 1064.31 137.806C1065.05 137.622 1065.65 137.277 1065.47 136.678H1065.49Z" fill="#F4D531"/>
<path d="M1006.95 167.468C1006.74 166.754 1005.4 166.247 1004.46 166.547C1004.2 166.639 1004 166.754 1003.81 166.915C1003.7 166.385 1003.31 165.879 1002.38 165.741C1001.3 165.579 1000.24 166.201 1000.49 166.915C1000.56 167.099 1000.72 167.283 1000.91 167.468C1000.1 167.33 999.273 167.376 998.882 167.882C998.421 168.481 999.112 169.402 1000.19 169.517C1000.49 169.54 1000.79 169.517 1001.09 169.471C1000.7 169.909 1000.59 170.462 1001.25 170.899C1002.06 171.429 1003.54 171.383 1003.95 170.761C1004.07 170.6 1004.09 170.392 1004.09 170.185C1004.66 170.6 1005.42 170.899 1006.23 170.646C1007.2 170.369 1007.41 169.425 1006.58 168.919C1006.35 168.78 1006.07 168.688 1005.77 168.596C1006.51 168.412 1007.11 168.066 1006.92 167.468H1006.95Z" fill="#F4D531"/>
<path d="M982.155 180.019C981.948 179.305 980.612 178.798 979.667 179.097C979.413 179.19 979.206 179.305 979.022 179.466C978.907 178.936 978.515 178.43 977.593 178.291C976.511 178.13 975.451 178.752 975.704 179.466C975.773 179.65 975.935 179.834 976.119 180.019C975.312 179.88 974.483 179.927 974.091 180.433C973.631 181.032 974.322 181.953 975.405 182.068C975.704 182.091 976.004 182.068 976.303 182.022C975.912 182.46 975.796 183.012 976.464 183.45C977.271 183.98 978.745 183.934 979.16 183.312C979.275 183.151 979.298 182.943 979.298 182.736C979.874 183.151 980.635 183.45 981.441 183.197C982.409 182.92 982.616 181.976 981.787 181.469C981.556 181.331 981.28 181.239 980.98 181.147C981.717 180.963 982.316 180.617 982.132 180.019H982.155Z" fill="#F4D531"/>
<path d="M916.631 162.332C916.424 161.618 915.087 161.112 914.143 161.411C913.889 161.503 913.682 161.618 913.498 161.78C913.383 161.25 912.991 160.743 912.069 160.605C910.986 160.444 909.927 161.066 910.18 161.78C910.249 161.964 910.41 162.148 910.595 162.332C909.788 162.194 908.959 162.24 908.567 162.747C908.107 163.346 908.798 164.267 909.881 164.382C910.18 164.405 910.48 164.382 910.779 164.336C910.387 164.773 910.272 165.326 910.94 165.764C911.747 166.293 913.221 166.247 913.636 165.625C913.751 165.464 913.774 165.257 913.774 165.05C914.35 165.464 915.111 165.764 915.917 165.51C916.885 165.234 917.092 164.29 916.263 163.783C916.032 163.645 915.756 163.553 915.456 163.461C916.193 163.276 916.792 162.931 916.608 162.332H916.631Z" fill="#F4D531"/>
<path d="M750.817 161.388C750.609 160.674 749.273 160.168 748.328 160.467C748.075 160.559 747.868 160.674 747.683 160.835C747.568 160.306 747.176 159.799 746.255 159.661C745.172 159.5 744.112 160.122 744.366 160.835C744.435 161.02 744.596 161.204 744.78 161.388C743.974 161.25 743.145 161.296 742.753 161.803C742.292 162.401 742.983 163.323 744.066 163.438C744.366 163.461 744.665 163.438 744.965 163.392C744.573 163.829 744.458 164.382 745.126 164.819C745.932 165.349 747.407 165.303 747.822 164.681C747.937 164.52 747.96 164.313 747.96 164.106C748.536 164.52 749.296 164.819 750.103 164.566C751.07 164.29 751.277 163.346 750.448 162.839C750.218 162.701 749.941 162.609 749.642 162.517C750.379 162.332 750.978 161.987 750.794 161.388H750.817Z" fill="#F4D531"/>
<path d="M1221.56 140.178C1221.28 139.188 1219.37 138.451 1218.06 138.866C1217.71 138.981 1217.41 139.165 1217.16 139.395C1217 138.635 1216.44 137.921 1215.13 137.737C1213.59 137.507 1212.09 138.405 1212.46 139.372C1212.55 139.626 1212.78 139.902 1213.03 140.155C1211.88 139.948 1210.71 140.017 1210.15 140.731C1209.48 141.583 1210.48 142.873 1212.02 143.057C1212.43 143.103 1212.87 143.057 1213.31 142.988C1212.76 143.61 1212.57 144.37 1213.54 145.014C1214.67 145.774 1216.77 145.682 1217.36 144.807C1217.53 144.577 1217.57 144.3 1217.55 144.001C1218.35 144.6 1219.44 144.991 1220.59 144.669C1221.95 144.277 1222.27 142.942 1221.1 142.228C1220.8 142.044 1220.38 141.882 1219.94 141.767C1221 141.514 1221.81 141.007 1221.58 140.155L1221.56 140.178Z" fill="#F4D531"/>
</svg>
