<svg width="1980" height="178" viewBox="0 0 1980 178" fill="none" xmlns="http://www.w3.org/2000/svg">
<g clip-path="url(#clip0_40_334)">
<path d="M2353.4 8.02202C2302.29 -26.69 2237.69 -30.566 2176.46 -25.503C2116.42 -20.538 2057.46 -5.28399 1998.44 8.29701C1909.86 28.663 1821.43 49.46 1732.46 67.152C1642.58 85.04 1552.28 100.03 1461.66 110.484C1371.07 120.933 1280.43 124.81 1189.82 125.067C1008.28 125.599 827.754 110.766 648.424 90.852C561.755 81.218 475.692 69.441 389.646 56.379C304.479 43.439 219.005 31.97 132.285 29.978C59.1899 28.287 -17.2718 31.756 -87.547 59.51C-143.482 81.59 -193.724 118.433 -234.582 163.862C-314.491 252.564 -357.538 382.349 -333.439 497.563C-326.216 532.085 -314.642 564.715 -298.563 595.316C-301.924 601.414 -302.656 608.96 -298.396 616.338C-236.418 723.66 -134.547 793.88 -23.1149 840.96C90.6194 888.99 213.629 914.98 336.569 931.78C495.115 953.46 655.594 963.19 816.895 957.56C993.058 951.42 1169.16 926.83 1342.6 886.1C1496.45 849.94 1649.92 801.7 1796.54 738.29C1936.2 677.87 2071.6 600.997 2188.47 499.506C2241 453.909 2289.94 403.709 2331.22 347.193C2369.82 294.305 2405.36 234.171 2417.05 169.347C2428.82 104.113 2405.92 43.714 2353.4 8.05V8.02202Z" fill="#80BA36"/>
<path opacity="0.8" d="M2353.41 8.3829C2302.3 -26.3181 2237.7 -30.1921 2176.48 -25.1311C2116.45 -20.1671 2057.48 -4.9181 1998.47 8.6579C1985.91 11.5529 1973.34 14.4469 1960.78 17.3419C1757.02 97.4179 1519.91 161.597 1264.84 200.711C686.49 289.4 173.525 225.13 -80.0444 57.1059C-82.5021 58.0239 -84.9652 58.8849 -87.4203 59.8309C-143.352 81.9039 -193.59 118.735 -234.446 164.15C-314.32 252.847 -357.364 382.591 -333.267 497.768C-326.044 532.279 -314.471 564.899 -298.393 595.49C-301.753 601.586 -302.485 609.13 -298.226 616.506C-236.252 723.8 -134.387 793.99 -22.9618 841.05C90.7654 889.07 213.767 915.05 336.7 931.85C495.236 953.52 655.705 963.25 816.997 957.62C993.149 951.48 1169.24 926.9 1342.67 886.18C1496.51 850.03 1649.97 801.81 1796.58 738.42C1936.23 678.02 2071.62 601.169 2188.49 499.71C2241.02 454.128 2289.95 403.944 2331.23 347.446C2369.83 294.575 2405.36 234.46 2417.06 169.657C2428.83 104.444 2405.92 44.0639 2353.41 8.41092V8.3829Z" fill="#6EAA28"/>
<path opacity="0.7" d="M404.654 172.362C403.987 168.545 397.407 165.396 392.49 166.78C391.172 167.162 390.048 167.803 389.021 168.575C388.754 165.712 386.942 162.917 382.345 161.984C376.882 160.839 371.131 163.865 372.078 167.667C372.313 168.676 373.001 169.701 373.881 170.667C369.841 169.676 365.56 169.71 363.296 172.333C360.597 175.43 363.63 180.445 369.105 181.413C370.567 181.677 372.114 181.637 373.678 181.478C371.434 183.72 370.625 186.521 373.797 189.101C377.579 192.167 385.195 192.218 387.689 189.036C388.342 188.178 388.64 187.143 388.708 186.058C391.382 188.426 395.121 190.133 399.395 189.112C404.439 187.882 406.12 182.94 402.152 179.991C401.092 179.199 399.711 178.602 398.197 178.085C402.073 177.33 405.234 175.554 404.682 172.358L404.654 172.362Z" fill="#48903A"/>
<path d="M375.05 184.914C378.84 187.954 386.497 187.987 389.012 184.763C391.118 182.041 389.758 177.648 388.158 174.687C386.219 171.113 382.713 172.786 379.474 174.27C374.791 176.395 370.131 180.983 375.05 184.914Z" fill="#F4D531"/>
<path d="M400.437 185.231C405.499 183.976 407.202 179.048 403.234 176.138C399.872 173.679 393.431 172.817 388.92 172.653C383.501 172.463 385.097 175.411 386.445 178.111C388.407 181.982 393.825 186.852 400.409 185.235L400.437 185.231Z" fill="#F4D531"/>
<g style="mix-blend-mode:multiply">
<g style="mix-blend-mode:multiply">
<path d="M394.668 170.37C396.374 173.888 393.677 177.417 388.641 178.223C383.604 179.029 378.149 176.806 376.443 173.287C374.736 169.769 377.434 166.24 382.47 165.434C387.506 164.627 392.962 166.851 394.668 170.37Z" fill="#F4D531"/>
</g>
</g>
<path opacity="0.7" d="M1464.16 161.343C1462.46 157.957 1455.19 156.983 1450.77 159.735C1449.6 160.47 1448.68 161.427 1447.91 162.476C1446.85 159.889 1444.31 157.794 1439.6 158.245C1433.96 158.811 1429.23 163.352 1431.17 166.641C1431.71 167.514 1432.62 168.269 1433.78 168.928C1429.55 169.186 1425.42 170.501 1423.92 173.637C1422.15 177.364 1426.48 181.177 1432.1 180.439C1433.6 180.233 1435.1 179.764 1436.57 179.129C1435.02 181.893 1434.98 184.798 1438.81 186.255C1443.34 188.008 1450.76 185.798 1452.3 182.049C1452.71 181.056 1452.7 179.986 1452.46 178.951C1455.72 180.381 1459.85 180.863 1463.69 178.635C1468.26 175.976 1468.51 170.834 1463.86 169.246C1462.61 168.834 1461.1 168.665 1459.49 168.628C1463.06 166.762 1465.63 164.155 1464.21 161.306L1464.16 161.343Z" fill="#48903A"/>
<path d="M1438.79 182.005C1443.35 183.735 1450.82 181.476 1452.38 177.708C1453.68 174.534 1451.13 170.794 1448.74 168.481C1445.85 165.696 1442.91 168.322 1440.15 170.659C1436.17 174.035 1432.89 179.738 1438.82 182L1438.79 182.005Z" fill="#F4D531"/>
<path opacity="0.7" d="M112.926 186.752C110.766 180.825 99.0401 177.736 91.3296 181.443C89.281 182.432 87.5806 183.831 86.1487 185.391C84.9081 180.857 81.1596 176.92 73.3131 176.761C64.0266 176.567 55.4037 183.174 57.9772 189.007C58.657 190.554 60.0587 191.988 61.7882 193.312C54.8498 192.923 47.847 194.256 44.8131 199.172C41.2155 204.989 47.6328 212.162 56.9481 212.062C59.4233 212.021 61.9695 211.533 64.489 210.76C61.4519 215.038 60.8576 219.832 66.8174 223.015C73.9045 226.805 86.4626 224.627 89.6305 218.733C90.4686 217.15 90.6441 215.411 90.4784 213.638C95.5232 216.675 102.182 218.297 108.894 215.356C116.851 211.871 118.224 203.357 110.878 199.811C108.931 198.87 106.483 198.297 103.859 197.955C110.031 195.564 114.72 191.78 112.901 186.785L112.926 186.752Z" fill="#48903A"/>
<path d="M73.7685 168.598C64.4274 168.46 55.7306 175.129 58.2992 180.956C60.475 185.889 69.3826 189.699 76.1654 191.647C84.3184 194.012 85.4587 189.064 86.6377 184.545C88.347 178.052 85.9453 168.741 73.7659 168.57L73.7685 168.598Z" fill="#F4D531"/>
<path d="M113.072 179.398C110.934 173.556 99.224 170.575 91.5048 174.282C84.9737 177.426 81.7437 184.333 80.6134 189.241C79.2652 195.158 86.6607 194.081 93.395 193.167C103.138 191.883 115.849 186.999 113.072 179.398Z" fill="#F4D531"/>
<path opacity="0.7" d="M551.455 162.49C550.892 159.18 545.171 156.477 540.913 157.67C539.787 157.992 538.797 158.555 537.931 159.243C537.701 156.781 536.121 154.356 532.154 153.528C527.44 152.555 522.468 155.168 523.254 158.444C523.475 159.31 524.038 160.209 524.821 161.045C521.329 160.171 517.638 160.199 515.653 162.487C513.311 165.18 515.941 169.502 520.7 170.352C521.96 170.56 523.313 170.551 524.651 170.398C522.717 172.33 521.987 174.769 524.761 177.006C528.025 179.659 534.628 179.724 536.764 176.947C537.345 176.217 537.57 175.31 537.651 174.367C539.957 176.416 543.197 177.911 546.891 177.01C551.246 175.947 552.705 171.65 549.282 169.108C548.374 168.438 547.168 167.901 545.859 167.468C549.21 166.824 551.942 165.29 551.458 162.519L551.455 162.49Z" fill="#48903A"/>
<path d="M448.086 177.935C442.942 176.966 437.551 179.882 438.44 183.436C439.193 186.43 443.756 189.444 447.323 191.194C451.607 193.322 452.7 190.639 453.758 188.196C455.287 184.685 454.792 179.203 448.086 177.935Z" fill="#F4D531"/>
<path opacity="0.7" d="M717.613 171.289C717.104 168.551 712.331 166.339 708.79 167.361C707.857 167.624 707.027 168.103 706.32 168.679C706.128 166.618 704.785 164.621 701.456 163.983C697.522 163.208 693.388 165.427 694.095 168.163C694.275 168.889 694.767 169.625 695.422 170.307C692.51 169.603 689.417 169.683 687.791 171.595C685.859 173.845 688.084 177.446 692.063 178.098C693.123 178.28 694.247 178.248 695.361 178.102C693.764 179.718 693.193 181.755 695.508 183.598C698.249 185.781 703.771 185.755 705.528 183.445C706.005 182.818 706.191 182.092 706.23 181.301C708.165 183.001 710.898 184.198 713.955 183.427C717.59 182.506 718.749 178.925 715.875 176.821C715.119 176.271 714.121 175.847 713.017 175.498C715.81 174.914 718.085 173.626 717.644 171.313L717.613 171.289Z" fill="#48903A"/>
<path d="M696.34 180.554C699.087 182.719 704.637 182.659 706.412 180.339C707.905 178.355 706.912 175.208 705.727 173.079C704.306 170.524 701.78 171.747 699.47 172.848C696.124 174.407 692.771 177.767 696.368 180.549L696.34 180.554Z" fill="#F4D531"/>
<path d="M714.656 180.597C718.303 179.659 719.478 176.089 716.607 174.042C714.159 172.302 709.499 171.729 706.268 171.646C702.358 171.558 703.537 173.649 704.534 175.596C705.972 178.366 709.933 181.825 714.659 180.625L714.656 180.597Z" fill="#F4D531"/>
<path opacity="0.7" d="M830.561 172.336C830.057 169.656 825.4 167.484 821.943 168.492C821.01 168.756 820.236 169.226 819.529 169.802C819.342 167.798 818.03 165.826 814.787 165.203C810.939 164.444 806.887 166.621 807.585 169.27C807.763 169.968 808.252 170.675 808.879 171.361C806.025 170.677 803.016 170.744 801.413 172.594C799.533 174.806 801.72 178.296 805.585 178.937C806.614 179.095 807.711 179.068 808.797 178.926C807.225 180.509 806.679 182.512 808.933 184.307C811.612 186.441 816.993 186.408 818.725 184.131C819.177 183.537 819.39 182.807 819.429 182.016C821.331 183.663 824.005 184.84 826.979 184.082C830.53 183.175 831.669 179.684 828.856 177.629C828.1 177.08 827.133 176.68 826.057 176.327C828.794 175.751 830.989 174.505 830.58 172.246L830.561 172.336Z" fill="#48903A"/>
<path d="M809.778 181.409C812.464 183.526 817.875 183.488 819.624 181.202C821.094 179.28 820.106 176.19 818.955 174.113C817.566 171.611 815.097 172.825 812.84 173.888C809.548 175.41 806.301 178.694 809.809 181.433L809.778 181.409Z" fill="#F4D531"/>
<path d="M827.671 181.423C831.234 180.499 832.389 177.019 829.576 174.992C827.189 173.299 822.643 172.737 819.468 172.645C815.645 172.572 816.791 174.61 817.782 176.5C819.215 179.213 823.057 182.604 827.696 181.39L827.671 181.423Z" fill="#F4D531"/>
<path d="M1490.35 83.739C1487.45 84.3887 1484.85 85.6782 1482.67 87.4018C1475.8 79.8724 1465.13 76.1226 1454.42 78.5147C1453.71 78.6739 1453.02 78.8697 1452.33 79.0744C1452.26 78.6848 1452.21 78.2902 1452.12 77.9045C1449.8 67.7279 1439.57 61.3337 1429.28 63.6329C1422.44 65.1607 1417.32 70.1477 1415.31 76.3045C1410.78 75.0457 1405.86 74.8459 1400.95 75.9446C1388.94 78.6264 1380.34 88.2424 1378.47 99.5691C1374.49 97.3461 1369.7 96.4996 1364.88 97.5765C1354.59 99.8747 1348.13 109.985 1350.46 120.172C1352.79 130.357 1363.01 136.732 1373.3 134.432C1379.17 133.121 1383.8 129.26 1386.25 124.291C1393.12 131.363 1403.47 134.811 1413.85 132.49C1422.72 130.509 1429.74 124.744 1433.55 117.302C1438.72 130.474 1452.98 138.266 1467.33 135.061C1476.33 133.052 1483.4 127.154 1487.18 119.567C1490.72 121.036 1494.73 121.489 1498.77 120.587C1509.06 118.288 1515.52 108.177 1513.19 98.0007C1510.87 87.8251 1500.64 81.4309 1490.35 83.7301V83.739Z" fill="#4A9038"/>
<g style="mix-blend-mode:multiply" opacity="0.5">
<g style="mix-blend-mode:multiply">
<path d="M1467.75 97.3245C1466.01 97.7141 1464.45 98.4875 1463.14 99.5209C1459.02 94.9967 1452.61 92.7489 1446.18 94.1848C1445.75 94.2807 1445.34 94.3935 1444.93 94.5161C1444.88 94.2827 1444.86 94.0444 1444.81 93.813C1443.41 87.7076 1437.27 83.8697 1431.09 85.2482C1426.99 86.1659 1423.91 89.1553 1422.71 92.8488C1419.98 92.0893 1417.04 91.9776 1414.09 92.6352C1406.88 94.2461 1401.71 100.024 1400.6 106.822C1398.2 105.492 1395.33 104.978 1392.44 105.623C1386.26 107.005 1382.39 113.08 1383.78 119.186C1385.18 125.292 1391.31 129.132 1397.5 127.751C1401.03 126.962 1403.8 124.64 1405.27 121.664C1409.4 125.912 1415.61 127.981 1421.85 126.589C1427.17 125.399 1431.38 121.934 1433.67 117.468C1436.77 125.373 1445.34 130.06 1453.95 128.135C1459.34 126.931 1463.6 123.385 1465.86 118.835C1467.99 119.718 1470.4 119.99 1472.82 119.45C1478.99 118.07 1482.87 111.993 1481.48 105.886C1480.08 99.7809 1473.94 95.943 1467.76 97.3225L1467.75 97.3245Z" fill="#4A9038"/>
</g>
</g>
<path opacity="0.7" d="M1835.56 133.276C1834.24 129.722 1827.16 127.896 1822.53 130.137C1821.29 130.731 1820.27 131.579 1819.4 132.488C1818.64 129.795 1816.39 127.419 1811.65 127.353C1806.03 127.25 1800.83 131.216 1802.39 134.673C1802.82 135.611 1803.66 136.456 1804.69 137.242C1800.5 137.005 1796.27 137.834 1794.46 140.755C1792.31 144.218 1796.18 148.493 1801.78 148.426C1803.27 148.396 1804.82 148.097 1806.33 147.662C1804.48 150.215 1804.13 153.081 1807.75 154.987C1812.02 157.249 1819.61 155.925 1821.54 152.412C1822.04 151.474 1822.17 150.422 1822.04 149.38C1825.08 151.201 1829.12 152.152 1833.18 150.402C1838 148.305 1838.78 143.247 1834.36 141.123C1833.18 140.561 1831.71 140.216 1830.11 140.005C1833.84 138.565 1836.67 136.317 1835.57 133.332L1835.56 133.276Z" fill="#48903A"/>
<path d="M1811.9 122.496C1806.25 122.427 1801 126.401 1802.57 129.883C1803.89 132.83 1809.26 135.099 1813.36 136.249C1818.28 137.67 1818.97 134.688 1819.69 132.016C1820.73 128.145 1819.25 122.58 1811.9 122.496Z" fill="#F4D531"/>
<path d="M1794.99 136.065C1792.84 139.473 1796.68 143.643 1802.26 143.545C1807.01 143.467 1812.23 140.726 1815.43 138.531C1819.26 135.872 1815.22 134.741 1811.61 133.627C1806.37 132.067 1797.81 131.597 1794.99 136.037V136.065Z" fill="#F4D531"/>
<path d="M1808.26 150.755C1812.54 152.995 1820.18 151.624 1822.13 148.097C1823.76 145.109 1821.66 141.111 1819.56 138.549C1817 135.456 1813.81 137.721 1810.85 139.717C1806.55 142.619 1802.69 147.86 1808.28 150.75L1808.26 150.755Z" fill="#F4D531"/>
<path d="M1833.45 146.325C1838.27 144.222 1839.11 139.213 1834.66 137.143C1830.92 135.387 1824.36 135.725 1819.88 136.382C1814.49 137.186 1816.55 139.692 1818.37 142.01C1820.99 145.364 1827.19 149.025 1833.45 146.325Z" fill="#F4D531"/>
<path d="M1835.66 128.899C1834.35 125.396 1827.28 123.634 1822.64 125.874C1818.7 127.749 1816.75 131.884 1816.09 134.822C1815.26 138.354 1819.73 137.697 1823.82 137.158C1829.7 136.364 1837.37 133.468 1835.69 128.922L1835.66 128.899Z" fill="#F4D531"/>
<g style="mix-blend-mode:multiply">
<g style="mix-blend-mode:multiply">
<path d="M1825.35 133.112C1827.64 136.205 1825.58 140.072 1820.71 141.754C1815.85 143.435 1810.05 142.296 1807.73 139.208C1805.41 136.119 1807.51 132.249 1812.37 130.594C1817.24 128.913 1823.04 130.052 1825.36 133.141L1825.35 133.112Z" fill="#F4D531"/>
</g>
</g>
<path d="M1812.82 136.582C1814.63 135.954 1813.31 134.192 1811.5 134.82C1809.7 135.448 1811.02 137.21 1812.82 136.582Z" fill="#F4D531"/>
<path d="M1819.57 139.583C1821.37 138.955 1820.05 137.191 1818.25 137.819C1816.45 138.447 1817.77 140.21 1819.57 139.583Z" fill="#F4D531"/>
<path d="M1819.61 134.325C1821.42 133.697 1820.1 131.934 1818.29 132.562C1816.49 133.19 1817.81 134.953 1819.61 134.325Z" fill="#F4D531"/>
<path d="M1814.83 139.394C1816.64 138.766 1815.31 137.004 1813.51 137.632C1811.71 138.26 1813.03 140.022 1814.83 139.394Z" fill="#F4D531"/>
<path d="M1815.53 134.528C1817.34 133.9 1816.02 132.138 1814.21 132.766C1812.41 133.394 1813.73 135.156 1815.53 134.528Z" fill="#F4D531"/>
<path d="M1821.62 137.136C1823.43 136.508 1822.11 134.745 1820.3 135.373C1818.5 136.001 1819.82 137.764 1821.62 137.136Z" fill="#F4D531"/>
<path d="M383.33 157.476C377.83 156.373 372.026 159.41 372.967 163.176C373.741 166.364 378.582 169.589 382.367 171.514C386.924 173.805 388.113 170.964 389.273 168.415C390.953 164.717 390.481 158.916 383.333 157.503L383.33 157.476Z" fill="#F4D531"/>
<path d="M364.471 167.798C361.767 170.825 364.776 175.679 370.235 176.589C374.865 177.347 380.441 175.556 383.949 173.925C388.158 171.957 384.412 170.098 381.07 168.343C376.251 165.838 367.991 163.85 364.471 167.798Z" fill="#F4D531"/>
<path d="M405.488 168.237C404.835 164.518 398.274 161.488 393.358 162.868C389.184 164.043 386.572 167.8 385.392 170.593C383.984 173.96 388.448 174.098 392.495 174.301C398.353 174.584 406.326 173.057 405.485 168.209L405.488 168.237Z" fill="#F4D531"/>
<path d="M381.807 171.611C383.672 171.316 382.696 169.323 380.832 169.617C378.967 169.913 379.942 171.907 381.807 171.611Z" fill="#F4D531"/>
<path d="M387.971 175.85C389.836 175.554 388.86 173.561 386.995 173.856C385.13 174.151 386.106 176.145 387.971 175.85Z" fill="#F4D531"/>
<path d="M388.887 170.688C390.752 170.393 389.777 168.399 387.912 168.695C386.047 168.989 387.022 170.983 388.887 170.688Z" fill="#F4D531"/>
<path d="M383.33 174.784C385.195 174.488 384.219 172.495 382.354 172.791C380.489 173.086 381.465 175.08 383.33 174.784Z" fill="#F4D531"/>
<path d="M384.829 170.114C386.693 169.818 385.718 167.824 383.853 168.119C381.988 168.415 382.964 170.408 384.829 170.114Z" fill="#F4D531"/>
<path d="M390.41 173.862C392.275 173.566 391.299 171.572 389.434 171.868C387.569 172.163 388.545 174.156 390.41 173.862Z" fill="#F4D531"/>
<path d="M1439.39 153.578C1433.75 154.167 1428.95 158.692 1430.89 161.936C1432.53 164.685 1438.17 166.275 1442.4 166.973C1447.49 167.792 1447.84 164.782 1448.24 162.051C1448.81 158.117 1446.74 152.83 1439.39 153.578Z" fill="#F4D531"/>
<path d="M1423.98 169.053C1422.2 172.679 1426.51 176.353 1432.11 175.606C1436.86 174.967 1441.78 171.686 1444.72 169.14C1448.26 166.079 1444.1 165.417 1440.33 164.777C1434.9 163.838 1426.29 164.358 1423.98 169.081V169.053Z" fill="#F4D531"/>
<path d="M1463.43 174.553C1468.01 171.961 1468.27 166.92 1463.63 165.398C1459.69 164.133 1453.17 165.168 1448.77 166.347C1443.47 167.754 1445.82 169.98 1447.89 172.051C1450.87 175.052 1457.5 177.925 1463.46 174.548L1463.43 174.553Z" fill="#F4D531"/>
<path d="M1463.79 157.081C1462.1 153.771 1454.8 152.862 1450.39 155.582C1446.66 157.882 1445.17 162.211 1444.82 165.192C1444.42 168.779 1448.8 167.625 1452.82 166.615C1458.61 165.151 1465.99 161.389 1463.79 157.081Z" fill="#F4D531"/>
<g style="mix-blend-mode:multiply">
<g style="mix-blend-mode:multiply">
<path d="M1453.96 162.496C1456.61 165.273 1454.96 169.328 1450.26 171.554C1445.59 173.774 1439.63 173.318 1437.01 170.565C1434.35 167.788 1436 163.731 1440.7 161.506C1445.4 159.281 1451.33 159.714 1453.96 162.496Z" fill="#F4D531"/>
</g>
</g>
<path d="M1441.83 167.408C1443.56 166.592 1442.06 165.001 1440.33 165.817C1438.6 166.633 1440.1 168.223 1441.83 167.408Z" fill="#F4D531"/>
<path d="M1448.87 169.563C1450.6 168.748 1449.1 167.157 1447.37 167.973C1445.64 168.788 1447.14 170.379 1448.87 169.563Z" fill="#F4D531"/>
<path d="M1448.36 164.318C1450.09 163.502 1448.56 161.916 1446.86 162.728C1445.13 163.543 1446.63 165.134 1448.36 164.318Z" fill="#F4D531"/>
<path d="M1444.15 169.97C1445.87 169.154 1444.37 167.564 1442.64 168.379C1440.92 169.195 1442.42 170.786 1444.15 169.97Z" fill="#F4D531"/>
<path d="M1444.31 165.026C1446.04 164.21 1444.51 162.623 1442.81 163.435C1441.08 164.251 1442.58 165.841 1444.31 165.026Z" fill="#F4D531"/>
<path d="M1450.65 166.884C1452.38 166.069 1450.85 164.482 1449.15 165.294C1447.42 166.109 1448.92 167.7 1450.65 166.884Z" fill="#F4D531"/>
<path d="M532.991 149.72C528.245 148.784 523.228 151.407 524.007 154.651C524.684 157.393 528.862 160.207 532.137 161.839C536.097 163.823 537.096 161.387 538.114 159.15C539.555 155.951 539.153 150.917 532.988 149.692L532.991 149.72Z" fill="#F4D531"/>
<path d="M516.681 158.68C514.335 161.311 516.944 165.496 521.69 166.293C525.691 166.954 530.531 165.422 533.55 163.981C537.192 162.273 533.948 160.673 531.051 159.159C526.883 156.999 519.743 155.257 516.681 158.68Z" fill="#F4D531"/>
<path d="M525.828 173.407C529.1 176.008 535.735 176.033 537.893 173.275C539.721 170.943 538.526 167.176 537.16 164.64C535.491 161.579 532.448 163.015 529.643 164.269C525.614 166.094 521.55 170.019 525.826 173.378L525.828 173.407Z" fill="#F4D531"/>
<path d="M547.799 173.669C552.169 172.597 553.647 168.359 550.225 165.88C547.317 163.775 541.736 163.042 537.848 162.894C533.167 162.731 534.529 165.255 535.729 167.548C537.448 170.872 542.125 175.008 547.825 173.636L547.799 173.669Z" fill="#F4D531"/>
<path d="M552.166 159.07C551.616 155.845 545.911 153.245 541.654 154.434C538.055 155.432 535.791 158.681 534.775 161.108C533.55 164.021 537.42 164.14 540.93 164.316C545.995 164.555 552.915 163.225 552.166 159.07Z" fill="#F4D531"/>
<g style="mix-blend-mode:multiply">
<g style="mix-blend-mode:multiply">
<path d="M542.832 160.958C544.299 163.988 541.98 166.989 537.612 167.681C533.243 168.372 528.522 166.486 527.055 163.455C525.588 160.424 527.907 157.424 532.276 156.733C536.644 156.042 541.365 157.927 542.832 160.958Z" fill="#F4D531"/>
</g>
</g>
<path d="M531.7 161.952C533.315 161.697 532.476 159.967 530.862 160.224C529.247 160.479 530.086 162.208 531.7 161.952Z" fill="#F4D531"/>
<path d="M537.026 165.645C538.64 165.388 537.802 163.66 536.188 163.915C534.573 164.171 535.411 165.9 537.026 165.645Z" fill="#F4D531"/>
<path d="M537.796 161.157C539.411 160.902 538.572 159.173 536.958 159.429C535.343 159.684 536.182 161.413 537.796 161.157Z" fill="#F4D531"/>
<path d="M533.009 164.706C534.624 164.45 533.785 162.721 532.171 162.977C530.556 163.232 531.395 164.962 533.009 164.706Z" fill="#F4D531"/>
<path d="M534.3 160.659C535.915 160.403 535.077 158.674 533.462 158.929C531.848 159.185 532.686 160.914 534.3 160.659Z" fill="#F4D531"/>
<path d="M539.133 163.907C540.747 163.652 539.909 161.923 538.294 162.179C536.68 162.434 537.518 164.163 539.133 163.907Z" fill="#F4D531"/>
<path opacity="0.7" d="M239.944 40.0469C239.364 36.8913 233.765 34.3153 229.621 35.5059C228.524 35.8203 227.561 36.3721 226.723 37.0476C226.498 34.6703 224.927 32.3583 221.023 31.6156C216.401 30.7256 211.57 33.2868 212.402 36.4325C212.621 37.2602 213.209 38.1165 213.962 38.9185C210.533 38.1304 206.932 38.2026 205.025 40.3949C202.764 43.0165 205.383 47.1758 210.02 47.9194C211.252 48.13 212.573 48.0964 213.882 47.9214C212.003 49.823 211.351 52.1647 214.058 54.2711C217.284 56.7858 223.708 56.763 225.767 54.0871C226.319 53.3692 226.547 52.5009 226.603 51.602C228.875 53.5749 232.077 54.9435 235.656 54.0426C239.897 52.9805 241.28 48.8302 237.894 46.3975C236.988 45.7636 235.813 45.2563 234.535 44.8519C237.797 44.1725 240.448 42.6971 239.941 40.0182L239.944 40.0469Z" fill="#48903A"/>
<path d="M221.819 27.6385C217.167 26.7752 212.29 29.374 213.092 32.5562C213.791 35.2371 217.9 37.917 221.11 39.4735C224.976 41.3573 225.949 38.9543 226.916 36.7827C228.306 33.6509 227.861 28.7688 221.819 27.6385Z" fill="#F4D531"/>
<path d="M205.98 36.5246C203.714 39.1135 206.313 43.1868 210.937 43.8899C214.847 44.4812 219.573 42.9386 222.481 41.5165C226.009 39.7978 222.856 38.268 219.994 36.8332C215.893 34.7773 208.905 33.1525 205.952 36.5286L205.98 36.5246Z" fill="#F4D531"/>
<path d="M215.052 50.7913C218.285 53.2843 224.742 53.223 226.82 50.5352C228.567 48.2459 227.382 44.591 225.997 42.1454C224.336 39.1689 221.379 40.6206 218.66 41.8893C214.743 43.695 210.817 47.5685 215.027 50.8239L215.052 50.7913Z" fill="#F4D531"/>
<path d="M236.498 50.8379C240.752 49.756 242.154 45.6185 238.768 43.2205C235.897 41.1962 230.464 40.5248 226.669 40.4486C222.08 40.3557 223.462 42.7903 224.626 45.0024C226.334 48.2124 230.941 52.2144 236.495 50.8092L236.498 50.8379Z" fill="#F4D531"/>
<path d="M240.612 36.5149C240.014 33.384 234.461 30.9009 230.318 32.0995C226.805 33.1131 224.622 36.3201 223.656 38.6815C222.484 41.5582 226.266 41.6344 229.685 41.7402C234.63 41.9132 241.351 40.5584 240.61 36.4872L240.612 36.5149Z" fill="#F4D531"/>
<g style="mix-blend-mode:multiply">
<g style="mix-blend-mode:multiply">
<path d="M231.509 38.4895C232.966 41.4067 230.728 44.3645 226.476 45.0943C222.225 45.8251 217.596 44.0105 216.112 41.0982C214.656 38.181 216.894 35.2222 221.145 34.4924C225.396 33.7626 230.025 35.5762 231.509 38.4895Z" fill="#F4D531"/>
</g>
</g>
<path d="M220.67 39.587C222.229 39.3397 221.393 37.6388 219.837 37.9138C218.278 38.161 219.114 39.8619 220.67 39.587Z" fill="#F4D531"/>
<path d="M225.894 43.1126C227.453 42.8663 226.617 41.1655 225.061 41.4404C223.502 41.6866 224.338 43.3885 225.894 43.1126Z" fill="#F4D531"/>
<path d="M226.623 38.7505C228.182 38.5043 227.346 36.8034 225.79 37.0783C224.231 37.3245 225.067 39.0264 226.623 38.7505Z" fill="#F4D531"/>
<path d="M221.969 42.2522C223.528 42.005 222.692 40.3041 221.136 40.579C219.577 40.8263 220.413 42.5271 221.969 42.2522Z" fill="#F4D531"/>
<path d="M223.185 38.274C224.744 38.0277 223.908 36.3268 222.352 36.6017C220.793 36.848 221.629 38.5489 223.185 38.274Z" fill="#F4D531"/>
<path d="M227.946 41.3831C229.504 41.1368 228.669 39.436 227.113 39.7109C225.554 39.9571 226.389 41.658 227.946 41.3831Z" fill="#F4D531"/>
<path opacity="0.7" d="M502.924 112.454C502.48 110.14 498.384 108.249 495.337 109.125C494.543 109.363 493.819 109.764 493.218 110.259C493.052 108.504 491.906 106.815 489.034 106.256C485.647 105.605 482.103 107.478 482.716 109.796C482.886 110.402 483.312 111.025 483.848 111.631C481.34 111.044 478.694 111.082 477.298 112.708C475.647 114.63 477.568 117.664 480.976 118.225C481.891 118.37 482.846 118.336 483.794 118.218C482.431 119.607 481.916 121.325 483.924 122.879C486.296 124.723 491.002 124.709 492.509 122.751C492.91 122.229 493.076 121.6 493.126 120.931C494.784 122.368 497.134 123.381 499.752 122.744C502.864 121.973 503.872 118.914 501.394 117.146C500.729 116.674 499.878 116.318 498.947 116.004C501.353 115.514 503.278 114.411 502.924 112.454Z" fill="#48903A"/>
<path d="M489.629 103.376C486.219 102.744 482.642 104.645 483.252 106.966C483.744 108.931 486.764 110.893 489.141 112.037C491.967 113.425 492.687 111.668 493.395 110.085C494.407 107.792 494.081 104.216 489.657 103.372L489.629 103.376Z" fill="#F4D531"/>
<path d="M478.029 109.902C476.376 111.802 478.282 114.771 481.652 115.307C484.535 115.751 487.976 114.611 490.13 113.563C492.716 112.305 490.389 111.18 488.322 110.126C485.311 108.602 480.194 107.441 478.029 109.902Z" fill="#F4D531"/>
<path d="M484.68 120.331C487.058 122.158 491.788 122.116 493.309 120.15C494.602 118.479 493.732 115.777 492.718 113.988C491.498 111.803 489.327 112.869 487.342 113.79C484.459 115.114 481.6 117.957 484.68 120.331Z" fill="#F4D531"/>
<path d="M500.396 120.377C503.519 119.591 504.54 116.542 502.062 114.798C499.974 113.305 495.973 112.833 493.196 112.764C489.854 112.701 490.837 114.485 491.694 116.118C492.929 118.49 496.306 121.404 500.396 120.377Z" fill="#F4D531"/>
<path d="M503.395 109.875C502.96 107.595 498.875 105.756 495.829 106.638C493.25 107.388 491.664 109.736 490.949 111.464C490.099 113.552 492.866 113.62 495.381 113.701C498.999 113.831 503.948 112.815 503.392 109.847L503.395 109.875Z" fill="#F4D531"/>
<g style="mix-blend-mode:multiply">
<g style="mix-blend-mode:multiply">
<path d="M496.724 111.327C497.798 113.475 496.165 115.651 493.051 116.173C489.938 116.694 486.543 115.4 485.466 113.223C484.391 111.075 486.024 108.9 489.138 108.377C492.251 107.856 495.646 109.151 496.721 111.299L496.724 111.327Z" fill="#F4D531"/>
</g>
</g>
<path d="M488.781 112.122C489.922 111.942 489.298 110.694 488.16 110.904C487.019 111.084 487.643 112.332 488.781 112.122Z" fill="#F4D531"/>
<path d="M492.621 114.695C493.762 114.514 493.166 113.264 492 113.476C490.859 113.657 491.455 114.908 492.621 114.695Z" fill="#F4D531"/>
<path d="M493.148 111.493C494.29 111.313 493.666 110.065 492.527 110.274C491.386 110.455 492.01 111.703 493.148 111.493Z" fill="#F4D531"/>
<path d="M489.748 114.056C490.889 113.875 490.265 112.628 489.126 112.836C487.985 113.017 488.609 114.264 489.748 114.056Z" fill="#F4D531"/>
<path d="M490.643 111.164C491.784 110.983 491.16 109.736 490.021 109.945C488.88 110.126 489.504 111.373 490.643 111.164Z" fill="#F4D531"/>
<path d="M494.119 113.455C495.26 113.275 494.636 112.027 493.497 112.237C492.356 112.417 492.98 113.665 494.119 113.455Z" fill="#F4D531"/>
<path opacity="0.7" d="M153.316 52.6762C152.872 50.3612 148.775 48.4705 145.729 49.3466C144.934 49.5849 144.211 49.9845 143.609 50.4809C143.444 48.7256 142.298 47.0366 139.426 46.4779C136.039 45.8272 132.495 47.7001 133.108 50.0171C133.278 50.6233 133.703 51.2463 134.24 51.8525C131.732 51.266 129.086 51.3036 127.689 52.9284C126.039 54.8518 127.96 57.8847 131.367 58.4464C132.283 58.5917 133.238 58.5581 134.185 58.4395C132.822 59.8288 132.308 61.5465 134.315 63.1011C136.688 64.9444 141.394 64.9295 142.9 62.9725C143.302 62.4504 143.468 61.8205 143.518 61.152C145.176 62.5888 147.526 63.6024 150.144 62.9656C153.256 62.1943 154.264 59.1356 151.786 57.3665C151.121 56.8958 150.27 56.5398 149.338 56.2253C151.744 55.7358 153.67 54.6322 153.316 52.6762Z" fill="#48903A"/>
<path d="M140.045 43.5656C136.635 42.9337 133.058 44.8334 133.668 47.1543C134.16 49.1202 137.18 51.0822 139.557 52.2253C142.383 53.6137 143.103 51.8565 143.811 50.2742C144.823 47.98 144.497 44.4042 140.073 43.5607L140.045 43.5656Z" fill="#F4D531"/>
<path d="M128.418 50.0941C126.764 51.9937 128.671 54.9633 132.041 55.4993C134.924 55.9433 138.365 54.8032 140.519 53.7549C143.105 52.4971 140.778 51.3717 138.711 50.3176C135.699 48.7937 130.583 47.6327 128.418 50.0941Z" fill="#F4D531"/>
<path d="M135.072 60.5525C137.45 62.38 142.18 62.3374 143.701 60.3705C144.994 58.6993 144.123 55.9977 143.11 54.2098C141.889 52.0233 139.719 53.0903 137.734 54.012C134.85 55.3361 131.992 58.1772 135.072 60.5525Z" fill="#F4D531"/>
<path d="M150.785 60.5695C153.908 59.7833 154.929 56.7346 152.451 54.9902C150.363 53.497 146.362 53.0253 143.585 52.956C140.243 52.8918 141.226 54.6767 142.083 56.3103C143.318 58.6817 146.695 61.596 150.785 60.5695Z" fill="#F4D531"/>
<path d="M153.814 50.0933C153.379 47.8129 149.294 45.9736 146.248 46.8557C143.669 47.6062 142.083 49.9539 141.369 51.6814C140.519 53.77 143.286 53.8382 145.8 53.9183C149.418 54.0488 154.367 53.0333 153.812 50.0646L153.814 50.0933Z" fill="#F4D531"/>
<g style="mix-blend-mode:multiply">
<g style="mix-blend-mode:multiply">
<path d="M147.139 51.5151C148.214 53.663 146.581 55.8395 143.467 56.3607C140.354 56.8818 136.959 55.5874 135.881 53.4118C134.807 51.263 136.44 49.0874 139.554 48.5663C142.667 48.0441 146.062 49.3386 147.137 51.4865L147.139 51.5151Z" fill="#F4D531"/>
</g>
</g>
<path d="M139.197 52.3114C140.338 52.1304 139.714 50.8834 138.576 51.0921C137.434 51.273 138.059 52.52 139.197 52.3114Z" fill="#F4D531"/>
<path d="M143.041 54.913C144.182 54.732 143.586 53.4811 142.42 53.6937C141.279 53.8746 141.875 55.1256 143.041 54.913Z" fill="#F4D531"/>
<path d="M143.568 51.711C144.709 51.531 144.085 50.283 142.946 50.4926C141.805 50.6726 142.429 51.9206 143.568 51.711Z" fill="#F4D531"/>
<path d="M140.14 54.2772C141.281 54.0962 140.657 52.8492 139.518 53.0579C138.377 53.2388 139.001 54.4858 140.14 54.2772Z" fill="#F4D531"/>
<path d="M141.031 51.356C142.172 51.175 141.548 49.927 140.41 50.1367C139.269 50.3167 139.893 51.5646 141.031 51.356Z" fill="#F4D531"/>
<path d="M144.507 53.6472C145.649 53.4673 145.024 52.2193 143.886 52.4289C142.745 52.6089 143.369 53.8569 144.507 53.6472Z" fill="#F4D531"/>
<path opacity="0.7" d="M671.758 141.448C671.425 139.113 667.422 137.034 664.336 137.802C663.51 138.016 662.812 138.384 662.177 138.828C662.067 137.063 661.001 135.331 658.173 134.65C654.826 133.848 651.212 135.589 651.715 137.926C651.857 138.537 652.257 139.193 652.766 139.804C650.274 139.099 647.647 139.049 646.186 140.598C644.443 142.451 646.234 145.593 649.598 146.277C650.489 146.454 651.45 146.478 652.431 146.411C651.004 147.726 650.434 149.454 652.364 151.079C654.634 153.026 659.361 153.209 660.931 151.327C661.364 150.828 661.558 150.194 661.607 149.525C663.215 151.029 665.494 152.169 668.149 151.611C671.276 150.981 672.429 147.956 670.022 146.059C669.382 145.554 668.556 145.166 667.621 144.823C670.039 144.446 672.001 143.422 671.73 141.452L671.758 141.448Z" fill="#48903A"/>
<path d="M658.873 131.759C655.504 130.977 651.856 132.746 652.354 135.085C652.762 137.065 655.713 139.183 658.015 140.426C660.796 141.937 661.576 140.199 662.343 138.634C663.445 136.382 663.287 132.777 658.899 131.726L658.873 131.759Z" fill="#F4D531"/>
<path d="M647.021 137.765C645.275 139.596 647.051 142.675 650.405 143.327C653.244 143.891 656.727 142.884 658.923 141.969C661.548 140.816 659.295 139.593 657.247 138.451C654.308 136.801 649.252 135.404 646.993 137.769L647.021 137.765Z" fill="#F4D531"/>
<path d="M653.236 148.527C655.511 150.457 660.234 150.644 661.844 148.721C663.198 147.097 662.44 144.378 661.504 142.52C660.365 140.293 658.185 141.246 656.164 142.087C653.241 143.304 650.255 145.994 653.236 148.527Z" fill="#F4D531"/>
<path d="M668.909 149.257C672.047 148.61 673.214 145.591 670.81 143.746C668.769 142.157 664.832 141.502 662.042 141.321C658.712 141.113 659.615 142.941 660.419 144.614C661.574 147.031 664.799 150.117 668.909 149.257Z" fill="#F4D531"/>
<path d="M672.342 138.887C672.015 136.561 668.028 134.565 664.944 135.34C662.354 135.98 660.648 138.263 659.875 139.972C658.939 142.047 661.687 142.202 664.184 142.398C667.788 142.672 672.761 141.906 672.314 138.891L672.342 138.887Z" fill="#F4D531"/>
<g style="mix-blend-mode:multiply">
<g style="mix-blend-mode:multiply">
<path d="M665.635 140.018C666.629 142.208 664.876 144.319 661.748 144.699C658.62 145.08 655.295 143.631 654.301 141.441C653.307 139.25 655.06 137.14 658.188 136.759C661.315 136.378 664.641 137.827 665.635 140.018Z" fill="#F4D531"/>
</g>
</g>
<path d="M657.656 140.473C658.8 140.32 658.232 139.063 657.087 139.216C655.943 139.368 656.512 140.626 657.656 140.473Z" fill="#F4D531"/>
<path d="M661.379 143.24C662.524 143.087 661.955 141.829 660.811 141.983C659.666 142.135 660.235 143.393 661.379 143.24Z" fill="#F4D531"/>
<path d="M662.05 140.079C663.194 139.926 662.625 138.669 661.481 138.821C660.337 138.975 660.905 140.232 662.05 140.079Z" fill="#F4D531"/>
<path d="M658.547 142.475C659.692 142.323 659.123 141.065 657.979 141.218C656.834 141.371 657.403 142.627 658.547 142.475Z" fill="#F4D531"/>
<path d="M659.558 139.628C660.702 139.475 660.134 138.218 658.989 138.37C657.845 138.523 658.413 139.78 659.558 139.628Z" fill="#F4D531"/>
<path d="M662.938 142.052C664.082 141.9 663.513 140.642 662.369 140.795C661.225 140.947 661.793 142.205 662.938 142.052Z" fill="#F4D531"/>
<path opacity="0.7" d="M1782.95 122.768C1781.71 119.461 1775.07 117.795 1770.73 119.904C1769.57 120.458 1768.64 121.263 1767.82 122.136C1767.1 119.608 1764.95 117.418 1760.55 117.384C1755.3 117.311 1750.47 121.045 1751.94 124.29C1752.33 125.147 1753.13 125.939 1754.11 126.678C1750.2 126.481 1746.22 127.272 1744.53 130.001C1742.53 133.268 1746.17 137.234 1751.43 137.134C1752.84 137.116 1754.27 136.807 1755.7 136.385C1754.01 138.77 1753.67 141.462 1757.07 143.199C1761.07 145.274 1768.16 144 1769.94 140.712C1770.42 139.834 1770.49 138.847 1770.4 137.857C1773.26 139.535 1777.04 140.411 1780.82 138.733C1785.31 136.745 1786.05 132.011 1781.89 130.047C1780.77 129.533 1779.39 129.231 1777.91 129.031C1781.38 127.659 1784.03 125.527 1782.98 122.764L1782.95 122.768Z" fill="#48903A"/>
<path d="M1760.76 112.827C1755.48 112.785 1750.61 116.553 1752.07 119.795C1753.31 122.553 1758.35 124.616 1762.19 125.694C1766.82 126.99 1767.44 124.218 1768.09 121.702C1769.04 118.075 1767.63 112.874 1760.76 112.827Z" fill="#F4D531"/>
<path d="M1745.01 125.631C1743 128.845 1746.62 132.714 1751.86 132.585C1756.29 132.473 1761.2 129.896 1764.15 127.824C1767.72 125.319 1763.94 124.26 1760.56 123.278C1755.64 121.835 1747.65 121.443 1745.03 125.626L1745.01 125.631Z" fill="#F4D531"/>
<path d="M1757.49 139.26C1761.51 141.314 1768.65 140.025 1770.44 136.694C1771.94 133.87 1769.96 130.169 1767.98 127.788C1765.59 124.927 1762.61 127.042 1759.84 128.923C1755.83 131.633 1752.23 136.574 1757.49 139.26Z" fill="#F4D531"/>
<path d="M1781.02 134.962C1785.52 132.998 1786.27 128.287 1782.12 126.397C1778.59 124.777 1772.48 125.127 1768.28 125.768C1763.23 126.546 1765.19 128.898 1766.91 131.033C1769.39 134.152 1775.2 137.535 1781.02 134.962Z" fill="#F4D531"/>
<path d="M1782.98 118.688C1781.75 115.429 1775.13 113.822 1770.78 115.93C1767.12 117.705 1765.31 121.591 1764.68 124.324C1763.95 127.643 1768.11 126.979 1771.92 126.456C1777.4 125.697 1784.58 122.909 1782.98 118.688Z" fill="#F4D531"/>
<g style="mix-blend-mode:multiply">
<g style="mix-blend-mode:multiply">
<path d="M1773.37 122.657C1775.53 125.515 1773.61 129.158 1769.08 130.759C1764.55 132.36 1759.09 131.336 1756.94 128.452C1754.78 125.594 1756.7 121.951 1761.23 120.379C1765.77 118.777 1771.22 119.8 1773.38 122.686L1773.37 122.657Z" fill="#F4D531"/>
</g>
</g>
<path d="M1761.67 125.98C1763.34 125.402 1762.12 123.766 1760.45 124.345C1758.78 124.922 1760.01 126.586 1761.67 125.98Z" fill="#F4D531"/>
<path d="M1768.01 128.765C1769.67 128.187 1768.45 126.523 1766.78 127.129C1765.11 127.707 1766.34 129.371 1768.01 128.765Z" fill="#F4D531"/>
<path d="M1768.03 123.838C1769.7 123.26 1768.47 121.597 1766.81 122.202C1765.11 122.785 1766.37 124.415 1768.03 123.838Z" fill="#F4D531"/>
<path d="M1763.58 128.596C1765.24 128.018 1764.02 126.383 1762.32 126.965C1760.66 127.543 1761.88 129.206 1763.58 128.596Z" fill="#F4D531"/>
<path d="M1764.2 124.038C1765.86 123.433 1764.64 121.798 1762.95 122.408C1761.28 122.985 1762.51 124.649 1764.2 124.038Z" fill="#F4D531"/>
<path d="M1769.94 126.453C1771.6 125.876 1770.38 124.212 1768.68 124.822C1767.02 125.4 1768.24 127.036 1769.94 126.453Z" fill="#F4D531"/>
<path opacity="0.7" d="M197.289 84.8309C196.619 81.3164 190.432 78.4872 185.85 79.8034C184.616 80.1673 183.572 80.7606 182.628 81.5102C182.38 78.8778 180.643 76.3047 176.337 75.48C171.227 74.495 165.886 77.3361 166.781 80.8447C167.011 81.7861 167.663 82.7186 168.506 83.5928C164.731 82.7147 160.736 82.7908 158.597 85.2205C156.107 88.1071 158.995 92.7133 164.147 93.549C165.521 93.7665 166.984 93.7398 168.431 93.543C166.374 95.6444 165.604 98.2343 168.616 100.581C172.176 103.359 179.306 103.341 181.591 100.371C182.193 99.5881 182.469 98.6269 182.514 97.6143C185.03 99.7789 188.558 101.328 192.524 100.337C197.234 99.1727 198.744 94.5724 195.023 91.8767C194.026 91.1697 192.734 90.6238 191.311 90.1847C194.934 89.449 197.878 87.7837 197.317 84.8269L197.289 84.8309Z" fill="#48903A"/>
<path d="M177.22 71.0705C172.075 70.1123 166.684 72.9959 167.573 76.5104C168.327 79.4712 172.889 82.4517 176.456 84.1822C180.74 86.2866 181.833 83.6334 182.891 81.2176C184.42 77.7456 183.925 72.3245 177.22 71.0705Z" fill="#F4D531"/>
<path d="M159.687 80.9227C157.164 83.7786 160.056 88.284 165.167 89.0791C169.506 89.7426 174.721 88.0101 177.954 86.4516C181.859 84.5599 178.354 82.861 175.196 81.2758C170.651 78.9796 162.919 77.2193 159.659 80.9267L159.687 80.9227Z" fill="#F4D531"/>
<path d="M169.72 96.7192C173.288 99.4752 180.454 99.4139 182.761 96.4314C184.711 93.8801 183.378 89.8464 181.855 87.1358C179.995 83.8468 176.738 85.432 173.748 86.8313C169.397 88.8506 165.053 93.1068 169.72 96.7192Z" fill="#F4D531"/>
<path d="M193.456 96.7488C198.182 95.5631 199.713 90.9766 195.992 88.3175C192.819 86.0846 186.785 85.338 182.592 85.2401C177.522 85.1382 179.041 87.8369 180.34 90.2844C182.22 93.8385 187.32 98.2756 193.482 96.7162L193.456 96.7488Z" fill="#F4D531"/>
<path d="M198.031 80.913C197.374 77.4509 191.204 74.6988 186.622 76.024C182.726 77.1552 180.318 80.6806 179.265 83.3121C177.98 86.4894 182.155 86.5586 185.942 86.6911C191.426 86.8919 198.863 85.366 198.028 80.8853L198.031 80.913Z" fill="#F4D531"/>
<g style="mix-blend-mode:multiply">
<g style="mix-blend-mode:multiply">
<path d="M187.953 83.0856C189.58 86.3193 187.09 89.6034 182.394 90.4034C177.697 91.2044 172.572 89.2108 170.917 85.9821C169.29 82.7484 171.78 79.4643 176.477 78.6633C181.173 77.8633 186.326 79.852 187.953 83.0856Z" fill="#F4D531"/>
</g>
</g>
<path d="M175.916 84.2957C177.642 84.0228 176.735 82.1607 174.981 82.4386C173.255 82.7125 174.162 84.5736 175.916 84.2957Z" fill="#F4D531"/>
<path d="M181.736 88.192C183.461 87.9191 182.552 86.0293 180.801 86.3348C179.075 86.6078 179.985 88.4976 181.736 88.192Z" fill="#F4D531"/>
<path d="M182.525 83.3743C184.251 83.1014 183.313 81.2156 181.59 81.5172C179.864 81.7911 180.799 83.6482 182.525 83.3743Z" fill="#F4D531"/>
<path d="M177.384 87.2379C179.11 86.9649 178.175 85.1068 176.45 85.3807C174.724 85.6537 175.661 87.5395 177.384 87.2379Z" fill="#F4D531"/>
<path d="M178.722 82.856C180.448 82.5831 179.51 80.6973 177.787 80.9989C176.061 81.2718 176.998 83.1576 178.722 82.856Z" fill="#F4D531"/>
<path d="M183.993 86.316C185.719 86.0431 184.782 84.1572 183.059 84.4588C181.333 84.7318 182.268 86.5889 183.993 86.316Z" fill="#F4D531"/>
<path opacity="0.7" d="M226.023 70.6858C225.682 68.8712 222.47 67.3888 220.082 68.0761C219.452 68.261 218.89 68.5785 218.419 68.9671C218.291 67.6084 217.376 66.2852 215.135 65.8304C212.493 65.3211 209.701 66.7905 210.183 68.6111C210.311 69.0798 210.64 69.5743 211.08 70.0519C209.118 69.5812 207.036 69.6178 205.946 70.9083C204.649 72.4025 206.143 74.7847 208.806 75.2317C209.522 75.3504 210.28 75.3187 211.033 75.2297C209.952 76.3175 209.572 77.6693 211.125 78.8926C212.98 80.3275 216.673 80.3274 217.853 78.7937C218.179 78.3694 218.303 77.8908 218.338 77.3687C219.656 78.4852 221.48 79.2931 223.545 78.77C225.996 78.1588 226.784 75.7667 224.821 74.3773C224.306 73.9976 223.632 73.7296 222.906 73.4972C224.787 73.1185 226.311 72.2492 226.026 70.7145L226.023 70.6858Z" fill="#48903A"/>
<path d="M215.608 63.5538C212.949 63.0603 210.131 64.5506 210.61 66.3741C211.007 67.9227 213.362 69.4446 215.234 70.3524C217.464 71.4342 218.022 70.0775 218.56 68.8097C219.361 67.0109 219.105 64.2005 215.636 63.5498L215.608 63.5538Z" fill="#F4D531"/>
<path d="M206.497 68.6646C205.198 70.141 206.68 72.4728 209.336 72.897C211.591 73.2431 214.293 72.3333 215.964 71.5313C217.985 70.5612 216.185 69.6623 214.534 68.8524C212.175 67.6767 208.176 66.7323 206.469 68.6685L206.497 68.6646Z" fill="#F4D531"/>
<path d="M211.722 76.8417C213.581 78.2647 217.293 78.242 218.484 76.7023C219.498 75.391 218.824 73.2897 218.042 71.8657C217.092 70.1529 215.383 71.0014 213.832 71.7094C211.576 72.7606 209.339 74.9569 211.75 76.8368L211.722 76.8417Z" fill="#F4D531"/>
<path d="M224.025 76.8634C226.484 76.2404 227.283 73.8562 225.32 72.4865C223.687 71.3206 220.542 70.9389 218.361 70.8895C215.726 70.8262 216.506 72.2433 217.187 73.5051C218.175 75.3454 220.816 77.6347 223.994 76.8396L224.025 76.8634Z" fill="#F4D531"/>
<path d="M226.393 68.6399C226.059 66.853 222.855 65.4102 220.468 66.1024C218.465 66.6769 217.198 68.5212 216.647 69.8829C215.981 71.5176 218.154 71.568 220.106 71.653C222.962 71.7638 226.805 70.9806 226.393 68.6399Z" fill="#F4D531"/>
<g style="mix-blend-mode:multiply">
<g style="mix-blend-mode:multiply">
<path d="M221.151 69.769C221.984 71.4403 220.703 73.1589 218.258 73.5753C215.809 73.9629 213.147 72.9533 212.314 71.282C211.482 69.6108 212.762 67.8911 215.207 67.4758C217.656 67.0882 220.318 68.0978 221.151 69.769Z" fill="#F4D531"/>
</g>
</g>
<path d="M214.938 70.4029C215.828 70.2615 215.342 69.2786 214.454 69.4487C213.563 69.5891 214.05 70.572 214.938 70.4029Z" fill="#F4D531"/>
<path d="M217.94 72.4284C218.83 72.2879 218.344 71.305 217.456 71.4741C216.565 71.6155 217.052 72.5984 217.94 72.4284Z" fill="#F4D531"/>
<path d="M218.352 69.9284C219.242 69.787 218.756 68.804 217.868 68.9731C216.977 69.1145 217.463 70.0975 218.352 69.9284Z" fill="#F4D531"/>
<path d="M215.691 71.9159C216.582 71.7755 216.095 70.7925 215.207 70.9616C214.316 71.103 214.803 72.085 215.691 71.9159Z" fill="#F4D531"/>
<path d="M216.378 69.6483C217.269 69.5069 216.782 68.5239 215.894 68.694C215.004 68.8344 215.49 69.8174 216.378 69.6483Z" fill="#F4D531"/>
<path d="M219.105 71.4413C219.995 71.2999 219.509 70.3169 218.621 70.487C217.73 70.6274 218.217 71.6104 219.105 71.4413Z" fill="#F4D531"/>
<path opacity="0.7" d="M384.604 119.444C384.264 117.629 381.051 116.147 378.664 116.835C378.033 117.019 377.471 117.336 377 117.725C376.872 116.366 375.958 115.043 373.716 114.588C371.075 114.08 368.282 115.549 368.764 117.369C368.893 117.838 369.221 118.332 369.661 118.81C367.7 118.339 365.617 118.376 364.527 119.666C363.231 121.16 364.724 123.543 367.388 123.99C368.103 124.108 368.862 124.077 369.614 123.989C368.533 125.076 368.153 126.427 369.706 127.651C371.561 129.086 375.254 129.086 376.434 127.553C376.76 127.128 376.884 126.649 376.92 126.127C378.237 127.243 380.061 128.051 382.126 127.529C384.577 126.918 385.366 124.526 383.402 123.135C382.887 122.757 382.214 122.488 381.487 122.256C383.368 121.877 384.893 121.008 384.607 119.472L384.604 119.444Z" fill="#48903A"/>
<path d="M374.189 112.312C371.53 111.819 368.712 113.309 369.191 115.133C369.588 116.681 371.943 118.203 373.816 119.112C376.045 120.193 376.603 118.836 377.141 117.569C377.943 115.769 377.686 112.96 374.217 112.308L374.189 112.312Z" fill="#F4D531"/>
<path d="M365.078 117.423C363.779 118.899 365.261 121.231 367.917 121.655C370.172 122.001 372.874 121.092 374.545 120.289C376.566 119.319 374.766 118.421 373.116 117.611C370.756 116.435 366.757 115.491 365.051 117.428L365.078 117.423Z" fill="#F4D531"/>
<path d="M370.306 125.63C372.166 127.053 375.877 127.03 377.069 125.489C378.083 124.179 377.409 122.076 376.627 120.652C375.676 118.94 373.965 119.759 372.417 120.496C370.16 121.548 367.923 123.745 370.334 125.625L370.306 125.63Z" fill="#F4D531"/>
<path d="M382.606 125.622C385.065 124.999 385.865 122.614 383.901 121.245C382.268 120.079 379.123 119.698 376.942 119.648C374.307 119.585 375.087 121.002 375.768 122.263C376.757 124.104 379.398 126.393 382.576 125.598L382.606 125.622Z" fill="#F4D531"/>
<path d="M384.977 117.428C384.644 115.641 381.44 114.198 379.053 114.89C377.049 115.465 375.782 117.309 375.232 118.671C374.565 120.305 376.739 120.356 378.691 120.441C381.546 120.552 385.39 119.768 384.977 117.428Z" fill="#F4D531"/>
<g style="mix-blend-mode:multiply">
<g style="mix-blend-mode:multiply">
<path d="M379.763 118.553C380.596 120.224 379.316 121.944 376.87 122.359C374.422 122.747 371.759 121.737 370.926 120.066C370.094 118.395 371.374 116.676 373.82 116.26C376.268 115.873 378.931 116.882 379.763 118.553Z" fill="#F4D531"/>
</g>
</g>
<path d="M373.519 119.161C374.41 119.021 373.923 118.038 373.035 118.207C372.144 118.348 372.631 119.33 373.519 119.161Z" fill="#F4D531"/>
<path d="M376.521 121.187C377.412 121.046 376.925 120.063 376.037 120.232C375.146 120.374 375.633 121.357 376.521 121.187Z" fill="#F4D531"/>
<path d="M376.933 118.686C377.824 118.545 377.337 117.563 376.449 117.732C375.558 117.873 376.045 118.856 376.933 118.686Z" fill="#F4D531"/>
<path d="M374.276 120.704C375.166 120.563 374.68 119.58 373.792 119.749C372.901 119.891 373.387 120.874 374.276 120.704Z" fill="#F4D531"/>
<path d="M374.963 118.436C375.854 118.295 375.367 117.312 374.479 117.482C373.588 117.622 374.075 118.605 374.963 118.436Z" fill="#F4D531"/>
<path d="M377.686 120.199C378.577 120.059 378.09 119.076 377.202 119.245C376.311 119.385 376.798 120.368 377.686 120.199Z" fill="#F4D531"/>
<path opacity="0.7" d="M369.118 87.2415C368.609 84.5339 363.836 82.3465 360.295 83.3572C359.361 83.6173 358.532 84.0909 357.825 84.6605C357.632 82.6224 356.29 80.6476 352.961 80.0167C348.999 79.2543 344.893 81.4437 345.599 84.1493C345.78 84.8682 346.271 85.596 346.927 86.2695C344.014 85.5743 340.921 85.6534 339.296 87.5432C337.363 89.7682 339.588 93.3291 343.567 93.9739C344.627 94.1539 345.752 94.1232 346.866 93.9778C345.269 95.5769 344.698 97.5903 347.012 99.4138C349.753 101.573 355.275 101.547 357.033 99.2625C357.51 98.6424 357.696 97.9235 357.735 97.1423C359.669 98.8234 362.402 100.007 365.459 99.2437C369.094 98.3339 370.254 94.7917 367.379 92.7111C366.623 92.1682 365.625 91.7489 364.522 91.4038C367.314 90.8253 369.59 89.5526 369.148 87.2653L369.118 87.2415Z" fill="#48903A"/>
<path d="M353.631 76.6102C349.67 75.8655 345.498 78.0915 346.2 80.8011C346.779 83.0983 350.312 85.3816 353.048 86.7265C356.351 88.3552 357.185 86.2914 358.012 84.459C359.19 81.7929 358.806 77.5921 353.633 76.6388L353.631 76.6102Z" fill="#F4D531"/>
<path d="M340.126 84.2245C338.19 86.4228 340.397 89.9087 344.365 90.5188C347.705 91.0311 351.718 89.6871 354.225 88.4975C357.241 87.03 354.533 85.7405 352.11 84.4895C348.599 82.7343 342.646 81.3399 340.126 84.2245Z" fill="#F4D531"/>
<path d="M347.871 96.3997C350.618 98.5407 356.169 98.4813 357.944 96.1871C359.437 94.2251 358.444 91.1131 357.259 89.0078C355.837 86.4811 353.312 87.6906 351.002 88.7793C347.656 90.321 344.303 93.6437 347.899 96.3948L347.871 96.3997Z" fill="#F4D531"/>
<path d="M366.188 96.4423C369.835 95.5147 371.01 91.9844 368.139 89.9602C365.691 88.2395 361.03 87.6729 357.8 87.5908C353.89 87.5038 355.069 89.5715 356.065 91.4969C357.504 94.2361 361.465 97.6567 366.191 96.47L366.188 96.4423Z" fill="#F4D531"/>
<path d="M369.707 84.2118C369.208 81.5457 364.448 79.4177 360.908 80.4352C357.918 81.3084 356.056 84.0397 355.229 86.0679C354.243 88.5184 357.46 88.5718 360.401 88.6974C364.612 88.8457 370.364 87.6739 369.735 84.2078L369.707 84.2118Z" fill="#F4D531"/>
<g style="mix-blend-mode:multiply">
<g style="mix-blend-mode:multiply">
<path d="M361.925 85.8791C363.172 88.3711 361.262 90.9056 357.62 91.5099C353.978 92.1151 350.026 90.5942 348.779 88.1022C347.531 85.6102 349.442 83.0756 353.083 82.4714C356.725 81.8662 360.677 83.3861 361.925 85.8791Z" fill="#F4D531"/>
</g>
</g>
<path d="M352.649 86.8382C353.985 86.6266 353.259 85.1947 351.923 85.4063C350.587 85.6179 351.313 87.0498 352.649 86.8382Z" fill="#F4D531"/>
<path d="M357.12 89.8358C358.456 89.6241 357.727 88.1645 356.394 88.4039C355.058 88.6155 355.784 90.0474 357.12 89.8358Z" fill="#F4D531"/>
<path d="M357.754 86.1124C359.09 85.9007 358.364 84.4688 357.028 84.6805C355.692 84.8921 356.418 86.324 357.754 86.1124Z" fill="#F4D531"/>
<path d="M353.765 89.1099C355.101 88.8983 354.375 87.4664 353.039 87.678C351.703 87.8896 352.429 89.3215 353.765 89.1099Z" fill="#F4D531"/>
<path d="M354.798 85.723C356.134 85.5113 355.408 84.0794 354.072 84.291C352.736 84.5027 353.461 85.9346 354.798 85.723Z" fill="#F4D531"/>
<path d="M358.87 88.3839C360.206 88.1723 359.48 86.7403 358.144 86.9519C356.808 87.1636 357.534 88.5955 358.87 88.3839Z" fill="#F4D531"/>
<path d="M702.13 160.762C698.169 160.017 693.997 162.243 694.699 164.953C695.278 167.251 698.811 169.533 701.547 170.878C704.85 172.507 705.684 170.443 706.511 168.611C707.689 165.945 707.305 161.744 702.132 160.79L702.13 160.762Z" fill="#F4D531"/>
<path d="M688.594 168.35C686.658 170.549 688.866 174.035 692.833 174.645C696.173 175.157 700.186 173.813 702.693 172.623C705.71 171.156 703.001 169.866 700.578 168.616C697.068 166.86 691.114 165.466 688.594 168.35Z" fill="#F4D531"/>
<path d="M718.175 168.338C717.676 165.671 712.916 163.543 709.376 164.561C706.386 165.434 704.525 168.165 703.697 170.194C702.712 172.644 705.928 172.698 708.869 172.823C713.081 172.972 718.832 171.8 718.203 168.334L718.175 168.338Z" fill="#F4D531"/>
<g style="mix-blend-mode:multiply">
<g style="mix-blend-mode:multiply">
<path d="M710.393 170.005C711.641 172.497 709.73 175.031 706.089 175.636C702.447 176.241 698.495 174.721 697.247 172.228C696 169.736 697.91 167.201 701.552 166.597C705.193 165.992 709.145 167.513 710.393 170.005Z" fill="#F4D531"/>
</g>
</g>
<path d="M701.145 170.96C702.481 170.749 701.755 169.317 700.419 169.528C699.082 169.74 699.808 171.172 701.145 170.96Z" fill="#F4D531"/>
<path d="M705.615 173.958C706.951 173.747 706.223 172.286 704.889 172.526C703.553 172.738 704.279 174.17 705.615 173.958Z" fill="#F4D531"/>
<path d="M706.222 170.238C707.559 170.027 706.833 168.596 705.497 168.806C704.16 169.018 704.886 170.45 706.222 170.238Z" fill="#F4D531"/>
<path d="M702.26 173.232C703.597 173.02 702.871 171.588 701.534 171.8C700.198 172.011 700.924 173.443 702.26 173.232Z" fill="#F4D531"/>
<path d="M703.293 169.845C704.629 169.633 703.903 168.201 702.567 168.413C701.231 168.624 701.957 170.056 703.293 169.845Z" fill="#F4D531"/>
<path d="M707.338 172.51C708.674 172.298 707.948 170.866 706.612 171.078C705.276 171.29 706.002 172.721 707.338 172.51Z" fill="#F4D531"/>
<path opacity="0.7" d="M975.962 127.615C975.518 125.299 971.421 123.409 968.375 124.286C967.58 124.524 966.857 124.923 966.255 125.419C966.089 123.664 964.943 121.976 962.072 121.417C958.684 120.766 955.14 122.638 955.754 124.956C955.924 125.561 956.349 126.185 956.886 126.79C954.378 126.204 951.732 126.243 950.335 127.867C948.684 129.791 950.606 132.824 954.013 133.385C954.929 133.53 955.884 133.496 956.831 133.377C955.468 134.768 954.954 136.485 956.961 138.04C959.334 139.882 964.04 139.869 965.546 137.911C965.948 137.388 966.114 136.759 966.163 136.091C967.821 137.528 970.172 138.541 972.79 137.904C975.902 137.132 976.91 134.075 974.431 132.306C973.767 131.835 972.916 131.479 971.984 131.163C974.39 130.675 976.315 129.57 975.962 127.615Z" fill="#48903A"/>
<path d="M962.663 118.508C959.253 117.876 955.677 119.775 956.286 122.096C956.778 124.062 959.798 126.024 962.175 127.167C965.001 128.556 965.721 126.798 966.429 125.216C967.441 122.922 967.115 119.346 962.691 118.503L962.663 118.508Z" fill="#F4D531"/>
<path d="M951.064 125.032C949.41 126.932 951.316 129.902 954.686 130.437C957.57 130.882 961.01 129.742 963.165 128.693C965.75 127.435 963.423 126.31 961.356 125.256C958.345 123.733 953.229 122.572 951.064 125.032Z" fill="#F4D531"/>
<path d="M957.718 135.491C960.096 137.318 964.826 137.275 966.347 135.31C967.64 133.637 966.769 130.937 965.756 129.148C964.535 126.962 962.365 128.028 960.38 128.95C957.496 130.274 954.638 133.116 957.718 135.491Z" fill="#F4D531"/>
<path d="M973.43 135.507C976.553 134.721 977.575 131.674 975.096 129.929C973.009 128.436 969.007 127.963 966.23 127.895C962.888 127.831 963.872 129.615 964.728 131.248C965.963 133.621 969.34 136.535 973.43 135.507Z" fill="#F4D531"/>
<path d="M976.46 125.031C976.024 122.752 971.939 120.912 968.894 121.794C966.315 122.545 964.728 124.893 964.014 126.62C963.164 128.709 965.931 128.777 968.446 128.857C972.063 128.988 977.012 127.972 976.457 125.003L976.46 125.031Z" fill="#F4D531"/>
<g style="mix-blend-mode:multiply">
<g style="mix-blend-mode:multiply">
<path d="M969.785 126.454C970.859 128.602 969.226 130.777 966.113 131.3C962.999 131.821 959.604 130.526 958.527 128.35C957.453 126.202 959.086 124.025 962.199 123.504C965.313 122.983 968.708 124.277 969.782 126.425L969.785 126.454Z" fill="#F4D531"/>
</g>
</g>
<path d="M961.819 127.282C962.96 127.102 962.336 125.854 961.197 126.063C960.056 126.243 960.68 127.491 961.819 127.282Z" fill="#F4D531"/>
<path d="M965.659 129.855C966.8 129.674 966.204 128.423 965.038 128.636C963.897 128.817 964.493 130.068 965.659 129.855Z" fill="#F4D531"/>
<path d="M966.186 126.654C967.327 126.473 966.703 125.225 965.565 125.435C964.424 125.615 965.048 126.862 966.186 126.654Z" fill="#F4D531"/>
<path d="M962.785 129.215C963.927 129.034 963.303 127.787 962.164 127.996C961.023 128.177 961.647 129.424 962.785 129.215Z" fill="#F4D531"/>
<path d="M963.68 126.324C964.821 126.143 964.197 124.896 963.059 125.104C961.918 125.285 962.542 126.532 963.68 126.324Z" fill="#F4D531"/>
<path d="M967.153 128.586C968.294 128.405 967.67 127.158 966.532 127.367C965.39 127.548 966.014 128.795 967.153 128.586Z" fill="#F4D531"/>
<path opacity="0.7" d="M790.988 140.78C790.544 138.465 786.448 136.574 783.402 137.451C782.607 137.69 781.883 138.089 781.282 138.585C781.116 136.83 779.97 135.141 777.099 134.582C773.711 133.931 770.167 135.804 770.781 138.122C770.951 138.727 771.376 139.35 771.912 139.956C769.405 139.37 766.759 139.409 765.362 141.033C763.711 142.956 765.632 145.99 769.04 146.551C769.955 146.696 770.91 146.662 771.858 146.543C770.495 147.933 769.981 149.651 771.988 151.206C774.36 153.048 779.066 153.035 780.573 151.077C780.974 150.554 781.141 149.925 781.19 149.257C782.848 150.694 785.199 151.707 787.816 151.07C790.929 150.298 791.936 147.241 789.458 145.471C788.793 145 787.942 144.644 787.011 144.329C789.417 143.841 791.342 142.736 790.988 140.78Z" fill="#48903A"/>
<path d="M777.69 131.674C774.28 131.042 770.703 132.941 771.313 135.262C771.805 137.228 774.825 139.19 777.202 140.333C780.028 141.722 780.748 139.964 781.456 138.382C782.468 136.088 782.142 132.512 777.718 131.669L777.69 131.674Z" fill="#F4D531"/>
<path d="M766.09 138.198C764.437 140.098 766.343 143.068 769.713 143.603C772.596 144.047 776.037 142.908 778.192 141.859C780.777 140.601 778.45 139.476 776.383 138.422C773.372 136.899 768.255 135.738 766.09 138.198Z" fill="#F4D531"/>
<path d="M772.745 148.657C775.123 150.484 779.853 150.442 781.374 148.476C782.667 146.804 781.796 144.103 780.782 142.314C779.562 140.129 777.392 141.195 775.407 142.116C772.523 143.44 769.665 146.281 772.745 148.657Z" fill="#F4D531"/>
<path d="M788.457 148.673C791.58 147.887 792.601 144.84 790.123 143.095C788.036 141.602 784.034 141.129 781.257 141.061C777.915 140.997 778.898 142.781 779.755 144.414C780.99 146.787 784.367 149.701 788.457 148.673Z" fill="#F4D531"/>
<path d="M791.483 138.168C791.048 135.888 786.963 134.049 783.917 134.931C781.338 135.681 779.752 138.029 779.038 139.757C778.188 141.845 780.955 141.913 783.469 141.994C787.087 142.124 792.036 141.108 791.481 138.14L791.483 138.168Z" fill="#F4D531"/>
<g style="mix-blend-mode:multiply">
<g style="mix-blend-mode:multiply">
<path d="M784.812 139.619C785.886 141.768 784.253 143.943 781.14 144.466C778.026 144.987 774.631 143.692 773.554 141.516C772.479 139.368 774.112 137.191 777.226 136.67C780.339 136.149 783.735 137.443 784.809 139.591L784.812 139.619Z" fill="#F4D531"/>
</g>
</g>
<path d="M776.842 140.419C777.983 140.238 777.359 138.991 776.221 139.2C775.079 139.381 775.704 140.628 776.842 140.419Z" fill="#F4D531"/>
<path d="M780.686 143.021C781.827 142.84 781.231 141.589 780.065 141.802C778.924 141.983 779.52 143.235 780.686 143.021Z" fill="#F4D531"/>
<path d="M781.213 139.819C782.354 139.638 781.73 138.391 780.591 138.6C779.45 138.781 780.074 140.028 781.213 139.819Z" fill="#F4D531"/>
<path d="M777.812 142.381C778.953 142.2 778.329 140.953 777.191 141.162C776.05 141.343 776.674 142.59 777.812 142.381Z" fill="#F4D531"/>
<path d="M778.704 139.46C779.845 139.279 779.221 138.032 778.082 138.241C776.941 138.422 777.565 139.669 778.704 139.46Z" fill="#F4D531"/>
<path d="M782.18 141.752C783.321 141.571 782.697 140.324 781.558 140.533C780.417 140.714 781.041 141.961 782.18 141.752Z" fill="#F4D531"/>
<path opacity="0.7" d="M1271.64 125.796C1271.2 123.481 1267.1 121.59 1264.05 122.466C1263.26 122.705 1262.54 123.105 1261.93 123.6C1261.77 121.845 1260.62 120.156 1257.75 119.598C1254.36 118.947 1250.82 120.82 1251.43 123.138C1251.6 123.743 1252 124.371 1252.56 124.972C1250.06 124.386 1247.41 124.424 1246.01 126.049C1244.36 127.971 1246.28 131.005 1249.69 131.566C1250.61 131.711 1251.56 131.678 1252.54 131.554C1251.18 132.944 1250.66 134.661 1252.67 136.217C1255.04 138.059 1259.75 138.045 1261.25 136.087C1261.65 135.565 1261.82 134.936 1261.87 134.268C1263.53 135.704 1265.88 136.718 1268.5 136.08C1271.61 135.309 1272.62 132.251 1270.14 130.482C1269.47 130.011 1268.62 129.655 1267.69 129.341C1270.1 128.851 1272.02 127.748 1271.67 125.792L1271.64 125.796Z" fill="#48903A"/>
<path d="M1258.34 116.687C1254.93 116.055 1251.36 117.956 1251.94 120.281C1252.46 122.242 1255.48 124.203 1257.83 125.352C1260.68 126.736 1261.37 124.983 1262.08 123.4C1263.09 121.106 1262.77 117.53 1258.34 116.687Z" fill="#F4D531"/>
<path d="M1246.74 123.213C1245.09 125.113 1246.97 128.087 1250.37 128.619C1253.25 129.063 1256.69 127.923 1258.84 126.874C1261.43 125.616 1259.1 124.491 1257.04 123.437C1254.02 121.913 1248.91 120.752 1246.74 123.213Z" fill="#F4D531"/>
<path d="M1253.4 133.671C1255.77 135.499 1260.5 135.456 1262.03 133.49C1263.32 131.819 1262.45 129.117 1261.43 127.329C1260.21 125.143 1258.04 126.209 1256.06 127.131C1253.17 128.456 1250.32 131.297 1253.4 133.671Z" fill="#F4D531"/>
<path d="M1269.11 133.689C1272.23 132.903 1273.25 129.854 1270.78 128.11C1268.69 126.616 1264.69 126.144 1261.91 126.075C1258.57 126.011 1259.55 127.796 1260.43 129.425C1261.67 131.797 1265.05 134.711 1269.14 133.684L1269.11 133.689Z" fill="#F4D531"/>
<path d="M1272.14 123.183C1271.7 120.902 1267.62 119.063 1264.57 119.945C1261.99 120.697 1260.4 123.044 1259.69 124.771C1258.84 126.86 1261.61 126.928 1264.12 127.008C1267.74 127.138 1272.69 126.123 1272.13 123.154L1272.14 123.183Z" fill="#F4D531"/>
<g style="mix-blend-mode:multiply">
<g style="mix-blend-mode:multiply">
<path d="M1265.44 124.638C1266.51 126.786 1264.88 128.962 1261.76 129.483C1258.65 130.005 1255.26 128.711 1254.18 126.534C1253.1 124.386 1254.74 122.21 1257.85 121.689C1260.96 121.168 1264.36 122.462 1265.43 124.61L1265.44 124.638Z" fill="#F4D531"/>
</g>
</g>
<path d="M1257.49 125.433C1258.64 125.253 1258.04 124.002 1256.87 124.214C1255.73 124.395 1256.36 125.642 1257.49 125.433Z" fill="#F4D531"/>
<path d="M1261.34 128.035C1262.48 127.855 1261.88 126.604 1260.72 126.817C1259.58 126.997 1260.17 128.249 1261.34 128.035Z" fill="#F4D531"/>
<path d="M1261.87 124.834C1263.01 124.653 1262.38 123.406 1261.24 123.615C1260.1 123.796 1260.7 125.047 1261.87 124.834Z" fill="#F4D531"/>
<path d="M1258.46 127.396C1259.61 127.216 1258.98 125.968 1257.84 126.177C1256.7 126.357 1257.33 127.605 1258.46 127.396Z" fill="#F4D531"/>
<path d="M1259.36 124.475C1260.5 124.295 1259.87 123.047 1258.73 123.256C1257.59 123.436 1258.19 124.688 1259.36 124.475Z" fill="#F4D531"/>
<path d="M1262.83 126.767C1263.97 126.587 1263.38 125.335 1262.21 125.548C1261.07 125.728 1261.69 126.976 1262.83 126.767Z" fill="#F4D531"/>
<path opacity="0.7" d="M1879.71 40.9707C1878.48 39.0117 1873.92 38.7744 1871.35 40.6928C1870.66 41.2001 1870.13 41.8271 1869.71 42.4936C1868.95 40.9786 1867.27 39.8365 1864.36 40.3734C1860.9 40.9974 1858.17 43.9997 1859.54 45.9083C1859.89 46.4254 1860.52 46.815 1861.26 47.1592C1858.68 47.5597 1856.15 48.5535 1855.38 50.5362C1854.45 52.8868 1857.35 54.9585 1860.77 54.2258C1861.68 54.027 1862.6 53.6552 1863.49 53.2023C1862.67 54.9625 1862.78 56.7217 1865.21 57.4051C1868.1 58.2159 1872.59 56.517 1873.35 54.1635C1873.54 53.5316 1873.49 52.9106 1873.31 52.2787C1875.41 52.9847 1877.98 53.0727 1880.25 51.5162C1882.95 49.664 1882.85 46.5283 1879.88 45.8143C1879.1 45.6195 1878.14 45.5967 1877.16 45.663C1879.29 44.3586 1880.76 42.64 1879.74 40.9944L1879.71 40.9707Z" fill="#48903A"/>
<path d="M1864.01 37.3326C1860.53 37.9764 1857.78 41.0231 1859.14 42.8951C1860.31 44.4842 1863.88 45.1725 1866.53 45.3782C1869.72 45.6116 1869.81 43.7643 1869.91 42.0595C1870.08 39.5971 1868.52 36.4683 1864.01 37.3049V37.3326Z" fill="#F4D531"/>
<path d="M1855.2 47.6457C1854.26 49.9597 1857.15 52.0057 1860.57 51.267C1863.46 50.6401 1866.37 48.3795 1868.07 46.6479C1870.1 44.5831 1867.49 44.4042 1865.14 44.1866C1861.74 43.882 1856.41 44.6405 1855.2 47.6457Z" fill="#F4D531"/>
<path d="M1864.97 54.8249C1867.88 55.6506 1872.4 53.8914 1873.18 51.525C1873.82 49.5255 1872.06 47.3924 1870.47 46.1247C1868.55 44.5949 1866.83 46.3353 1865.25 47.8829C1862.96 50.1475 1861.19 53.7648 1864.97 54.8249Z" fill="#F4D531"/>
<path d="M1879.87 48.9559C1882.57 47.1166 1882.48 44.0283 1879.52 43.342C1877.02 42.7516 1873.03 43.7514 1870.36 44.6829C1867.14 45.8142 1868.72 47.0582 1870.1 48.2221C1872.11 49.9052 1876.35 51.348 1879.87 48.9559Z" fill="#F4D531"/>
<path d="M1879.23 38.1799C1878.01 36.2387 1873.45 36.0281 1870.86 37.9515C1868.66 39.5555 1867.95 42.2897 1867.87 44.1538C1867.79 46.3887 1870.45 45.4522 1872.91 44.6028C1876.44 43.4121 1880.82 40.7174 1879.23 38.1799Z" fill="#F4D531"/>
<g style="mix-blend-mode:multiply">
<g style="mix-blend-mode:multiply">
<path d="M1873.42 42.0516C1875.2 43.6249 1874.36 46.1822 1871.58 47.7921C1868.8 49.401 1865.08 49.4178 1863.33 47.8672C1861.55 46.2929 1862.38 43.7356 1865.16 42.1267C1867.94 40.5168 1871.66 40.501 1873.44 42.0466L1873.42 42.0516Z" fill="#F4D531"/>
</g>
</g>
<path d="M1866.16 45.6868C1867.18 45.0984 1866.2 44.1965 1865.15 44.7898C1864.13 45.3792 1865.15 46.2761 1866.16 45.6868Z" fill="#F4D531"/>
<path d="M1870.63 46.6559C1871.65 46.0675 1870.63 45.1706 1869.61 45.759C1868.6 46.3484 1869.61 47.2453 1870.63 46.6559Z" fill="#F4D531"/>
<path d="M1870.05 43.4497C1871.06 42.8603 1870.05 41.9644 1869.03 42.5528C1867.99 43.1461 1869.03 44.0391 1870.05 43.4497Z" fill="#F4D531"/>
<path d="M1867.72 47.1552C1868.73 46.5658 1867.72 45.6689 1866.7 46.2583C1865.69 46.8477 1866.7 47.7446 1867.72 47.1552Z" fill="#F4D531"/>
<path d="M1867.59 44.0977C1868.61 43.5083 1867.6 42.6124 1866.58 43.2008C1865.54 43.7941 1866.58 44.687 1867.59 44.0977Z" fill="#F4D531"/>
<path d="M1871.6 44.9194C1872.62 44.33 1871.6 43.4331 1870.58 44.0225C1869.57 44.6108 1870.58 45.5078 1871.6 44.9194Z" fill="#F4D531"/>
<path opacity="0.7" d="M467.89 95.1667C467.386 92.5165 462.73 90.3686 459.245 91.3704C458.312 91.6305 457.538 92.0952 456.831 92.6648C456.644 90.6841 455.332 88.734 452.089 88.1179C448.242 87.3664 444.189 89.5192 444.887 92.1397C445.065 92.83 445.554 93.5291 446.182 94.2065C443.328 93.5311 440.318 93.5973 438.715 95.4258C436.836 97.6142 439.022 101.065 442.887 101.699C443.916 101.855 445.013 101.828 446.127 101.683C444.555 103.249 444.01 105.23 446.263 107.005C448.942 109.115 454.323 109.082 456.055 106.831C456.507 106.243 456.72 105.521 456.759 104.739C458.661 106.368 461.335 107.532 464.308 106.782C467.86 105.885 468.999 102.433 466.186 100.401C465.43 99.858 464.463 99.4624 463.387 99.1134C466.124 98.5438 468.318 97.3116 467.91 95.0777L467.89 95.1667Z" fill="#48903A"/>
<path d="M452.741 84.7805C448.868 84.0507 444.777 86.2351 445.474 88.8873C446.048 91.1281 449.491 93.367 452.166 94.6654C455.408 96.2457 456.219 94.2432 457.021 92.4444C458.175 89.8386 457.802 85.7516 452.744 84.8092L452.741 84.7805Z" fill="#F4D531"/>
<path d="M439.528 92.2314C437.645 94.3932 439.787 97.7761 443.668 98.3714C446.95 98.8649 450.882 97.5625 453.334 96.3818C456.297 94.9519 453.647 93.6802 451.257 92.4806C447.832 90.7402 441.997 89.4121 439.528 92.2314Z" fill="#F4D531"/>
<path d="M447.108 104.138C449.794 106.232 455.202 106.167 456.954 103.934C458.424 102.032 457.436 98.9778 456.285 96.9239C454.896 94.4497 452.426 95.6502 450.17 96.7014C446.878 98.2065 443.631 101.454 447.139 104.163L447.108 104.138Z" fill="#F4D531"/>
<path d="M465.001 104.153C468.564 103.239 469.719 99.7987 466.906 97.7933C464.519 96.1201 459.973 95.5633 456.798 95.4723C452.975 95.4002 454.121 97.4155 455.112 99.2845C456.517 101.972 460.386 105.322 465.026 104.12L465.001 104.153Z" fill="#F4D531"/>
<path d="M468.465 92.199C467.971 89.5884 463.327 87.4979 459.87 88.5016C456.936 89.3669 455.125 92.0329 454.32 94.0018C453.357 96.3919 456.49 96.4582 459.373 96.565C463.501 96.7272 469.142 95.5731 468.493 92.1941L468.465 92.199Z" fill="#F4D531"/>
<g style="mix-blend-mode:multiply">
<g style="mix-blend-mode:multiply">
<path d="M460.847 93.8428C462.061 96.2834 460.201 98.7527 456.645 99.3727C453.087 99.9651 449.223 98.4866 448.006 96.0184C446.791 93.5768 448.651 91.1076 452.207 90.4875C455.766 89.8962 459.629 91.3736 460.847 93.8428Z" fill="#F4D531"/>
</g>
</g>
<path d="M451.792 94.7701C453.1 94.5624 452.404 93.1542 451.096 93.3619C449.788 93.5686 450.483 94.9767 451.792 94.7701Z" fill="#F4D531"/>
<path d="M456.174 97.7198C457.482 97.5122 456.787 96.104 455.478 96.3107C454.17 96.5184 454.866 97.9265 456.174 97.7198Z" fill="#F4D531"/>
<path d="M456.76 94.0621C458.068 93.8554 457.373 92.4473 456.065 92.6539C454.756 92.8616 455.452 94.2698 456.76 94.0621Z" fill="#F4D531"/>
<path d="M452.874 96.9861C454.182 96.7785 453.486 95.3703 452.178 95.578C450.87 95.7846 451.565 97.1928 452.874 96.9861Z" fill="#F4D531"/>
<path d="M453.886 93.6615C455.194 93.4538 454.499 92.0457 453.19 92.2523C451.882 92.46 452.578 93.8682 453.886 93.6615Z" fill="#F4D531"/>
<path d="M457.842 96.2782C459.15 96.0715 458.455 94.6633 457.147 94.87C455.838 95.0777 456.534 96.4858 457.842 96.2782Z" fill="#F4D531"/>
<path d="M815.415 162.042C811.541 161.312 807.45 163.496 808.147 166.149C808.721 168.389 812.164 170.629 814.84 171.926C818.081 173.507 818.893 171.505 819.694 169.705C820.849 167.1 820.476 163.013 815.417 162.07L815.415 162.042Z" fill="#F4D531"/>
<path d="M802.198 169.463C800.315 171.625 802.457 175.009 806.339 175.604C809.62 176.097 813.552 174.794 816.004 173.614C818.967 172.183 816.317 170.913 813.927 169.713C810.502 167.973 804.667 166.644 802.198 169.463Z" fill="#F4D531"/>
<path d="M831.111 169.464C830.617 166.853 825.973 164.763 822.516 165.766C819.582 166.632 817.771 169.298 816.966 171.267C816.003 173.657 819.136 173.723 822.019 173.83C826.147 173.992 831.788 172.838 831.139 169.459L831.111 169.464Z" fill="#F4D531"/>
<g style="mix-blend-mode:multiply">
<g style="mix-blend-mode:multiply">
<path d="M823.517 171.074C824.731 173.515 822.871 175.985 819.315 176.605C815.757 177.196 811.893 175.719 810.676 173.249C809.461 170.809 811.321 168.34 814.877 167.72C818.436 167.127 822.299 168.606 823.517 171.074Z" fill="#F4D531"/>
</g>
</g>
<path d="M814.462 172.002C815.77 171.795 815.075 170.387 813.766 170.593C812.458 170.801 813.154 172.209 814.462 172.002Z" fill="#F4D531"/>
<path d="M818.844 174.951C820.152 174.745 819.457 173.336 818.148 173.543C816.84 173.751 817.536 175.159 818.844 174.951Z" fill="#F4D531"/>
<path d="M819.431 171.294C820.739 171.087 820.043 169.678 818.735 169.886C817.427 170.093 818.122 171.501 819.431 171.294Z" fill="#F4D531"/>
<path d="M815.544 174.218C816.852 174.011 816.157 172.603 814.848 172.809C813.54 173.017 814.236 174.425 815.544 174.218Z" fill="#F4D531"/>
<path d="M816.559 170.923C817.868 170.715 817.172 169.307 815.864 169.514C814.556 169.721 815.251 171.129 816.559 170.923Z" fill="#F4D531"/>
<path d="M820.512 173.51C821.821 173.304 821.125 171.894 819.817 172.102C818.509 172.309 819.204 173.718 820.512 173.51Z" fill="#F4D531"/>
<path opacity="0.7" d="M1694.86 113.444C1693.82 110.997 1688.76 109.976 1685.54 111.681C1684.69 112.158 1684.01 112.779 1683.43 113.443C1682.8 111.59 1681.13 109.986 1677.79 110.104C1673.83 110.232 1670.28 113.192 1671.52 115.581C1671.83 116.22 1672.48 116.78 1673.23 117.294C1670.27 117.267 1667.3 117.986 1666.12 120.12C1664.72 122.631 1667.59 125.514 1671.56 125.24C1672.62 125.161 1673.7 124.908 1674.76 124.542C1673.55 126.392 1673.41 128.423 1676 129.626C1679.09 131.066 1684.42 129.867 1685.64 127.325C1685.97 126.642 1686.02 125.918 1685.89 125.164C1688.11 126.339 1690.98 126.868 1693.78 125.487C1697.09 123.854 1697.51 120.261 1694.28 118.927C1693.43 118.571 1692.37 118.392 1691.24 118.31C1693.83 117.161 1695.76 115.485 1694.86 113.416V113.444Z" fill="#48903A"/>
<path d="M1677.83 106.698C1673.85 106.849 1670.27 109.835 1671.51 112.219C1672.54 114.234 1676.41 115.623 1679.33 116.301C1682.87 117.112 1683.24 115.015 1683.66 113.11C1684.26 110.345 1683.06 106.491 1677.83 106.698Z" fill="#F4D531"/>
<path d="M1666.32 116.877C1664.92 119.347 1667.76 122.155 1671.73 121.865C1675.08 121.643 1678.68 119.555 1680.86 117.888C1683.48 115.871 1680.61 115.23 1677.99 114.604C1674.23 113.684 1668.18 113.658 1666.34 116.872L1666.32 116.877Z" fill="#F4D531"/>
<path d="M1676.17 126.705C1679.27 128.13 1684.63 126.897 1685.87 124.344C1686.92 122.194 1685.31 119.466 1683.74 117.737C1681.85 115.657 1679.65 117.359 1677.63 118.861C1674.71 121.024 1672.14 124.853 1676.19 126.7L1676.17 126.705Z" fill="#F4D531"/>
<path d="M1693.79 122.667C1697.13 121.03 1697.54 117.485 1694.35 116.183C1691.63 115.087 1687.02 115.538 1683.87 116.181C1680.08 116.925 1681.65 118.629 1683 120.168C1684.96 122.433 1689.48 124.768 1693.79 122.667Z" fill="#F4D531"/>
<path d="M1694.8 110.335C1693.76 107.92 1688.71 106.939 1685.48 108.644C1682.77 110.098 1681.52 113.075 1681.15 115.176C1680.71 117.685 1683.83 117.073 1686.69 116.533C1690.82 115.789 1696.15 113.464 1694.8 110.335Z" fill="#F4D531"/>
<g style="mix-blend-mode:multiply">
<g style="mix-blend-mode:multiply">
<path d="M1687.66 113.684C1689.37 115.753 1688.06 118.559 1684.66 119.895C1681.29 121.255 1677.14 120.653 1675.4 118.56C1673.68 116.461 1675 113.685 1678.4 112.349C1681.77 110.989 1685.91 111.59 1687.66 113.656V113.684Z" fill="#F4D531"/>
</g>
</g>
<path d="M1678.92 116.551C1680.17 116.04 1679.19 114.853 1677.94 115.365C1676.69 115.876 1677.67 117.064 1678.92 116.551Z" fill="#F4D531"/>
<path d="M1683.79 118.423C1685.04 117.912 1684.06 116.724 1682.81 117.237C1681.56 117.748 1682.54 118.935 1683.79 118.423Z" fill="#F4D531"/>
<path d="M1683.65 114.712C1684.9 114.2 1683.92 113.013 1682.67 113.526C1681.42 114.037 1682.4 115.223 1683.65 114.712Z" fill="#F4D531"/>
<path d="M1680.44 118.473C1681.69 117.961 1680.71 116.774 1679.46 117.285C1678.21 117.797 1679.19 118.984 1680.44 118.473Z" fill="#F4D531"/>
<path d="M1680.77 114.998C1682.02 114.487 1681.04 113.299 1679.79 113.811C1678.54 114.323 1679.52 115.509 1680.77 114.998Z" fill="#F4D531"/>
<path d="M1685.15 116.636C1686.4 116.124 1685.41 114.938 1684.16 115.449C1682.91 115.96 1683.9 117.148 1685.15 116.636Z" fill="#F4D531"/>
<path opacity="0.7" d="M1184.71 159.846C1183.67 157.4 1178.61 156.378 1175.39 158.083C1174.54 158.56 1173.86 159.152 1173.28 159.845C1172.65 157.992 1170.98 156.388 1167.64 156.506C1163.68 156.633 1160.13 159.594 1161.37 161.983C1161.68 162.622 1162.33 163.182 1163.08 163.696C1160.12 163.668 1157.15 164.388 1155.97 166.522C1154.57 169.033 1157.44 171.915 1161.41 171.642C1162.47 171.562 1163.55 171.309 1164.61 170.943C1163.41 172.795 1163.26 174.825 1165.85 176.027C1168.94 177.468 1174.27 176.269 1175.49 173.726C1175.82 173.044 1175.87 172.32 1175.74 171.565C1177.96 172.74 1180.83 173.269 1183.63 171.889C1186.94 170.255 1187.36 166.662 1184.13 165.328C1183.28 164.972 1182.22 164.793 1181.09 164.711C1183.68 163.562 1185.61 161.886 1184.71 159.817V159.846Z" fill="#48903A"/>
<path d="M1167.68 153.071C1163.7 153.223 1160.12 156.207 1161.35 158.591C1162.39 160.607 1166.26 161.995 1169.18 162.673C1172.71 163.484 1173.09 161.387 1173.51 159.482C1174.11 156.717 1172.9 152.865 1167.68 153.071Z" fill="#F4D531"/>
<path d="M1156.16 163.25C1154.76 165.72 1157.61 168.529 1161.58 168.266C1164.93 168.045 1168.53 165.956 1170.71 164.29C1173.33 162.272 1170.46 161.631 1167.84 160.977C1164.07 160.057 1158.03 160.031 1156.19 163.245L1156.16 163.25Z" fill="#F4D531"/>
<path d="M1166.01 173.077C1169.12 174.503 1174.48 173.269 1175.72 170.716C1176.77 168.566 1175.16 165.838 1173.58 164.11C1171.69 162.03 1169.5 163.732 1167.48 165.233C1164.56 167.396 1161.99 171.225 1166.04 173.073L1166.01 173.077Z" fill="#F4D531"/>
<path d="M1183.64 169.039C1186.98 167.403 1187.39 163.858 1184.2 162.554C1181.48 161.46 1176.87 161.91 1173.72 162.552C1169.93 163.298 1171.5 165.001 1172.85 166.541C1174.8 168.804 1179.33 171.14 1183.64 169.039Z" fill="#F4D531"/>
<path d="M1184.62 156.741C1183.58 154.326 1178.53 153.345 1175.3 155.05C1172.59 156.503 1171.34 159.48 1170.97 161.581C1170.53 164.09 1173.66 163.478 1176.51 162.938C1180.64 162.195 1185.98 159.87 1184.62 156.741Z" fill="#F4D531"/>
<g style="mix-blend-mode:multiply">
<g style="mix-blend-mode:multiply">
<path d="M1177.48 160.06C1179.19 162.129 1177.88 164.935 1174.48 166.271C1171.11 167.631 1166.96 167.029 1165.22 164.936C1163.5 162.838 1164.82 160.061 1168.22 158.725C1171.59 157.365 1175.73 157.966 1177.48 160.032V160.06Z" fill="#F4D531"/>
</g>
</g>
<path d="M1168.77 162.954C1170.02 162.442 1169.04 161.255 1167.79 161.767C1166.54 162.279 1167.52 163.465 1168.77 162.954Z" fill="#F4D531"/>
<path d="M1173.64 164.825C1174.89 164.314 1173.91 163.126 1172.66 163.638C1171.41 164.15 1172.39 165.337 1173.64 164.825Z" fill="#F4D531"/>
<path d="M1173.5 161.114C1174.75 160.603 1173.77 159.415 1172.52 159.927C1171.27 160.439 1172.25 161.625 1173.5 161.114Z" fill="#F4D531"/>
<path d="M1170.29 164.874C1171.54 164.362 1170.56 163.175 1169.31 163.687C1168.06 164.199 1169.04 165.386 1170.29 164.874Z" fill="#F4D531"/>
<path d="M1170.6 161.403C1171.85 160.891 1170.86 159.705 1169.61 160.216C1168.36 160.728 1169.35 161.915 1170.6 161.403Z" fill="#F4D531"/>
<path d="M1175 163.038C1176.25 162.526 1175.26 161.339 1174.01 161.851C1172.76 162.363 1173.75 163.549 1175 163.038Z" fill="#F4D531"/>
<path d="M505.161 133.837C507.521 134.391 509.611 135.479 511.371 136.893C517.031 130.841 525.751 127.894 534.441 129.951C535.021 130.089 535.581 130.248 536.141 130.426C536.201 130.109 536.241 129.793 536.321 129.476C538.321 121.219 546.701 116.126 555.051 118.104C560.601 119.419 564.721 123.523 566.281 128.547C569.981 127.568 573.981 127.459 577.971 128.398C587.711 130.702 594.611 138.614 596.011 147.85C599.271 146.08 603.181 145.447 607.081 146.366C615.431 148.344 620.581 156.631 618.581 164.888C616.581 173.146 608.201 178.238 599.851 176.261C595.081 175.133 591.371 171.939 589.421 167.875C583.751 173.561 575.301 176.261 566.881 174.263C559.681 172.562 554.041 167.796 551.011 161.704C546.681 172.364 534.991 178.565 523.351 175.816C516.061 174.095 510.361 169.22 507.371 163.009C504.471 164.166 501.201 164.493 497.931 163.721C489.581 161.744 484.431 153.457 486.431 145.2C488.431 136.942 496.811 131.85 505.161 133.827V133.837Z" fill="#4A9038"/>
<g style="mix-blend-mode:multiply" opacity="0.5">
<g style="mix-blend-mode:multiply">
<path d="M523.401 145.12C524.821 145.457 526.071 146.099 527.131 146.96C530.531 143.321 535.761 141.56 540.981 142.787C541.331 142.866 541.661 142.965 542.001 143.073C542.031 142.885 542.061 142.688 542.111 142.5C543.311 137.545 548.341 134.49 553.361 135.667C556.691 136.458 559.161 138.92 560.101 141.936C562.321 141.353 564.721 141.283 567.121 141.847C572.971 143.232 577.111 147.988 577.951 153.526C579.911 152.468 582.251 152.082 584.601 152.636C589.611 153.823 592.701 158.797 591.511 163.761C590.311 168.715 585.281 171.771 580.261 170.584C577.401 169.912 575.171 167.993 574.001 165.551C570.601 168.962 565.521 170.584 560.461 169.388C556.141 168.369 552.751 165.511 550.931 161.852C548.331 168.25 541.311 171.979 534.321 170.327C529.941 169.289 526.521 166.372 524.721 162.643C522.981 163.346 521.021 163.533 519.051 163.069C514.041 161.882 510.951 156.898 512.151 151.944C513.351 146.989 518.381 143.934 523.401 145.11V145.12Z" fill="#4A9038"/>
</g>
</g>
<path d="M25.3 62.6955C27.45 62.6163 29.5 63.0515 31.34 63.8623C34.73 57.3653 41.48 52.8066 49.4 52.5396C49.93 52.5198 50.45 52.5297 50.96 52.5495C50.93 52.2627 50.9 51.9858 50.89 51.6891C50.63 44.1637 56.58 37.8447 64.19 37.5777C69.24 37.4096 73.75 39.951 76.28 43.8868C79.21 42.1859 82.6 41.1575 86.23 41.0289C95.11 40.7223 102.89 45.8745 106.29 53.4395C108.66 51.165 111.84 49.7114 115.4 49.5828C123.01 49.3158 129.39 55.2096 129.65 62.735C129.92 70.2605 123.96 76.5696 116.36 76.8267C112.02 76.975 108.08 75.1159 105.44 72.0998C101.95 78.2902 95.38 82.5623 87.7 82.8293C81.14 83.0567 75.18 80.3076 71.14 75.8081C69.98 85.9344 61.47 93.9641 50.87 94.33C44.23 94.5575 38.19 91.7292 34.15 87.121C31.95 88.7922 29.23 89.8306 26.25 89.9295C18.66 90.1965 12.27 84.3126 12 76.7871C11.73 69.2617 17.69 62.9526 25.29 62.6955H25.3Z" fill="#4A9038"/>
<g style="mix-blend-mode:multiply" opacity="0.5">
<g style="mix-blend-mode:multiply">
<path d="M54.0401 65.4939C55.3301 65.4544 56.5601 65.7115 57.6701 66.1961C59.7101 62.2899 63.7601 59.5606 68.5101 59.3925C68.8301 59.3826 69.1401 59.3925 69.4501 59.3925C69.4301 59.2244 69.4101 59.0464 69.4101 58.8783C69.2501 54.3591 72.8201 50.5716 77.3901 50.4134C80.4301 50.3046 83.1301 51.8374 84.6501 54.2008C86.4101 53.1823 88.4401 52.5593 90.6301 52.49C95.9601 52.3021 100.63 55.3974 102.67 59.9364C104.09 58.5717 106 57.6916 108.14 57.6224C112.71 57.4642 116.54 60.9945 116.7 65.5137C116.86 70.0329 113.29 73.8204 108.72 73.9786C106.11 74.0676 103.75 72.9502 102.17 71.1405C100.08 74.8488 96.1301 77.4199 91.5201 77.588C87.5801 77.7265 84.0001 76.0751 81.5801 73.3655C80.8801 79.4472 75.7801 84.263 69.4101 84.4806C65.4201 84.619 61.8001 82.9181 59.3701 80.1493C58.0501 81.148 56.4201 81.7809 54.6301 81.8403C50.0601 81.9985 46.2301 78.4583 46.0701 73.9489C45.9101 69.4297 49.4801 65.6423 54.0501 65.4841L54.0401 65.4939Z" fill="#4A9038"/>
</g>
</g>
</g>
<defs>
<clipPath id="clip0_40_334">
<rect width="1980" height="178" fill="white"/>
</clipPath>
</defs>
</svg>
