<svg width="1074" height="265" viewBox="0 0 1074 265" fill="none" xmlns="http://www.w3.org/2000/svg">
<path d="M1051.53 378.544C1031.35 349.792 1004.78 326.875 977.129 307.105C937.973 279.126 899.595 249.638 859.39 223.463C818.66 196.957 775.172 175.218 728.351 165.444C568.664 132.127 418.047 61.4063 257.006 34.3109C149.369 16.1983 40.1749 12.4064 -67.6143 31.1633C-110.916 38.6918 -153.981 50.2884 -196.098 63.5968C-228.368 73.7943 -260.078 87.4709 -285.968 111.345C-290.757 115.763 -295.173 120.475 -299.201 125.426C-302.636 123.494 -306.967 123.475 -310.606 127.102C-331.351 147.736 -335.175 167.726 -328.847 186.299C-342.265 239.79 -332.654 301.878 -310.504 349.976C-270.993 435.771 -194.203 495.484 -118.091 539.109C-37.4604 585.33 51.0046 614.432 140.739 630.575C227.021 646.092 314.86 650.307 402.191 647.196C445.442 645.65 488.541 642.337 531.538 637.109C574.079 631.937 616.433 624.519 658.872 618.279C662.747 617.708 661.833 610.29 657.941 610.824C655.927 611.1 653.897 611.339 651.883 611.597L270.001 421.027C312.203 431.593 354.371 442.306 396.523 453.203C450.096 467.082 503.753 480.593 557.682 492.76C610.443 504.67 662.95 518.18 716.049 528.175C799.962 543.95 889.697 549.196 973.254 527.899C1007.32 519.211 1051.06 502.626 1067.32 465.573C1080.5 435.587 1068.93 403.264 1051.55 378.525L1051.53 378.544Z" fill="#B2DB29"/>
<path d="M1051.53 378.544C1031.35 349.792 1004.78 326.875 977.129 307.105C937.973 279.126 899.595 249.638 859.39 223.463C818.66 196.957 775.172 175.218 728.351 165.444C668.872 153.037 610.663 135.44 552.69 116.83C508.914 122.334 462.888 125.279 415.356 125.279C239.509 125.279 83.866 85.0964 -11.4861 23.4139C-30.235 25.3467 -48.9501 27.9053 -67.6313 31.1634C-110.933 38.6919 -153.998 50.2884 -196.115 63.5968C-228.384 73.7944 -260.095 87.4709 -285.985 111.345C-290.774 115.763 -295.19 120.475 -299.217 125.427C-302.653 123.494 -306.984 123.475 -310.622 127.102C-331.351 147.736 -335.175 167.726 -328.847 186.299C-342.265 239.79 -332.654 301.878 -310.504 349.976C-270.993 435.772 -194.203 495.484 -118.091 539.109C-37.4604 585.33 51.0046 614.432 140.739 630.575C227.021 646.092 314.86 650.307 402.191 647.196C445.442 645.65 488.541 642.337 531.538 637.109C574.079 631.937 616.433 624.519 658.872 618.279C662.747 617.708 661.833 610.29 657.941 610.824C655.927 611.1 653.897 611.339 651.883 611.597L270.001 421.027C312.203 431.593 354.371 442.306 396.523 453.203C450.096 467.082 503.753 480.593 557.682 492.76C610.443 504.67 662.95 518.18 716.049 528.176C799.962 543.95 889.697 549.197 973.254 527.899C1007.32 519.211 1051.06 502.626 1067.32 465.573C1080.5 435.587 1068.93 403.264 1051.55 378.525L1051.53 378.544Z" fill="#A5D334"/>
<g style="mix-blend-mode:multiply" opacity="0.4">
<path d="M222.875 49.8468C222.875 50.1413 224.55 50.3806 226.598 50.3806C228.645 50.3806 230.321 50.1413 230.321 49.8468C230.321 49.5523 228.645 49.313 226.598 49.313C224.55 49.313 222.875 49.5523 222.875 49.8468Z" fill="#A2DB4D"/>
</g>
<path d="M222.875 42.2078C222.875 35.2867 226.598 29.6725 226.598 29.6725C226.598 29.6725 230.32 35.2867 230.32 42.2078C230.32 45.6131 229.424 46.6255 228.51 46.7727H224.838C223.873 46.7175 222.858 45.7972 222.858 42.2078H222.875Z" fill="#7DC44F"/>
<path d="M226.293 49.5889C226.226 47.8218 226.175 46.11 226.361 44.3613C226.395 44.03 226.801 44.03 226.835 44.3613C227.021 46.1284 226.97 47.8218 226.903 49.5889C226.886 50.0123 226.31 50.0123 226.293 49.5889Z" fill="#447A44"/>
<g style="mix-blend-mode:multiply" opacity="0.4">
<path d="M394.475 97.7054C394.475 98 396.15 98.2392 398.198 98.2392C400.245 98.2392 401.921 98 401.921 97.7054C401.921 97.4109 400.245 97.1716 398.198 97.1716C396.15 97.1716 394.475 97.4109 394.475 97.7054Z" fill="#A2DB4D"/>
</g>
<path d="M394.475 90.0664C394.475 83.1453 398.198 77.5311 398.198 77.5311C398.198 77.5311 401.92 83.1453 401.92 90.0664C401.92 93.4717 401.024 94.4841 400.11 94.6314H396.438C395.473 94.5762 394.458 93.6558 394.458 90.0664H394.475Z" fill="#7DC44F"/>
<path d="M397.893 97.4477C397.826 95.6806 397.775 93.9687 397.961 92.2201C397.995 91.8887 398.401 91.8887 398.435 92.2201C398.621 93.9687 398.57 95.6806 398.502 97.4477C398.486 97.8895 397.91 97.8895 397.893 97.4477Z" fill="#447A44"/>
<g style="mix-blend-mode:multiply" opacity="0.4">
<path d="M502.467 153.369C502.467 153.663 504.142 153.903 506.19 153.903C508.237 153.903 509.913 153.663 509.913 153.369C509.913 153.074 508.237 152.835 506.19 152.835C504.142 152.835 502.467 153.074 502.467 153.369Z" fill="#A2DB4D"/>
</g>
<path d="M502.467 145.73C502.467 138.809 506.19 133.194 506.19 133.194C506.19 133.194 509.913 138.809 509.913 145.73C509.913 149.135 509.016 150.147 508.102 150.295H504.43C503.466 150.239 502.45 149.319 502.45 145.73H502.467Z" fill="#7DC44F"/>
<path d="M505.885 153.111C505.818 151.344 505.767 149.632 505.953 147.883C505.987 147.552 506.393 147.552 506.427 147.883C506.613 149.632 506.562 151.344 506.494 153.111C506.478 153.553 505.902 153.553 505.885 153.111Z" fill="#447A44"/>
<g style="mix-blend-mode:multiply" opacity="0.4">
<path d="M375.439 70.5547C375.439 70.8492 377.114 71.0885 379.161 71.0885C381.209 71.0885 382.884 70.8492 382.884 70.5547C382.884 70.2602 381.209 70.0209 379.161 70.0209C377.114 70.0209 375.439 70.2602 375.439 70.5547Z" fill="#A2DB4D"/>
</g>
<path d="M375.439 62.9158C375.439 55.9947 379.161 50.3805 379.161 50.3805C379.161 50.3805 382.884 55.9947 382.884 62.9158C382.884 66.3211 381.987 67.3335 381.073 67.4808H377.401C376.437 67.4255 375.422 66.5052 375.422 62.9158H375.439Z" fill="#7DC44F"/>
<path d="M378.857 70.2969C378.789 68.5298 378.738 66.818 378.924 65.0693C378.958 64.738 379.364 64.738 379.398 65.0693C379.584 66.818 379.533 68.5298 379.466 70.2969C379.449 70.7387 378.874 70.7387 378.857 70.2969Z" fill="#447A44"/>
<g style="mix-blend-mode:multiply" opacity="0.4">
<path d="M426.169 118.874C426.169 119.26 428.369 119.573 431.076 119.573C433.784 119.573 435.983 119.26 435.983 118.874C435.983 118.487 433.784 118.174 431.076 118.174C428.369 118.174 426.169 118.487 426.169 118.874Z" fill="#A2DB4D"/>
</g>
<path d="M426.169 108.805C426.169 99.6933 431.076 92.312 431.076 92.312C431.076 92.312 435.983 99.6933 435.983 108.805C435.983 113.278 434.799 114.622 433.597 114.824V114.861H428.775C427.506 114.769 426.169 113.535 426.169 108.805V108.805Z" fill="#7DC44F"/>
<path d="M430.687 118.524C430.585 116.204 430.535 113.959 430.788 111.639C430.839 111.198 431.364 111.198 431.415 111.639C431.651 113.959 431.601 116.204 431.516 118.524C431.499 119.094 430.721 119.094 430.704 118.524H430.687Z" fill="#447A44"/>
<g style="mix-blend-mode:multiply" opacity="0.4">
<path d="M187.019 32.36C187.019 32.6545 188.694 32.8938 190.742 32.8938C192.789 32.8938 194.464 32.6545 194.464 32.36C194.464 32.0655 192.789 31.8262 190.742 31.8262C188.694 31.8262 187.019 32.0655 187.019 32.36Z" fill="#A2DB4D"/>
</g>
<path d="M187.019 24.721C187.019 17.7999 190.741 12.1857 190.741 12.1857C190.741 12.1857 194.464 17.7999 194.464 24.721C194.464 28.1079 193.567 29.1387 192.653 29.2859H188.982C188.017 29.2307 187.002 28.3104 187.002 24.721H187.019Z" fill="#7DC44F"/>
<path d="M190.437 32.1022C190.369 30.3351 190.318 28.6233 190.504 26.8746C190.538 26.5433 190.944 26.5433 190.978 26.8746C191.164 28.6417 191.114 30.3351 191.046 32.1022C191.029 32.544 190.454 32.544 190.437 32.1022Z" fill="#447A44"/>
<g style="mix-blend-mode:multiply" opacity="0.4">
<path d="M47.7048 20.1744C47.7048 20.4689 49.38 20.7082 51.4275 20.7082C53.475 20.7082 55.1503 20.4689 55.1503 20.1744C55.1503 19.8799 53.475 19.6406 51.4275 19.6406C49.38 19.6406 47.7048 19.8799 47.7048 20.1744Z" fill="#A2DB4D"/>
</g>
<path d="M47.7049 12.5353C47.7049 5.61419 51.4276 0 51.4276 0C51.4276 0 55.1503 5.61419 55.1503 12.5353C55.1503 15.9406 54.2535 16.953 53.3397 17.1003H49.6678C48.7033 17.045 47.688 16.1247 47.688 12.5353H47.7049Z" fill="#7DC44F"/>
<path d="M51.123 19.9166C51.0553 18.1495 51.0045 16.4376 51.1906 14.6889C51.2245 14.3576 51.6306 14.3576 51.6644 14.6889C51.8506 16.4376 51.7998 18.1495 51.7321 19.9166C51.7152 20.3583 51.1399 20.3583 51.123 19.9166V19.9166Z" fill="#447A44"/>
<g style="mix-blend-mode:multiply" opacity="0.4">
<path d="M131.33 91.4469C131.33 91.9439 134.139 92.3488 137.608 92.3488C141.077 92.3488 143.886 91.9439 143.886 91.4469C143.886 90.9499 141.077 90.5449 137.608 90.5449C134.139 90.5449 131.33 90.9499 131.33 91.4469Z" fill="#A2DB4D"/>
</g>
<path d="M131.33 78.5619C131.33 66.9102 137.608 57.4673 137.608 57.4673C137.608 57.4673 143.886 66.9102 143.886 78.5619C143.886 84.2865 142.363 85.9984 140.823 86.2561V86.2929H134.647C133.023 86.1641 131.313 84.5995 131.313 78.5435L131.33 78.5619Z" fill="#7DC44F"/>
<path d="M137.084 91.0236C136.965 88.0416 136.898 85.1701 137.202 82.225C137.253 81.6727 137.947 81.6727 137.998 82.225C138.302 85.1885 138.235 88.06 138.116 91.0236C138.082 91.7599 137.101 91.7599 137.084 91.0236Z" fill="#447A44"/>
<g style="mix-blend-mode:multiply" opacity="0.4">
<path d="M269.561 137.741C269.561 138.404 273.318 138.938 277.954 138.938C282.591 138.938 286.347 138.404 286.347 137.741C286.347 137.078 282.591 136.545 277.954 136.545C273.318 136.545 269.561 137.078 269.561 137.741Z" fill="#A2DB4D"/>
</g>
<path d="M269.561 120.53C269.561 104.958 277.954 92.3306 277.954 92.3306C277.954 92.3306 286.347 104.958 286.347 120.53C286.347 128.169 284.317 130.47 282.269 130.82V130.875H274.012C271.829 130.71 269.561 128.611 269.561 120.53V120.53Z" fill="#7DC44F"/>
<path d="M277.26 137.17C277.108 133.194 277.007 129.366 277.413 125.408C277.497 124.653 278.411 124.653 278.479 125.408C278.885 129.366 278.8 133.194 278.631 137.17C278.597 138.146 277.277 138.146 277.243 137.17H277.26Z" fill="#447A44"/>
</svg>
