<svg width="175" height="58" viewBox="0 0 175 58" fill="none" xmlns="http://www.w3.org/2000/svg">
<g clip-path="url(#clip0_11_5671)">
<path d="M62.3045 34.1908C61.8544 33.6955 60.9726 33.2269 59.3383 33.8083C56.2957 34.7783 54.3395 34.8481 53.3559 34.0216C52.1278 32.988 52.4415 30.522 52.7734 27.9113C53.1288 25.1161 53.531 21.9487 52.1451 19.7646L52.1197 19.7246L52.083 19.6969C50.0658 18.1742 47.4936 13.3139 46.4458 9.90547L46.4367 9.87983C45.1149 6.81905 43.8838 5.27891 42.559 5.03384C41.22 4.7857 40.0877 5.94952 39.0898 6.97696C38.2446 7.84854 37.4452 8.6709 36.7182 8.50274C35.6093 8.22383 34.4036 9.00313 33.2367 9.75679C32.3263 10.3443 31.469 10.9021 30.7837 10.8786C30.1666 10.8601 29.8234 10.3013 29.4609 9.71064C29.0037 8.96621 28.4355 8.04131 27.2105 8.76011C25.5517 9.73525 22.6282 9.11592 21.6741 8.76011C20.4328 7.54707 19.162 7.01387 17.8932 7.17486C14.7549 7.57373 12.1013 12.0034 9.29182 16.6925C6.58625 21.2083 3.78903 25.878 0.636436 26.4952L0.552937 26.5117L0.495913 26.5752C-0.516258 27.7124 0.221996 28.5788 0.93581 29.4166C1.32378 29.8719 1.72498 30.3425 1.97955 30.926C2.4001 31.8908 3.22796 31.9821 4.02833 32.0693C5.22888 32.2015 6.47118 32.3379 6.69419 35.6069C6.86017 38.2759 7.57704 40.0847 8.82341 40.9819C10.4455 42.1488 12.588 41.5582 14.0065 41.1675C14.481 41.0363 15.1276 40.8579 15.2803 40.9256C15.2936 40.9902 15.2793 41.2803 14.6022 42.3693C13.9596 43.2768 13.7549 43.932 13.9566 44.4303C14.2152 45.0681 15.0319 45.2137 15.8221 45.3542C16.3577 45.4496 16.9646 45.5583 17.098 45.8156C17.156 45.9274 17.1316 46.0997 17.0267 46.3253C16.2294 48.0469 16.433 48.5421 17.154 48.9451C17.269 49.0097 17.377 49.0702 17.4594 49.1533L17.5053 49.1994L17.5674 49.2179C21.5804 50.4186 24.8746 51 27.737 51C28.4895 51 29.2135 50.96 29.912 50.88C32.9546 50.5324 35.2702 49.4619 37.7222 48.3289C39.156 47.6665 40.6386 46.9815 42.391 46.3683C47.2778 44.661 49.7736 46.9374 51.5973 48.6006C52.7215 49.627 53.694 50.5119 54.8039 49.8875C57.2763 48.496 57.0757 47.1558 56.7987 45.2999C56.6276 44.1576 56.4148 42.7354 56.763 40.8671C57.0197 39.488 57.318 38.7169 57.651 38.5754C57.9076 38.4667 58.3119 38.7384 58.7792 39.0532C59.3882 39.4633 60.1448 39.973 61.0877 39.9996C61.0968 39.9996 61.105 39.9996 61.1131 39.9996C61.6396 39.9996 62.1324 39.5495 62.5051 38.7281C63.1477 37.3141 63.2485 35.2305 62.3045 34.1898V34.1908ZM62.0428 38.5159C61.7699 39.1168 61.4146 39.4869 61.1121 39.4869H61.1019C60.3056 39.4644 59.6448 39.0204 59.0623 38.6277C58.4727 38.2308 57.9636 37.8873 57.4534 38.1037C56.925 38.3262 56.5696 39.125 56.2621 40.7728C55.8985 42.7251 56.1185 44.1955 56.2957 45.3757C56.5696 47.2112 56.7203 48.2212 54.5554 49.4404C53.8009 49.8649 53.1044 49.2845 51.9384 48.2212C50.1289 46.5703 47.3949 44.0766 42.224 45.8843C40.4482 46.5047 38.9543 47.1958 37.5104 47.8633C32.5371 50.1612 28.6076 51.9782 17.77 48.7431C17.6499 48.6365 17.5185 48.5627 17.4014 48.497C17.0379 48.294 16.7507 48.133 17.488 46.5426C17.6641 46.1643 17.6845 45.8402 17.5501 45.5788C17.3006 45.0968 16.6255 44.9769 15.9117 44.8497C15.2875 44.738 14.5808 44.6118 14.428 44.2365C14.3028 43.9289 14.5085 43.3844 15.0207 42.6615L15.0298 42.6482C15.7498 41.4905 15.929 40.9399 15.6907 40.6159C15.4178 40.2467 14.8028 40.4159 13.872 40.6733C12.4678 41.0599 10.5453 41.59 9.11973 40.5646C8.0037 39.7617 7.35811 38.0821 7.20231 35.573C6.94978 31.8744 5.36024 31.7001 4.08332 31.5596C3.33692 31.4776 2.74835 31.413 2.44592 30.7199C2.1608 30.0667 1.71581 29.5437 1.32174 29.0823C0.559047 28.1871 0.210795 27.7124 0.820745 26.9803C4.15663 26.2563 6.98847 21.5293 9.72765 16.9571C12.3507 12.5787 15.0634 8.05156 17.9564 7.68345C19.0918 7.53887 20.2037 8.02388 21.3554 9.16411L21.3931 9.20103L21.4419 9.22051C22.1568 9.49941 25.4754 10.373 27.4671 9.20308C28.2298 8.75498 28.5119 9.1395 29.0281 9.98032C29.4263 10.6284 29.8774 11.3646 30.7674 11.3913C31.6115 11.4138 32.5331 10.8201 33.5116 10.1885C34.5869 9.49326 35.6999 8.77446 36.5991 9.00107C37.6102 9.23486 38.5063 8.31201 39.4543 7.33584C40.4074 6.35454 41.3931 5.33941 42.4664 5.53731C43.5763 5.74341 44.7524 7.26817 45.9632 10.0706C46.8867 13.0667 49.463 18.3229 51.7399 20.0784C52.9974 22.1066 52.6105 25.1551 52.2684 27.8457C51.9181 30.5999 51.5881 33.2023 53.03 34.4143C54.1725 35.3751 56.2254 35.3382 59.4992 34.2944C60.6071 33.9006 61.4247 33.9826 61.9288 34.5374C62.72 35.409 62.6039 37.2813 62.0428 38.5159Z" fill="#F3A51E"/>
<path d="M62.0428 38.5159C61.7699 39.1168 61.4145 39.487 61.1121 39.487H61.1019C60.3056 39.4644 59.6447 39.0204 59.0623 38.6277C58.4727 38.2309 57.9635 37.8873 57.4534 38.1037C56.9249 38.3262 56.5695 39.125 56.262 40.7728C55.8985 42.7251 56.1184 44.1955 56.2956 45.3758C56.5695 47.2112 56.7202 48.2212 54.5554 49.4404C53.8008 49.8649 53.1043 49.2846 51.9384 48.2212C50.1289 46.5703 47.3948 44.0766 42.224 45.8844C40.4481 46.5047 38.9543 47.1958 37.5104 47.8634C32.5371 50.1613 28.6075 51.9782 17.77 48.7431C17.6498 48.6365 17.5185 48.5627 17.4013 48.4971C17.0378 48.294 16.7507 48.133 17.4879 46.5427C17.6641 46.1643 17.6844 45.8403 17.55 45.5788C17.3005 45.0969 16.6254 44.9769 15.9116 44.8497C15.2874 44.738 14.5807 44.6118 14.428 44.2366C14.3027 43.9289 14.5084 43.3845 15.0206 42.6616L15.0298 42.6482C15.7497 41.4906 15.9289 40.9399 15.6906 40.6159C15.4177 40.2468 14.8027 40.416 13.872 40.6733C12.4678 41.0599 10.5453 41.59 9.11967 40.5646C8.00364 39.7618 7.35805 38.0822 7.20225 35.573C6.94972 31.8745 5.36018 31.7001 4.08326 31.5597C3.33686 31.4776 2.74829 31.413 2.44586 30.7199C2.16075 30.0667 1.71576 29.5437 1.32168 29.0823C0.55899 28.1872 0.210738 27.7124 0.820688 26.9803C4.15658 26.2564 6.98841 21.5293 9.72759 16.9571C12.3507 12.5787 15.0634 8.05158 17.9563 7.68347C19.0917 7.53889 20.2037 8.0239 21.3553 9.16413L21.393 9.20105L21.4419 9.22053C22.1567 9.49943 25.4753 10.3731 27.4671 9.2031C28.2297 8.755 28.5118 9.13952 29.0281 9.98034C29.4262 10.6284 29.8773 11.3646 30.7673 11.3913C31.6115 11.4138 32.533 10.8201 33.5116 10.1885C34.5869 9.49328 35.6999 8.77448 36.599 9.00109C37.6101 9.23488 38.5062 8.31203 39.4543 7.33586C40.4074 6.35456 41.3931 5.33943 42.4663 5.53733C43.5763 5.74343 44.7524 7.26819 45.9631 10.0706C46.8867 13.0668 49.4629 18.3229 51.7398 20.0784C52.9974 22.1066 52.6104 25.1551 52.2683 27.8457C51.918 30.5999 51.5881 33.2023 53.03 34.4143C54.1725 35.3751 56.2253 35.3382 59.4991 34.2944C60.607 33.9006 61.4247 33.9827 61.9287 34.5374C62.7199 35.409 62.6038 37.2813 62.0428 38.5159Z" fill="#1884F4"/>
<path d="M33.3293 21.7979C33.3375 21.7139 33.3446 21.6298 33.3538 21.5447C33.3538 21.5406 33.3548 21.5365 33.3548 21.5334C32.753 21.3581 32.1298 21.2709 31.4995 21.2709H31.4638C31.4363 21.2709 31.4078 21.2709 31.3803 21.2719C30.7897 21.2822 30.2063 21.3693 29.6431 21.5334C29.6411 21.5344 29.6391 21.5344 29.637 21.5354C29.635 21.5324 29.634 21.5303 29.633 21.5272H29.6319C29.4079 21.1417 29.2134 20.7849 29.0536 20.4332C29.1299 20.8105 29.1819 21.2145 29.2257 21.6585C29.2257 21.6626 29.2267 21.6657 29.2267 21.6698C29.2246 21.6708 29.2226 21.6708 29.2206 21.6718C29.2643 21.7487 29.3092 21.8246 29.354 21.9005C29.3937 21.9671 29.4639 22.0061 29.5383 22.0061H29.5403C29.5474 22.0061 29.5546 22.0061 29.5617 22.0051C29.5749 22.003 29.5892 21.9999 29.6024 21.9958C30.138 21.8256 30.693 21.7282 31.2571 21.7057C31.2958 21.7046 31.3355 21.7036 31.3742 21.7026C31.4038 21.7016 31.4343 21.7016 31.4638 21.7016H31.4995C32.1461 21.7016 32.7835 21.801 33.3955 21.9958C33.4087 21.9999 33.423 22.003 33.4362 22.0051C33.365 21.963 33.3212 21.8831 33.3293 21.7979V21.7979ZM34.8598 18.3393C34.8557 18.1476 34.8343 17.9661 34.7946 17.7938C34.758 17.6236 34.704 17.4626 34.6337 17.3108C34.1877 16.349 33.1308 15.8825 31.4995 15.9296C31.4251 15.9276 31.3508 15.9266 31.2795 15.9266C29.7714 15.9266 28.7898 16.3921 28.3642 17.3108C28.2939 17.4626 28.24 17.6236 28.2033 17.7938C28.1636 17.9661 28.1422 18.1476 28.1381 18.3393C28.1239 18.7566 28.1901 19.2191 28.3336 19.7236C28.5281 20.4024 28.8631 21.0535 29.2145 21.6626L29.2206 21.6718C29.2643 21.7487 29.3092 21.8246 29.354 21.9005C29.3937 21.9671 29.4639 22.0061 29.5383 22.0061H29.5403C29.5474 22.0061 29.5546 22.0061 29.5617 22.0051C29.5749 22.003 29.5892 21.9999 29.6024 21.9958C30.138 21.8256 30.693 21.7282 31.2571 21.7057C31.2958 21.7046 31.3355 21.7036 31.3742 21.7026C31.4038 21.7016 31.4343 21.7016 31.4638 21.7016H31.4995C32.1461 21.7016 32.7835 21.801 33.3955 21.9958C33.4087 21.9999 33.423 22.003 33.4362 22.0051C33.5187 22.0143 33.6002 21.9743 33.644 21.9005C33.6867 21.8287 33.7285 21.7559 33.7713 21.6831C33.7733 21.679 33.7753 21.6759 33.7774 21.6718C34.1317 21.0597 34.4698 20.4055 34.6643 19.7236C34.8079 19.2191 34.8741 18.7566 34.8598 18.3393V18.3393ZM34.2529 19.6036C34.1725 19.8825 34.0696 20.1553 33.9444 20.4311V20.4332C33.7835 20.7869 33.588 21.1468 33.3619 21.5354C33.3599 21.5344 33.3568 21.5344 33.3548 21.5334C32.753 21.3581 32.1298 21.2709 31.4995 21.2709H31.4638C31.4363 21.2709 31.4078 21.2709 31.3803 21.2719C30.7897 21.2822 30.2063 21.3693 29.6431 21.5334C29.6411 21.5344 29.6391 21.5344 29.637 21.5354C29.635 21.5324 29.634 21.5303 29.633 21.5272H29.6319C29.4079 21.1417 29.2134 20.7849 29.0536 20.4332V20.4311C28.9283 20.1553 28.8245 19.8825 28.745 19.6036C28.6982 19.4375 28.6595 19.2775 28.631 19.1227C28.5678 18.7864 28.5485 18.4767 28.574 18.1958C28.5953 17.9363 28.6554 17.7015 28.7522 17.4934C29.1014 16.7397 29.9517 16.3572 31.2795 16.3572C31.3488 16.3572 31.4211 16.3583 31.4923 16.3603H31.5056C31.5769 16.3583 31.6492 16.3572 31.7184 16.3572C33.0462 16.3572 33.8965 16.7397 34.2468 17.4934C34.3435 17.7025 34.4026 17.9363 34.425 18.1958C34.4494 18.4757 34.4301 18.7854 34.367 19.1227C34.3384 19.2765 34.3008 19.4375 34.2529 19.6036V19.6036Z" fill="#F3A51E"/>
<path d="M29.5403 22.0061H29.5382C29.4639 22.0061 29.3936 21.9671 29.3539 21.9005C29.3091 21.8246 29.2643 21.7487 29.2205 21.6718C28.0302 22.1045 26.9976 22.8612 26.2176 23.8702C26.2176 23.8713 26.2156 23.8733 26.2146 23.8743C26.2064 23.8702 26.1983 23.8672 26.1901 23.8631C25.7889 23.6867 25.4264 23.5144 25.0965 23.3258C25.3755 23.5841 25.6504 23.8764 25.9417 24.2055C25.9478 24.2117 25.9539 24.2189 25.96 24.226C25.959 24.2281 25.958 24.2291 25.9569 24.2312C26.0384 24.2671 26.1188 24.3029 26.1993 24.3378C26.2258 24.3501 26.2553 24.3552 26.2828 24.3552C26.3154 24.3552 26.3469 24.3481 26.3754 24.3347C26.3938 24.3255 26.4111 24.3142 26.4264 24.2999C26.4376 24.2906 26.4467 24.2804 26.4559 24.2681C27.2308 23.2109 28.2908 22.4347 29.523 22.0225C29.5362 22.0174 29.5494 22.0122 29.5616 22.005C29.5545 22.0061 29.5474 22.0061 29.5403 22.0061V22.0061ZM29.6431 21.5334C29.6431 21.5334 29.6431 21.5272 29.6421 21.5252C29.5708 20.8228 29.4619 20.0958 29.2226 19.4323C29.0444 18.9391 28.8275 18.5259 28.5739 18.1957C28.4588 18.044 28.3346 17.9096 28.2033 17.7938C28.0729 17.6779 27.9344 17.5795 27.7898 17.4985C27.4833 17.3272 27.1473 17.2411 26.7899 17.2411C26.0852 17.2411 25.2971 17.5764 24.4478 18.2367C23.8857 18.6233 23.4509 19.0304 23.1556 19.4457C22.7504 20.0189 22.6027 20.6115 22.7178 21.2104C22.7493 21.3734 22.7992 21.5354 22.8685 21.6954C22.9377 21.8574 23.0263 22.0174 23.1343 22.1753C23.3664 22.5208 23.6902 22.8561 24.1016 23.1791C24.6495 23.6098 25.2951 23.9359 25.9315 24.2199C25.9396 24.224 25.9488 24.2281 25.9569 24.2312C26.0384 24.2671 26.1188 24.3029 26.1993 24.3378C26.2258 24.3501 26.2553 24.3552 26.2828 24.3552C26.3154 24.3552 26.3469 24.3481 26.3754 24.3347C26.3938 24.3255 26.4111 24.3142 26.4264 24.2999C26.4376 24.2906 26.4467 24.2804 26.4559 24.2681C27.2308 23.2109 28.2908 22.4347 29.523 22.0225C29.5362 22.0174 29.5494 22.0122 29.5616 22.005C29.5678 22.0009 29.5739 21.9979 29.579 21.9927C29.6401 21.9497 29.6757 21.8759 29.6686 21.7979C29.6604 21.7097 29.6523 21.6216 29.6431 21.5334V21.5334ZM26.2146 23.8743C26.2064 23.8702 26.1983 23.8672 26.1901 23.8631C25.7889 23.6867 25.4264 23.5144 25.0965 23.3258C24.8348 23.176 24.5914 23.0171 24.3643 22.8397C24.2289 22.7331 24.1037 22.6254 23.9896 22.5167C23.7422 22.2819 23.5467 22.043 23.4031 21.801C23.2697 21.5785 23.1811 21.355 23.1373 21.1283C22.9724 20.266 23.4957 19.4118 24.6943 18.5895C24.6973 18.5864 24.7004 18.5843 24.7044 18.5813C25.4794 17.9783 26.181 17.6718 26.7899 17.6718C27.074 17.6718 27.3408 17.7405 27.5831 17.8758C27.7837 17.9876 27.9691 18.1424 28.1381 18.3393C28.3214 18.5515 28.4863 18.813 28.6309 19.1227C28.6992 19.2652 28.7623 19.417 28.8203 19.58C28.9181 19.8517 28.9934 20.1327 29.0535 20.4311V20.4331C29.1299 20.8105 29.1818 21.2145 29.2256 21.6585C29.2256 21.6626 29.2266 21.6656 29.2266 21.6697C29.2246 21.6708 29.2226 21.6708 29.2205 21.6718C28.0302 22.1045 26.9976 22.8612 26.2176 23.8702C26.2176 23.8713 26.2156 23.8733 26.2146 23.8743V23.8743Z" fill="#F3A51E"/>
<path d="M26.3755 24.3347C26.347 24.3481 26.3154 24.3552 26.2828 24.3552C26.2553 24.3552 26.2258 24.3501 26.1993 24.3378C26.1189 24.303 26.0384 24.2671 25.957 24.2312C25.2452 25.2863 24.8511 26.5086 24.8104 27.7862V27.7924C24.7981 27.7954 24.7859 27.7975 24.7737 27.8006C24.3847 27.8857 23.9825 27.9646 23.5823 28.0097C23.9825 28.0538 24.3847 28.1307 24.7737 28.2158C24.7859 28.2189 24.7981 28.221 24.8104 28.224V28.2343C24.8969 28.2158 24.9825 28.1964 25.068 28.1769C25.123 28.1646 25.1698 28.1307 25.1994 28.0846C25.2136 28.062 25.2248 28.0374 25.2299 28.0108C25.233 27.9964 25.235 27.982 25.235 27.9677C25.2431 26.6552 25.6484 25.3991 26.406 24.3368C26.4142 24.3255 26.4213 24.3132 26.4264 24.2999C26.4111 24.3142 26.3938 24.3255 26.3755 24.3347V24.3347ZM26.3928 24.0692C26.3347 24.0025 26.2767 23.9369 26.2176 23.8702C26.2125 23.8631 26.2064 23.8569 26.2003 23.8508C25.736 23.3278 25.2279 22.811 24.6505 22.4183C24.2187 22.125 23.8013 21.9179 23.4031 21.801C23.2208 21.7467 23.0426 21.7118 22.8685 21.6954C22.6954 21.679 22.5274 21.681 22.3634 21.7015C21.7627 21.7764 21.2474 22.1004 20.8319 22.6664C20.5305 23.0776 20.2811 23.62 20.0896 24.2773C19.8605 24.9223 19.7465 25.5088 19.7505 26.0195C19.7556 26.7239 19.9827 27.2909 20.4257 27.7072C20.5468 27.8211 20.6812 27.9216 20.8309 28.0108C20.9816 28.101 21.1466 28.1779 21.3248 28.2415C21.7158 28.383 22.173 28.463 22.6944 28.4814C22.7555 28.4835 22.8186 28.4855 22.8807 28.4855C23.5161 28.4855 24.1607 28.3748 24.7747 28.2425C24.7869 28.2394 24.7981 28.2374 24.8104 28.2343C24.8969 28.2158 24.9825 28.1964 25.068 28.1769C25.123 28.1646 25.1698 28.1307 25.1994 28.0846C25.2136 28.062 25.2248 28.0374 25.2299 28.0108C25.233 27.9964 25.235 27.982 25.235 27.9677C25.2431 26.6552 25.6484 25.3991 26.406 24.3368C26.4142 24.3255 26.4213 24.3132 26.4264 24.2999C26.4355 24.2804 26.4417 24.2599 26.4437 24.2394C26.4518 24.1789 26.4345 24.1163 26.3928 24.0692V24.0692ZM24.8104 27.7924C24.7981 27.7954 24.7859 27.7975 24.7737 27.8006C24.3847 27.8857 23.9825 27.9646 23.5823 28.0097C23.3471 28.0364 23.1129 28.0528 22.8807 28.0528C22.8237 28.0528 22.7657 28.0518 22.7086 28.0497C22.5365 28.0436 22.3726 28.0302 22.2178 28.0097C21.8808 27.9667 21.5824 27.8898 21.3248 27.779C21.0875 27.6785 20.8849 27.5483 20.7179 27.3914C20.0805 26.7926 20.0051 25.7918 20.4949 24.4168L20.498 24.4045C20.9053 23.0017 21.5498 22.2368 22.4154 22.1291C22.4887 22.1199 22.5651 22.1158 22.6414 22.1158C22.8003 22.1158 22.9642 22.1353 23.1343 22.1753C23.4062 22.2388 23.6923 22.3527 23.9896 22.5167C24.1271 22.5916 24.2676 22.6787 24.4112 22.7751C24.6495 22.9371 24.8745 23.1207 25.0965 23.3258C25.3755 23.5842 25.6504 23.8764 25.9417 24.2055C25.9478 24.2117 25.9539 24.2189 25.96 24.226C25.959 24.2281 25.958 24.2291 25.957 24.2312C25.2452 25.2863 24.8511 26.5086 24.8104 27.7862V27.7924V27.7924Z" fill="#F3A51E"/>
<path d="M26.406 31.6837C25.6484 30.6204 25.2431 29.3653 25.235 28.0528C25.235 28.0385 25.233 28.0241 25.2299 28.0108C25.2248 28.0374 25.2136 28.062 25.1994 28.0846C25.1698 28.1307 25.123 28.1646 25.068 28.1769C24.9825 28.1964 24.8969 28.2158 24.8104 28.2343C24.8521 29.5119 25.2472 30.7311 25.96 31.7863L25.958 31.7883C26.0384 31.7524 26.1189 31.7175 26.1993 31.6827C26.2573 31.6581 26.3215 31.6601 26.3755 31.6858C26.3948 31.695 26.4121 31.7073 26.4274 31.7217C26.4223 31.7083 26.4142 31.696 26.406 31.6837ZM26.4437 31.7811C26.4417 31.7606 26.4355 31.7411 26.4274 31.7217C26.4223 31.7083 26.4142 31.696 26.406 31.6837C25.6484 30.6204 25.2431 29.3653 25.235 28.0528C25.235 28.0385 25.233 28.0241 25.2299 28.0108C25.2248 27.9841 25.2146 27.9585 25.1994 27.9369C25.1698 27.8908 25.124 27.857 25.068 27.8436C24.9825 27.8241 24.8969 27.8047 24.8104 27.7862C24.7981 27.7831 24.7869 27.7811 24.7747 27.778C24.1607 27.6468 23.5161 27.536 22.8807 27.536C22.8186 27.536 22.7555 27.537 22.6944 27.5391C22.173 27.5575 21.7158 27.6375 21.3248 27.779C21.1466 27.8426 20.9816 27.9195 20.8309 28.0108C20.6812 28.0979 20.5468 28.1994 20.4257 28.3133C19.9827 28.7285 19.7556 29.2956 19.7505 29.999C19.7465 30.5107 19.8605 31.0951 20.0896 31.7401C20.2811 32.3984 20.5305 32.9367 20.8319 33.3479C21.2474 33.9139 21.7627 34.2339 22.3634 34.3077C22.4541 34.319 22.5477 34.3138 22.6414 34.3138C22.7198 34.3138 22.7982 34.3097 22.8787 34.3026C23.0538 34.2861 23.2331 34.2503 23.4163 34.1969C23.8104 34.0821 24.2238 33.8811 24.6505 33.5909C25.2279 33.1982 25.736 32.6886 26.2003 32.1697C26.2064 32.1626 26.2125 32.1564 26.2187 32.1503C26.2767 32.0836 26.3347 32.018 26.3928 31.9513C26.4345 31.9042 26.4518 31.8416 26.4437 31.7811V31.7811ZM24.4112 33.23C24.2839 33.3161 24.1576 33.3941 24.0344 33.4617C23.8461 33.5674 23.6617 33.6525 23.4835 33.716C23.3726 33.756 23.2636 33.7878 23.1567 33.8124C22.9795 33.8545 22.8074 33.8739 22.6424 33.8739C22.5661 33.8739 22.4897 33.8852 22.4164 33.876C21.5509 33.7683 20.9063 33.0177 20.499 31.616L20.4959 31.6037C20.0061 30.2287 20.0815 29.2279 20.7189 28.6291C20.8859 28.4722 21.0886 28.342 21.3258 28.2415C21.5834 28.1307 21.8818 28.0538 22.2188 28.0097C22.3736 27.9892 22.5376 27.9769 22.7097 27.9708C22.7667 27.9687 22.8237 27.9677 22.8817 27.9677C23.1139 27.9677 23.3481 27.9831 23.5833 28.0097C23.9835 28.0538 24.3857 28.1307 24.7747 28.2158C24.7869 28.2189 24.7992 28.221 24.8114 28.224V28.2343C24.8531 29.5119 25.2482 30.7311 25.961 31.7863L25.959 31.7883C25.9529 31.7955 25.9468 31.8027 25.9396 31.8098C25.6362 32.1533 25.3511 32.4538 25.0588 32.7173C24.8491 32.907 24.6362 33.0772 24.4122 33.23H24.4112Z" fill="#F3A51E"/>
<path d="M29.523 33.998C28.2909 33.5858 27.2308 32.8096 26.4559 31.7524C26.4478 31.7411 26.4376 31.7309 26.4274 31.7217C26.4121 31.7073 26.3948 31.695 26.3755 31.6858C26.3215 31.6601 26.2573 31.6581 26.1993 31.6827C26.1189 31.7176 26.0384 31.7524 25.958 31.7883C25.9519 31.7955 25.9458 31.8027 25.9386 31.8098C25.6352 32.1533 25.3501 32.4538 25.0578 32.7173C25.3979 32.5204 25.7726 32.34 26.1901 32.1564C26.1983 32.1523 26.2064 32.1493 26.2146 32.1451C26.2156 32.1472 26.2176 32.1482 26.2187 32.1503C26.9987 33.1603 28.0312 33.916 29.2205 34.3487C29.2643 34.2718 29.3091 34.1959 29.3539 34.12C29.3936 34.0524 29.4659 34.0134 29.5403 34.0144C29.5474 34.0144 29.5545 34.0144 29.5617 34.0165C29.5494 34.0083 29.5362 34.0032 29.523 33.998V33.998ZM29.579 34.0278C29.579 34.0278 29.5678 34.0196 29.5617 34.0165C29.5494 34.0083 29.5362 34.0032 29.523 33.998C28.2909 33.5858 27.2308 32.8096 26.4559 31.7524C26.4478 31.7411 26.4376 31.7309 26.4274 31.7217C26.4121 31.7073 26.3948 31.695 26.3755 31.6858C26.3215 31.6601 26.2573 31.6581 26.1993 31.6827C26.1189 31.7176 26.0384 31.7524 25.958 31.7883C25.9488 31.7924 25.9407 31.7965 25.9315 31.8006C25.2951 32.0836 24.6495 32.4107 24.1016 32.8414C23.7035 33.1541 23.3878 33.4792 23.1567 33.8124C23.0447 33.9734 22.952 34.1375 22.8797 34.3026C22.8054 34.4707 22.7514 34.6399 22.7188 34.8112C22.6038 35.409 22.7514 36.0037 23.1567 36.5759C23.452 36.9922 23.8868 37.4003 24.4489 37.7868C25.2981 38.4482 26.0863 38.7866 26.7909 38.7866C27.1483 38.7866 27.4844 38.6964 27.7909 38.5251C27.9355 38.4441 28.074 38.3457 28.2043 38.2288C28.3357 38.1119 28.4599 37.9776 28.575 37.8258C28.8295 37.4946 29.0464 37.0803 29.2236 36.5882C29.4629 35.9237 29.5718 35.1977 29.6431 34.4964C29.6441 34.4933 29.6441 34.4902 29.6441 34.4871C29.6533 34.399 29.6615 34.3108 29.6696 34.2226C29.6767 34.1447 29.6411 34.0708 29.58 34.0278H29.579ZM28.8204 36.4405C28.7623 36.6035 28.6992 36.7553 28.631 36.8978C28.4864 37.2075 28.3214 37.469 28.1381 37.6812C27.9691 37.8781 27.7837 38.0329 27.5831 38.1447C27.3408 38.2801 27.074 38.3488 26.7899 38.3488C26.181 38.3477 25.4794 38.0422 24.7045 37.4382C24.7004 37.4362 24.6973 37.4331 24.6943 37.431C23.4958 36.6076 22.9724 35.7535 23.1373 34.8922C23.1832 34.6584 23.2748 34.4266 23.4163 34.197C23.567 33.9488 23.7738 33.7027 24.0344 33.4617C24.1363 33.3674 24.2462 33.2741 24.3644 33.1808C24.5802 33.0116 24.8104 32.8588 25.0578 32.7173C25.3979 32.5204 25.7726 32.34 26.1901 32.1564C26.1983 32.1523 26.2064 32.1493 26.2146 32.1451C26.2156 32.1472 26.2176 32.1482 26.2187 32.1503C26.9987 33.1603 28.0312 33.916 29.2205 34.3487C29.2226 34.3497 29.2246 34.3497 29.2267 34.3508C29.2267 34.3549 29.2256 34.3579 29.2256 34.362C29.1818 34.805 29.1299 35.209 29.0546 35.5864C28.9945 35.8847 28.9191 36.1667 28.8204 36.4405V36.4405Z" fill="#F3A51E"/>
<path d="M33.7723 34.3508C33.7723 34.3508 33.7763 34.3497 33.7784 34.3487C33.7753 34.3446 33.7733 34.3405 33.7713 34.3364C33.7285 34.2636 33.6867 34.1908 33.644 34.119C33.6002 34.0462 33.5187 34.0062 33.4373 34.0155C33.423 34.0175 33.4087 34.0206 33.3955 34.0247C32.7835 34.2195 32.1461 34.319 31.4995 34.319H31.4638C31.4343 34.319 31.4048 34.319 31.3752 34.318C30.7714 34.3057 30.1747 34.2072 29.6024 34.0247C29.5892 34.0206 29.5749 34.0175 29.5617 34.0165C29.5546 34.0155 29.5474 34.0144 29.5403 34.0144C29.466 34.0134 29.3937 34.0524 29.354 34.1201C29.3092 34.1959 29.2643 34.2718 29.2206 34.3487C29.2226 34.3497 29.2246 34.3497 29.2267 34.3508C29.2267 34.3549 29.2257 34.358 29.2257 34.3621C29.1819 34.805 29.1299 35.209 29.0546 35.5864C29.2134 35.2357 29.4079 34.8778 29.6319 34.4933H29.633C29.633 34.4933 29.635 34.4882 29.637 34.4851C29.6391 34.4861 29.6411 34.4861 29.6431 34.4872C30.2063 34.6502 30.7897 34.7384 31.3803 34.7486C31.4078 34.7497 31.4363 34.7497 31.4638 34.7497H31.4995C32.1308 34.7497 32.753 34.6615 33.3548 34.4872C33.3568 34.4861 33.3599 34.4861 33.3619 34.4851C33.588 34.8727 33.7835 35.2326 33.9433 35.5864C33.867 35.2049 33.8161 34.7989 33.7723 34.3508ZM34.6643 36.297C34.4698 35.6151 34.1317 34.9619 33.7784 34.3487C33.7753 34.3446 33.7733 34.3405 33.7713 34.3364C33.7285 34.2636 33.6867 34.1908 33.644 34.119C33.6002 34.0462 33.5187 34.0062 33.4373 34.0155C33.423 34.0175 33.4087 34.0206 33.3955 34.0247C32.7835 34.2195 32.1461 34.319 31.4995 34.319H31.4638C31.4343 34.319 31.4048 34.319 31.3752 34.318C30.7714 34.3057 30.1747 34.2072 29.6024 34.0247C29.5892 34.0206 29.5749 34.0175 29.5617 34.0165C29.5546 34.0155 29.5474 34.0144 29.5403 34.0144C29.466 34.0134 29.3937 34.0524 29.354 34.1201C29.3092 34.1959 29.2643 34.2718 29.2206 34.3487L29.2145 34.358C28.8631 34.967 28.5271 35.6192 28.3336 36.298C28.1901 36.8015 28.1239 37.2639 28.1381 37.6812C28.1422 37.874 28.1636 38.0565 28.2033 38.2288C28.24 38.4 28.2939 38.56 28.3642 38.7107C28.7898 39.6295 29.7704 40.0971 31.2795 40.0971C31.3508 40.0971 31.4251 40.0991 31.4995 40.0971C31.5728 40.0991 31.6471 40.1063 31.7184 40.1063C33.2275 40.1063 34.2081 39.6336 34.6337 38.7148C34.704 38.5631 34.758 38.4011 34.7956 38.2298C34.8343 38.0565 34.8557 37.873 34.8608 37.6802C34.873 37.2629 34.8079 36.7994 34.6643 36.297V36.297ZM34.425 37.8279C34.4026 38.0852 34.3435 38.319 34.2468 38.5272C33.8965 39.2808 33.0462 39.6633 31.7184 39.6633C31.6492 39.6633 31.5769 39.6623 31.5056 39.6602C31.5035 39.6592 31.5015 39.6592 31.4995 39.6592C31.4964 39.6592 31.4944 39.6592 31.4923 39.6602C31.4211 39.6623 31.3488 39.6633 31.2795 39.6633C29.9517 39.6633 29.1014 39.2808 28.7522 38.5272C28.6554 38.319 28.5953 38.0842 28.574 37.8258C28.5485 37.5449 28.5678 37.2352 28.631 36.8978C28.6595 36.743 28.6982 36.582 28.745 36.4159C28.8245 36.136 28.9283 35.8632 29.0546 35.5864C29.2134 35.2357 29.4079 34.8778 29.6319 34.4933H29.633C29.633 34.4933 29.635 34.4882 29.637 34.4851C29.6391 34.4861 29.6411 34.4861 29.6431 34.4872C30.2063 34.6502 30.7897 34.7384 31.3803 34.7486C31.4078 34.7497 31.4363 34.7497 31.4638 34.7497H31.4995C32.1308 34.7497 32.753 34.6615 33.3548 34.4872C33.3568 34.4861 33.3599 34.4861 33.3619 34.4851C33.588 34.8727 33.7835 35.2326 33.9433 35.5864C34.0686 35.8632 34.1725 36.136 34.2529 36.4159C34.3008 36.582 34.3384 36.743 34.367 36.8978C34.4301 37.2352 34.4494 37.5459 34.425 37.8279V37.8279Z" fill="#F3A51E"/>
<path d="M36.208 38.7866C35.8506 38.7866 35.5145 38.6963 35.208 38.5251C34.5981 38.1847 34.1164 37.5325 33.7763 36.5892C33.5055 35.8386 33.4016 35.008 33.3303 34.2226C33.3212 34.1231 33.3812 34.0298 33.4759 33.998C34.7081 33.5858 35.7681 32.8096 36.543 31.7524C36.6021 31.6714 36.708 31.6427 36.7996 31.6827C37.5195 31.9944 38.272 32.3492 38.8973 32.8414C39.6824 33.4587 40.1487 34.1211 40.2811 34.8101C40.3962 35.4079 40.2485 36.0016 39.8422 36.5748C39.5469 36.9911 39.1131 37.4013 38.5511 37.7879C37.7008 38.4482 36.9126 38.7866 36.209 38.7866H36.208ZM33.7712 34.3507C33.8486 35.1495 33.9525 35.8181 34.1775 36.4405C34.481 37.2823 34.8975 37.8555 35.4147 38.1437C35.6571 38.279 35.9239 38.3467 36.208 38.3467C36.8169 38.3467 37.5185 38.0411 38.2934 37.4382C38.2965 37.4351 38.3006 37.4331 38.3036 37.431C39.5021 36.6076 40.0255 35.7545 39.8595 34.8921C39.7475 34.3077 39.3341 33.7324 38.6325 33.1808C38.1142 32.7727 37.5144 32.4671 36.7833 32.1451C36.0013 33.1592 34.9657 33.917 33.7712 34.3507Z" fill="#F3A51E"/>
<path d="M40.3565 34.3138C39.7394 34.3138 39.0632 34.078 38.3474 33.5909C37.6896 33.1439 37.1214 32.5389 36.6051 31.9452C36.5399 31.8703 36.5338 31.7616 36.5919 31.6806C37.3495 30.6173 37.7537 29.3633 37.7629 28.0508C37.7629 27.9503 37.8321 27.8652 37.9299 27.8426C38.6305 27.6826 39.3799 27.536 40.1172 27.536C40.1803 27.536 40.2424 27.537 40.3035 27.5391C41.2994 27.574 42.0631 27.8344 42.5722 28.3133C43.0142 28.7285 43.2412 29.2966 43.2474 30C43.2514 30.5107 43.1374 31.0972 42.9083 31.7422C42.7168 32.3994 42.4673 32.9419 42.1649 33.352C41.7495 33.918 41.2342 34.2318 40.6344 34.3067C40.5438 34.3179 40.4501 34.3128 40.3565 34.3128V34.3138ZM37.0379 31.7934C37.5674 32.3943 38.0419 32.8588 38.5867 33.229C39.2302 33.6668 39.8259 33.8739 40.3565 33.8739C40.4328 33.8739 40.5082 33.8842 40.5825 33.875C41.4481 33.7673 42.0926 33.0095 42.4999 31.6078C42.501 31.6037 42.502 31.6037 42.504 31.5996C42.9928 30.2246 42.9184 29.2259 42.281 28.626C41.8493 28.2199 41.1792 27.9995 40.2892 27.9687C40.2332 27.9667 40.1752 27.9667 40.1172 27.9667C39.4777 27.9667 38.8158 28.0877 38.1885 28.2271C38.1478 29.5099 37.7527 30.7352 37.0389 31.7934H37.0379Z" fill="#F3A51E"/>
<path d="M40.1171 28.4855C39.3799 28.4855 38.6305 28.3368 37.9299 28.1769C37.8331 28.1543 37.7639 28.0682 37.7629 27.9677C37.7547 26.6552 37.3495 25.3991 36.5919 24.3368C36.5338 24.2558 36.5389 24.144 36.6051 24.0692C37.1214 23.4765 37.6896 22.8654 38.3474 22.4183C39.1722 21.8574 39.944 21.6154 40.6344 21.7015C41.2352 21.7764 41.7494 22.1004 42.1649 22.6664C42.4663 23.0776 42.7168 23.619 42.9083 24.2763C43.1374 24.9213 43.2514 25.5078 43.2473 26.0184C43.2412 26.7219 43.0141 27.2899 42.5722 27.7052C42.0621 28.1841 41.2994 28.4455 40.3035 28.4804C40.2424 28.4825 40.1793 28.4845 40.1171 28.4845V28.4855ZM38.1885 27.7893C38.8168 27.9287 39.4777 28.0456 40.1171 28.0456C40.1752 28.0456 40.2332 28.0477 40.2892 28.0456C41.1792 28.0149 41.8492 27.7954 42.281 27.3894C42.9184 26.7906 42.9928 25.7908 42.504 24.4158C42.503 24.4117 42.5009 24.4086 42.4999 24.4034C42.0926 23.0017 41.448 22.2358 40.5825 22.1291C39.997 22.0563 39.3239 22.2747 38.5877 22.7751C38.0429 23.1463 37.5674 23.6242 37.0389 24.224C37.7527 25.2822 38.1488 26.5065 38.1885 27.7883V27.7893Z" fill="#F3A51E"/>
<path d="M36.7141 24.3552C36.6479 24.3552 36.5827 24.3245 36.542 24.2681C35.7671 23.2109 34.707 22.4347 33.4749 22.0225C33.3802 21.9907 33.3201 21.8984 33.3293 21.7979C33.4006 21.0135 33.5044 20.1829 33.7753 19.4323C34.1154 18.489 34.597 17.8389 35.207 17.4985C35.5135 17.3272 35.8506 17.2411 36.207 17.2411C36.9116 17.2411 37.6997 17.5764 38.55 18.2367C39.1121 18.6233 39.5459 19.0304 39.8412 19.4457C40.2475 20.0178 40.3951 20.6115 40.2801 21.2104C40.1477 21.8994 39.6813 22.5618 38.8962 23.1791C38.271 23.6713 37.5185 24.0261 36.7986 24.3378C36.7711 24.3501 36.7426 24.3552 36.7141 24.3552ZM33.7712 21.6697C34.9657 22.1035 36.0013 22.8613 36.7833 23.8754C37.5144 23.5544 38.1142 23.2478 38.6325 22.8397C39.3341 22.2881 39.7465 21.7128 39.8595 21.1283C40.0255 20.267 39.5021 19.4129 38.3036 18.5895C38.3005 18.5874 38.2965 18.5844 38.2934 18.5823C37.5185 17.9783 36.8159 17.6728 36.208 17.6728C35.9249 17.6728 35.6581 17.7415 35.4147 17.8768C34.8974 18.165 34.482 18.7382 34.1775 19.581C33.9525 20.2034 33.8486 20.872 33.7712 21.6708V21.6697Z" fill="#F3A51E"/>
<path d="M38.1519 27.7934C38.1111 26.4819 37.6967 25.2637 37.0114 24.2445C36.9309 24.1245 36.8474 24.0076 36.7599 23.8938C35.9962 22.9002 34.9626 22.126 33.7712 21.6831C33.6348 21.6328 33.4953 21.5867 33.3537 21.5447C32.7651 21.3693 32.143 21.274 31.4994 21.2709H31.4638C31.4363 21.2709 31.4078 21.2709 31.3803 21.2719C30.7785 21.2791 30.196 21.3662 29.6421 21.5252C29.639 21.5252 29.636 21.5262 29.6329 21.5272H29.6319C29.4944 21.5662 29.359 21.6103 29.2256 21.6585C29.2215 21.6585 29.2175 21.6605 29.2144 21.6626C28.0149 22.0943 26.9732 22.8613 26.2003 23.8508C26.1972 23.8549 26.1942 23.859 26.1901 23.8631C26.1046 23.9738 26.0211 24.0886 25.9417 24.2055C25.9386 24.2096 25.9345 24.2148 25.9315 24.2199C25.2401 25.2402 24.8185 26.4614 24.7747 27.778C24.7747 27.7852 24.7737 27.7924 24.7737 27.8006C24.7716 27.8703 24.7706 27.94 24.7706 28.0097C24.7706 28.0795 24.7716 28.1471 24.7737 28.2158C24.7737 28.2251 24.7747 28.2343 24.7747 28.2425C24.8195 29.5581 25.2401 30.7793 25.9315 31.8006C25.9335 31.8037 25.9355 31.8068 25.9386 31.8098C26.018 31.9277 26.1025 32.0436 26.1901 32.1564C26.1932 32.1605 26.1972 32.1656 26.2003 32.1697C26.9732 33.1592 28.0149 33.9262 29.2144 34.3579C29.2175 34.36 29.2215 34.361 29.2256 34.362C29.359 34.4102 29.4944 34.4543 29.6319 34.4933H29.6329L29.6421 34.4963C30.196 34.6543 30.7785 34.7414 31.3803 34.7486C31.4078 34.7496 31.4363 34.7496 31.4638 34.7496H31.4994C32.143 34.7465 32.7651 34.6512 33.3537 34.4758C33.4953 34.4338 33.6348 34.3877 33.7712 34.3364C34.9636 33.8944 35.9982 33.1193 36.7619 32.1236C36.8485 32.0098 36.932 31.8939 37.0114 31.775C37.6967 30.7557 38.1111 29.5376 38.1519 28.2271C38.1549 28.1553 38.1559 28.0825 38.1559 28.0097C38.1559 27.9369 38.1549 27.8652 38.1519 27.7934V27.7934ZM31.4638 34.319C31.4343 34.319 31.4047 34.319 31.3752 34.3179C30.75 34.3097 30.1472 34.2082 29.579 34.0277C29.5657 34.0236 29.5535 34.0195 29.5403 34.0144C28.2918 33.6084 27.2135 32.8178 26.4437 31.7811C26.4202 31.7493 26.3968 31.7175 26.3754 31.6858C25.6474 30.6686 25.2146 29.4258 25.1993 28.0846C25.1993 28.06 25.1993 28.0343 25.1993 28.0097C25.1993 27.9851 25.1993 27.9615 25.1993 27.9369C25.2136 26.5947 25.6474 25.3519 26.3754 24.3347C26.3968 24.303 26.4202 24.2701 26.4437 24.2394C27.2135 23.2037 28.2908 22.4132 29.5382 22.0061H29.5403C29.5535 22.001 29.5657 21.9969 29.579 21.9927C30.1115 21.8236 30.6746 21.7241 31.2571 21.7056C31.2958 21.7036 31.3355 21.7026 31.3742 21.7026C31.4037 21.7015 31.4343 21.7015 31.4638 21.7015H31.4994C34.9371 21.721 37.7283 24.5439 37.7283 28.0097C37.7283 31.4756 34.9371 34.2995 31.4994 34.319H31.4638V34.319Z" fill="#F3A51E"/>
<path d="M31.4994 21.7015H31.4638C31.4342 21.7015 31.4037 21.7015 31.3742 21.7026C31.3355 21.7036 31.2958 21.7046 31.2571 21.7056C30.6929 21.7282 30.138 21.8256 29.6024 21.9958C29.5891 21.9999 29.5749 22.003 29.5616 22.0051C29.5494 22.0122 29.5362 22.0174 29.5229 22.0225C28.2908 22.4347 27.2308 23.2109 26.4559 24.2681C26.4467 24.2804 26.4375 24.2906 26.4263 24.2999C26.4212 24.3132 26.4141 24.3255 26.406 24.3368C25.6484 25.3991 25.2431 26.6552 25.235 27.9677C25.235 27.982 25.2329 27.9964 25.2299 28.0108C25.2329 28.0241 25.235 28.0384 25.235 28.0528C25.2431 29.3653 25.6484 30.6204 26.406 31.6837C26.4141 31.696 26.4223 31.7083 26.4274 31.7216C26.4375 31.7309 26.4477 31.7411 26.4559 31.7524C27.2308 32.8096 28.2908 33.5858 29.5229 33.998C29.5362 34.0031 29.5494 34.0083 29.5616 34.0165C29.5749 34.0175 29.5891 34.0206 29.6024 34.0247C30.1746 34.2072 30.7713 34.3056 31.3752 34.3179C31.4047 34.319 31.4342 34.319 31.4638 34.319H31.4994C34.9371 34.2995 37.7282 31.4766 37.7282 28.0097C37.7282 24.5429 34.9371 21.721 31.4994 21.7015ZM31.4638 33.554C28.4273 33.554 25.9579 31.0674 25.9579 28.0097C25.9579 24.952 28.4273 22.4665 31.4638 22.4665C34.5003 22.4665 36.9686 24.953 36.9686 28.0097C36.9686 31.0664 34.4993 33.554 31.4638 33.554Z" fill="#F3A51E"/>
<path d="M31.4638 22.4665C28.4273 22.4665 25.9579 24.9531 25.9579 28.0097C25.9579 31.0664 28.4273 33.554 31.4638 33.554C34.5003 33.554 36.9686 31.0675 36.9686 28.0097C36.9686 24.952 34.4993 22.4665 31.4638 22.4665V22.4665ZM31.4638 33.1234C28.6635 33.1234 26.3856 30.8296 26.3856 28.0097C26.3856 25.1899 28.6635 22.8972 31.4638 22.8972C34.2641 22.8972 36.5409 25.191 36.5409 28.0097C36.5409 30.8285 34.263 33.1234 31.4638 33.1234Z" fill="#F3A51E"/>
<path d="M31.4567 26.7711C31.3559 26.7711 31.2571 26.7208 30.9944 26.446C30.8763 26.3219 30.7877 26.1876 30.7011 26.0564L30.6889 26.0379C30.3722 25.557 30.3213 24.8587 30.5636 24.2999C30.7164 23.9461 30.9903 23.6447 31.3559 23.4273C31.4231 23.3873 31.5066 23.3873 31.5738 23.4273C32.1308 23.7595 32.4821 24.3317 32.5126 24.9572C32.5198 25.0987 32.5096 25.2422 32.4831 25.3817C32.3833 25.9067 32.0137 26.4696 31.6043 26.7208C31.5921 26.729 31.5799 26.7362 31.5666 26.7424C31.533 26.7608 31.4954 26.77 31.4557 26.77L31.4567 26.7711ZM31.4638 23.8692C31.2316 24.0312 31.0575 24.2384 30.9557 24.4721C30.7693 24.9028 30.805 25.436 31.0453 25.8L31.0575 25.8185C31.1369 25.9384 31.2113 26.0523 31.3009 26.1456C31.3691 26.2163 31.421 26.2666 31.4587 26.3004C31.7367 26.0882 31.9933 25.6698 32.0626 25.3017C32.0829 25.195 32.09 25.0863 32.085 24.9787C32.0636 24.5388 31.8334 24.1327 31.4638 23.8692V23.8692Z" fill="#F3A51E"/>
<path d="M30.5351 27.0643C30.4302 27.0643 30.2795 27.0407 30.1706 27.0212C30.0036 26.9915 29.8518 26.9351 29.7062 26.8797L29.6859 26.8715C29.1492 26.6706 28.7002 26.1353 28.5698 25.5395C28.4873 25.1632 28.5332 24.7572 28.7012 24.3655C28.7317 24.2937 28.7999 24.2435 28.8773 24.2363C28.9384 24.2301 29.0016 24.2271 29.0627 24.2271C29.6441 24.2271 30.1787 24.4793 30.53 24.9182C30.6186 25.0289 30.694 25.1499 30.754 25.2791C30.9801 25.7621 31.0096 26.4368 30.8243 26.8828C30.8182 26.8982 30.8131 26.9105 30.807 26.9228C30.7632 27.0171 30.6715 27.0643 30.5351 27.0643V27.0643ZM29.0464 24.6587C28.9537 24.9274 28.9333 25.1981 28.9873 25.4473C29.0881 25.9056 29.4282 26.3158 29.8345 26.4686L29.8549 26.4768C29.9883 26.527 30.1156 26.5742 30.2418 26.5967C30.3426 26.6152 30.4129 26.6244 30.4597 26.6285C30.5606 26.2912 30.5239 25.802 30.3661 25.4626C30.3202 25.3642 30.2632 25.2719 30.196 25.1878C29.9231 24.8474 29.5036 24.6526 29.0464 24.6577V24.6587Z" fill="#F3A51E"/>
<path d="M28.9283 28.1994C28.4813 28.1994 28.0149 28.022 27.6809 27.7236C27.3947 27.4683 27.1941 27.1125 27.1015 26.6952C27.0842 26.6183 27.1106 26.5383 27.1687 26.486C27.5241 26.1702 27.9741 25.9969 28.4344 25.9969C28.5933 25.9969 28.7511 26.0184 28.9038 26.0594C29.0403 26.0964 29.1716 26.1507 29.2959 26.2194C29.7602 26.4768 30.1787 27.0048 30.2887 27.4745C30.2918 27.4878 30.2948 27.5022 30.2979 27.5165C30.3355 27.7154 30.1411 27.8272 29.8407 27.9738C29.6869 28.0487 29.5321 28.0928 29.3824 28.1348L29.361 28.141C29.2236 28.1799 29.078 28.1994 28.9283 28.1994V28.1994ZM27.5526 26.729C27.634 27.0018 27.7756 27.2325 27.965 27.4017C28.2226 27.6314 28.5821 27.7688 28.9283 27.7688C29.0393 27.7688 29.1462 27.7544 29.246 27.7267L29.2674 27.7206C29.4048 27.6816 29.5352 27.6457 29.6513 27.5883C29.7398 27.5452 29.803 27.5104 29.8458 27.4858C29.7317 27.1546 29.416 26.7793 29.0892 26.5988C28.9945 26.5465 28.8947 26.5055 28.7918 26.4778C28.6757 26.446 28.5556 26.4306 28.4344 26.4306C28.1198 26.4306 27.8102 26.5362 27.5516 26.73L27.5526 26.729Z" fill="#F3A51E"/>
<path d="M28.4069 30.0256C28.3499 30.0256 28.2919 30.0226 28.2369 30.0174C27.856 29.9805 27.4864 29.8113 27.1677 29.5283C27.1086 29.476 27.0832 29.396 27.1005 29.3191C27.242 28.6834 27.6738 28.1697 28.2552 27.9472C28.3866 27.8969 28.5251 27.8621 28.6656 27.8446C28.7369 27.8354 28.8132 27.8313 28.8906 27.8313C29.3774 27.8313 29.8916 28.0046 30.2012 28.2732C30.2113 28.2825 30.2225 28.2917 30.2327 28.302C30.3793 28.4414 30.2867 28.6465 30.1299 28.9428C30.0494 29.0936 29.9496 29.2207 29.8529 29.3437L29.8397 29.3612C29.5169 29.7713 28.968 30.0267 28.4069 30.0267V30.0256ZM27.5516 29.2884C27.7766 29.4606 28.0251 29.5632 28.2776 29.5888C28.3194 29.5929 28.3632 29.595 28.4069 29.595C28.8336 29.595 29.2643 29.3981 29.5036 29.0925L29.5169 29.0751C29.6055 28.9623 29.69 28.8557 29.7501 28.7408C29.7959 28.6537 29.8274 28.588 29.8478 28.5419C29.6065 28.3717 29.2358 28.262 28.8896 28.262C28.8295 28.262 28.7715 28.265 28.7185 28.2722C28.6116 28.2855 28.5067 28.3122 28.4069 28.3501C27.9986 28.507 27.686 28.8516 27.5506 29.2874L27.5516 29.2884Z" fill="#F3A51E"/>
<path d="M29.08 31.7914C29.0118 31.7914 28.9435 31.7883 28.8753 31.7811C28.7979 31.7739 28.7297 31.7247 28.6991 31.6519C28.4425 31.0531 28.4924 30.3835 28.8325 29.8585C28.9099 29.7396 29.0016 29.6298 29.1044 29.5324C29.4578 29.1982 30.026 28.9654 30.4872 28.9654C30.5249 28.9654 30.5616 28.9664 30.5972 28.9695C30.6115 28.9705 30.6257 28.9715 30.64 28.9736C30.8396 28.9992 30.8844 29.2197 30.9302 29.5529C30.9536 29.7221 30.9465 29.8841 30.9404 30.041V30.0636C30.9149 30.6399 30.5483 31.2346 30.026 31.5442C29.7531 31.7063 29.4262 31.7914 29.081 31.7914H29.08ZM29.0443 31.3597C29.0566 31.3597 29.0678 31.3597 29.079 31.3597C29.3478 31.3597 29.5993 31.2951 29.807 31.172C30.2093 30.9341 30.4913 30.4809 30.5096 30.0451V30.0226C30.5168 29.879 30.5219 29.7437 30.5046 29.6145C30.4913 29.516 30.4781 29.4453 30.4679 29.3961C30.1156 29.4022 29.6675 29.5899 29.3967 29.8462C29.3183 29.92 29.249 30.0041 29.19 30.0943C28.9507 30.4625 28.8997 30.927 29.0443 31.3597V31.3597Z" fill="#F3A51E"/>
<path d="M31.4607 32.623C31.423 32.623 31.3854 32.6127 31.3518 32.5932C30.7948 32.261 30.4435 31.6889 30.4129 31.0634C30.4058 30.9219 30.416 30.7783 30.4424 30.6389C30.5422 30.1139 30.9119 29.5509 31.3212 29.2997C31.3345 29.2915 31.3457 29.2843 31.3579 29.2782C31.3915 29.2597 31.4302 29.2495 31.4689 29.2495C31.5697 29.2495 31.6685 29.2997 31.9312 29.5745C32.0493 29.6986 32.1389 29.8339 32.2244 29.9641L32.2356 29.9816C32.5523 30.4625 32.6032 31.1608 32.3609 31.7196C32.2081 32.0734 31.9342 32.3748 31.5687 32.5922C31.5351 32.6127 31.4974 32.622 31.4597 32.622L31.4607 32.623ZM31.4668 29.7201C31.1888 29.9324 30.9322 30.3507 30.863 30.7188C30.8426 30.8255 30.8355 30.9342 30.8406 31.0418C30.862 31.4817 31.0921 31.8878 31.4617 32.1513C31.6939 31.9893 31.868 31.7822 31.9699 31.5484C32.1562 31.1177 32.1206 30.5845 31.8803 30.2205L31.868 30.2031C31.7886 30.0831 31.7143 29.9693 31.6247 29.876C31.5564 29.8052 31.5045 29.755 31.4668 29.7211V29.7201Z" fill="#F3A51E"/>
<path d="M33.8628 31.7924C33.2814 31.7924 32.7468 31.5401 32.3955 31.1013C32.3069 30.9905 32.2315 30.8695 32.1715 30.7403C31.9454 30.2574 31.9159 29.5827 32.1012 29.1366C32.1073 29.1213 32.1124 29.1089 32.1185 29.0966C32.1623 29.0023 32.2539 28.9551 32.3904 28.9551C32.4943 28.9551 32.646 28.9787 32.7549 28.9982C32.9219 29.0279 33.0726 29.0843 33.2183 29.1397L33.2396 29.1479C33.7763 29.3489 34.2253 29.8841 34.3557 30.4799C34.4382 30.8562 34.3923 31.2623 34.2243 31.654C34.1938 31.7257 34.1255 31.776 34.0482 31.7832C33.9871 31.7893 33.9239 31.7924 33.8628 31.7924V31.7924ZM32.4647 29.392C32.3639 29.7293 32.4006 30.2184 32.5584 30.5578C32.6042 30.6563 32.6613 30.7485 32.7285 30.8326C32.9973 31.169 33.4107 31.3628 33.8618 31.3628C33.8669 31.3628 33.873 31.3628 33.8781 31.3628C33.9708 31.0941 33.9911 30.8234 33.9372 30.5742C33.8364 30.1159 33.4962 29.7057 33.09 29.5529L33.0686 29.5447C32.9352 29.4945 32.8089 29.4473 32.6816 29.4248C32.5808 29.4063 32.5105 29.3971 32.4637 29.393L32.4647 29.392Z" fill="#F3A51E"/>
<path d="M34.4912 30.0216C34.3323 30.0216 34.1745 30 34.0217 29.959C33.8853 29.9221 33.7539 29.8678 33.6297 29.7991C33.1654 29.5417 32.7468 29.0136 32.6369 28.544C32.6338 28.5307 32.6308 28.5163 32.6277 28.502C32.59 28.302 32.7845 28.1913 33.0859 28.0446C33.2387 27.9698 33.3934 27.9267 33.5431 27.8847L33.5645 27.8785C33.702 27.8395 33.8476 27.8201 33.9973 27.8201C34.4443 27.8201 34.9107 27.9975 35.2447 28.2958C35.5308 28.5512 35.7314 28.907 35.8241 29.3243C35.8414 29.4012 35.8149 29.4812 35.7569 29.5335C35.4015 29.8493 34.9514 30.0226 34.4912 30.0226V30.0216ZM33.0798 28.5348C33.1939 28.866 33.5095 29.2413 33.8364 29.4217C33.9311 29.474 34.0309 29.515 34.1337 29.5427C34.2498 29.5745 34.37 29.5899 34.4912 29.5899C34.8058 29.5899 35.1154 29.4843 35.374 29.2905C35.2925 29.0177 35.151 28.787 34.9616 28.6178C34.704 28.3881 34.3445 28.2507 33.9983 28.2507C33.8873 28.2507 33.7804 28.2651 33.6806 28.2928L33.6592 28.2989C33.5217 28.3379 33.3914 28.3738 33.2753 28.4312C33.1867 28.4743 33.1236 28.5091 33.0808 28.5348H33.0798Z" fill="#F3A51E"/>
<path d="M34.0349 28.1892C33.5482 28.1892 33.034 28.0159 32.7244 27.7473C32.7142 27.738 32.703 27.7288 32.6929 27.7185C32.5462 27.5791 32.6389 27.374 32.7957 27.0777C32.8761 26.9269 32.9759 26.7998 33.0727 26.6767L33.0859 26.6593C33.4087 26.2492 33.9576 25.9938 34.5186 25.9938C34.5757 25.9938 34.6337 25.9969 34.6897 26.002C35.0705 26.039 35.4402 26.2081 35.7589 26.4911C35.818 26.5434 35.8434 26.6234 35.8261 26.7003C35.6846 27.3361 35.2528 27.8498 34.6714 28.0723C34.54 28.1225 34.4015 28.1574 34.261 28.1748C34.1897 28.1841 34.1134 28.1882 34.036 28.1882L34.0349 28.1892ZM33.0767 27.4776C33.3171 27.6478 33.6887 27.7575 34.0349 27.7575C34.095 27.7575 34.1531 27.7544 34.207 27.7473C34.314 27.7339 34.4188 27.7073 34.5186 27.6693C34.927 27.5124 35.2396 27.1679 35.374 26.7321C35.149 26.5599 34.9005 26.4573 34.648 26.4317C34.6062 26.4276 34.5624 26.4255 34.5186 26.4255C34.092 26.4255 33.6623 26.6224 33.4219 26.928L33.4087 26.9454C33.3201 27.0582 33.2356 27.1648 33.1745 27.2797C33.1277 27.3668 33.0971 27.4325 33.0767 27.4786V27.4776Z" fill="#F3A51E"/>
<path d="M32.4403 27.0551C32.4027 27.0551 32.366 27.0541 32.3304 27.051C32.3151 27.05 32.3008 27.0489 32.2876 27.0469C32.088 27.0213 32.0432 26.8008 31.9974 26.4676C31.974 26.2973 31.9811 26.1353 31.9872 25.9784V25.9569C32.0117 25.3806 32.3792 24.7859 32.9016 24.4762C33.1745 24.3142 33.5014 24.2291 33.8466 24.2291C33.9148 24.2291 33.983 24.2322 34.0523 24.2394C34.1297 24.2466 34.1979 24.2958 34.2284 24.3686C34.4851 24.9674 34.4352 25.637 34.0951 26.162C34.0177 26.2809 33.926 26.3906 33.8232 26.4881C33.4698 26.8223 32.9006 27.0551 32.4403 27.0551V27.0551ZM33.8466 24.6598C33.5778 24.6598 33.3263 24.7244 33.1185 24.8474C32.7163 25.0853 32.4342 25.5385 32.4159 25.9743V25.9959C32.4088 26.1394 32.4037 26.2758 32.421 26.405C32.4342 26.5034 32.4475 26.5742 32.4577 26.6234C32.81 26.6173 33.258 26.4296 33.5289 26.1733C33.6073 26.0994 33.6765 26.0154 33.7356 25.9251C33.9749 25.557 34.0258 25.0925 33.8812 24.6598C33.869 24.6598 33.8578 24.6598 33.8466 24.6598V24.6598Z" fill="#F3A51E"/>
</g>
<path d="M77.8555 23V22.4727L79.6602 22.3555V6.92188L77.8555 6.80469V6.27734H84.1016C84.9688 6.27734 85.75 6.35156 86.4453 6.5C87.1484 6.64844 87.7734 6.88281 88.3203 7.20312C88.875 7.52344 89.3008 7.95703 89.5977 8.50391C89.9023 9.04297 90.0547 9.68359 90.0547 10.4258C90.0547 11.7617 89.6055 12.8047 88.707 13.5547C87.8086 14.2969 86.5938 14.7773 85.0625 14.9961V15.0195C85.7188 15.0273 86.2852 15.1328 86.7617 15.3359C87.2461 15.5391 87.6289 15.8008 87.9102 16.1211C88.1992 16.4336 88.4727 16.8398 88.7305 17.3398C88.9023 17.6836 89.1445 18.2109 89.457 18.9219C89.7773 19.625 90.0938 20.25 90.4062 20.7969C90.6562 21.2422 90.918 21.5859 91.1914 21.8281C91.4648 22.0703 91.6953 22.2188 91.8828 22.2734C92.0703 22.3281 92.2852 22.3555 92.5273 22.3555V23H90.582C89.9883 23 89.5195 22.9648 89.1758 22.8945C88.832 22.8164 88.4883 22.6367 88.1445 22.3555C87.8086 22.0742 87.5078 21.6875 87.2422 21.1953C86.9766 20.6953 86.5234 19.6562 85.8828 18.0781C85.7891 17.8438 85.6523 17.543 85.4727 17.1758C85.3008 16.8008 85.1484 16.5195 85.0156 16.332C84.8906 16.1367 84.7383 15.9336 84.5586 15.7227C84.3867 15.5117 84.207 15.3633 84.0195 15.2773C83.8398 15.1836 83.6484 15.1367 83.4453 15.1367C83.1016 15.1367 82.8398 15.1406 82.6602 15.1484V22.3555L84.4648 22.4727V23H77.8555ZM82.6602 14.4805C82.7461 14.4883 82.9062 14.4922 83.1406 14.4922C84.5312 14.4922 85.5078 14.1562 86.0703 13.4844C86.6406 12.8047 86.9258 11.793 86.9258 10.4492C86.9258 9.77734 86.8438 9.20703 86.6797 8.73828C86.5234 8.26953 86.2969 7.90625 86 7.64844C85.7031 7.39062 85.375 7.20703 85.0156 7.09766C84.6562 6.98828 84.2461 6.93359 83.7852 6.93359C83.4805 6.93359 83.1055 6.96484 82.6602 7.02734V14.4805ZM92.8906 17.1875C92.8906 16.0078 93.1172 14.9375 93.5703 13.9766C94.0312 13.0156 94.6719 12.2617 95.4922 11.7148C96.3203 11.1602 97.2539 10.8828 98.293 10.8828C99.1523 10.8828 99.9258 11.0625 100.613 11.4219C101.309 11.7734 101.863 12.2461 102.277 12.8398C102.699 13.4336 103.02 14.0977 103.238 14.832C103.465 15.5586 103.578 16.3203 103.578 17.1172C103.578 18.2656 103.359 19.3125 102.922 20.2578C102.484 21.2031 101.855 21.957 101.035 22.5195C100.223 23.0742 99.3008 23.3516 98.2695 23.3516C97.3555 23.3516 96.5469 23.1914 95.8438 22.8711C95.1484 22.543 94.5859 22.0938 94.1562 21.5234C93.7344 20.9453 93.418 20.293 93.207 19.5664C92.9961 18.8398 92.8906 18.0469 92.8906 17.1875ZM95.8906 17.0469C95.8906 17.9141 95.9336 18.6914 96.0195 19.3789C96.1055 20.0586 96.2383 20.6641 96.418 21.1953C96.5977 21.7188 96.8398 22.1211 97.1445 22.4023C97.4492 22.6836 97.8086 22.8242 98.2227 22.8242C99.793 22.8242 100.578 20.9453 100.578 17.1875C100.578 16.2422 100.539 15.4297 100.461 14.75C100.391 14.0703 100.266 13.4727 100.086 12.957C99.9141 12.4336 99.6719 12.0469 99.3594 11.7969C99.0469 11.5391 98.668 11.4102 98.2227 11.4102C97.8086 11.4102 97.4492 11.5508 97.1445 11.832C96.8398 12.1133 96.5977 12.5117 96.418 13.0273C96.2383 13.543 96.1055 14.1328 96.0195 14.7969C95.9336 15.4609 95.8906 16.2109 95.8906 17.0469ZM105.02 23V22.4727L106.824 22.3555V6.92188L105.02 6.80469V6.27734H116.094L116.211 11.0469H115.555C115.5 10.3906 115.406 9.83203 115.273 9.37109C115.141 8.90234 114.938 8.47656 114.664 8.09375C114.398 7.70313 114.031 7.41016 113.562 7.21484C113.094 7.01953 112.523 6.92188 111.852 6.92188C110.953 6.92188 110.277 6.96094 109.824 7.03906V14.2578C110.02 14.2656 110.133 14.2695 110.164 14.2695C110.719 14.2695 111.156 14.2422 111.477 14.1875C111.797 14.125 112.086 14 112.344 13.8125C112.602 13.6172 112.781 13.332 112.883 12.957C112.984 12.582 113.035 12.082 113.035 11.457H113.68V17.75H113.035C113.035 16.6797 112.859 15.9375 112.508 15.5234C112.156 15.1094 111.57 14.9023 110.75 14.9023L109.824 14.9141V22.3555L112.098 22.4727V23H105.02ZM117.301 7.20312V6.72266L119.75 6.46484L121.402 6.03125L121.613 6.37109V22.4023L122.82 22.5195V23H117.535V22.5195L118.742 22.4023V7.20312H117.301ZM124.461 17.1875C124.461 16.0078 124.688 14.9375 125.141 13.9766C125.602 13.0156 126.242 12.2617 127.062 11.7148C127.891 11.1602 128.824 10.8828 129.863 10.8828C130.723 10.8828 131.496 11.0625 132.184 11.4219C132.879 11.7734 133.434 12.2461 133.848 12.8398C134.27 13.4336 134.59 14.0977 134.809 14.832C135.035 15.5586 135.148 16.3203 135.148 17.1172C135.148 18.2656 134.93 19.3125 134.492 20.2578C134.055 21.2031 133.426 21.957 132.605 22.5195C131.793 23.0742 130.871 23.3516 129.84 23.3516C128.926 23.3516 128.117 23.1914 127.414 22.8711C126.719 22.543 126.156 22.0938 125.727 21.5234C125.305 20.9453 124.988 20.293 124.777 19.5664C124.566 18.8398 124.461 18.0469 124.461 17.1875ZM127.461 17.0469C127.461 17.9141 127.504 18.6914 127.59 19.3789C127.676 20.0586 127.809 20.6641 127.988 21.1953C128.168 21.7188 128.41 22.1211 128.715 22.4023C129.02 22.6836 129.379 22.8242 129.793 22.8242C131.363 22.8242 132.148 20.9453 132.148 17.1875C132.148 16.2422 132.109 15.4297 132.031 14.75C131.961 14.0703 131.836 13.4727 131.656 12.957C131.484 12.4336 131.242 12.0469 130.93 11.7969C130.617 11.5391 130.238 11.4102 129.793 11.4102C129.379 11.4102 129.02 11.5508 128.715 11.832C128.41 12.1133 128.168 12.5117 127.988 13.0273C127.809 13.543 127.676 14.1328 127.59 14.7969C127.504 15.4609 127.461 16.2109 127.461 17.0469ZM142.297 11.7148V11.2344H147.535V11.7148L146.258 11.8438L148.742 19.2617H148.789L151.309 11.8438L149.961 11.7148V11.2344H153.195V11.7148L151.977 11.8438L148.121 23.1172H147.594L144.512 14.9141L141.676 23.1172H141.137L136.789 11.8438L135.641 11.7148V11.2344H141.09V11.7148L139.918 11.8438L142.32 19.1562H142.367L144.184 14.0469L143.352 11.8438L142.297 11.7148ZM153.723 17.1172C153.723 16.5078 153.781 15.9141 153.898 15.3359C154.016 14.75 154.207 14.1875 154.473 13.6484C154.738 13.1094 155.062 12.6367 155.445 12.2305C155.828 11.8242 156.301 11.5 156.863 11.2578C157.434 11.0078 158.062 10.8828 158.75 10.8828C159.398 10.8828 159.98 10.9766 160.496 11.1641C161.012 11.3438 161.441 11.5977 161.785 11.9258C162.129 12.2539 162.414 12.6562 162.641 13.1328C162.867 13.6016 163.027 14.1133 163.121 14.668C163.223 15.2148 163.273 15.8164 163.273 16.4727L162.957 16.7656H156.723V17.4805C156.723 20.8867 157.691 22.5898 159.629 22.5898C161.004 22.5898 162.102 21.9023 162.922 20.5273L163.379 20.8086C162.371 22.5039 160.938 23.3516 159.078 23.3516C157.281 23.3516 155.938 22.7969 155.047 21.6875C154.164 20.5781 153.723 19.0547 153.723 17.1172ZM156.723 16.2383L160.508 16.0859C160.531 15.6875 160.543 15.3047 160.543 14.9375C160.543 13.8047 160.406 12.9336 160.133 12.3242C159.867 11.7148 159.422 11.4102 158.797 11.4102C158.422 11.4102 158.098 11.5352 157.824 11.7852C157.559 12.0273 157.352 12.3789 157.203 12.8398C157.055 13.3008 156.941 13.8047 156.863 14.3516C156.793 14.8906 156.746 15.5195 156.723 16.2383ZM164.949 12.1719V11.6914L167.398 11.4336L169.051 11L169.215 11.3398V13.3555H169.262C169.418 13.043 169.609 12.7383 169.836 12.4414C170.062 12.1445 170.309 11.8828 170.574 11.6562C170.848 11.4219 171.137 11.2344 171.441 11.0938C171.746 10.9531 172.055 10.8828 172.367 10.8828C172.977 10.8828 173.445 11.0469 173.773 11.375C174.109 11.6953 174.277 12.125 174.277 12.6641C174.277 12.8906 174.242 13.1016 174.172 13.2969C174.102 13.4844 174 13.6484 173.867 13.7891C173.742 13.9297 173.586 14.043 173.398 14.1289C173.219 14.207 173.02 14.2461 172.801 14.2461C172.566 14.2461 172.355 14.207 172.168 14.1289C171.98 14.0508 171.82 13.9453 171.688 13.8125C171.562 13.6797 171.465 13.5273 171.395 13.3555C171.324 13.1758 171.289 12.9844 171.289 12.7812C171.289 12.3672 171.375 12.0625 171.547 11.8672V11.7969C171.266 11.8594 170.988 12.0078 170.715 12.2422C170.449 12.4766 170.207 12.7969 169.988 13.2031C169.77 13.6016 169.594 14.0859 169.461 14.6562C169.328 15.2188 169.262 15.8555 169.262 16.5664V22.4023L170.469 22.5195V23H165.184V22.5195L166.391 22.4023V12.1719H164.949ZM76.9297 52V51.4727L78.3477 51.3555L83.8906 34.7969H84.418L90.1484 51.3555L91.6953 51.4727V52H85.4258V51.4727L87.0078 51.3555L85.625 47.1484H80.375L79.0156 51.3555L80.5977 51.4727V52H76.9297ZM80.5859 46.4453L85.3672 46.3516L83.0234 39.1562H82.9766L80.5859 46.4453ZM92.3633 52V51.4727L94.168 51.3555V35.9219L92.3633 35.8047V35.2773H98.7266C99.5859 35.2773 100.379 35.3711 101.105 35.5586C101.84 35.7383 102.5 36.0156 103.086 36.3906C103.672 36.7578 104.129 37.2539 104.457 37.8789C104.793 38.4961 104.961 39.2109 104.961 40.0234C104.961 40.7734 104.832 41.4492 104.574 42.0508C104.324 42.6523 103.984 43.1562 103.555 43.5625C103.125 43.9688 102.605 44.3086 101.996 44.582C101.395 44.8477 100.754 45.043 100.074 45.168C99.4023 45.2852 98.6875 45.3438 97.9297 45.3438C97.7656 45.3438 97.5117 45.3359 97.168 45.3203V51.3555L98.9727 51.4727V52H92.3633ZM97.168 44.6523C97.4414 44.6758 97.7188 44.6875 98 44.6875C100.562 44.6875 101.844 43.125 101.844 40C101.844 39.2422 101.758 38.5977 101.586 38.0664C101.414 37.5273 101.164 37.1133 100.836 36.8242C100.516 36.5273 100.156 36.3164 99.7578 36.1914C99.3672 36.0586 98.918 35.9922 98.4102 35.9922C98.0273 35.9922 97.6133 36.0234 97.168 36.0859V44.6523ZM106.379 52V51.4727L108.184 51.3555V35.9219L106.379 35.8047V35.2773H112.988V35.8047L111.184 35.9219V51.3555L112.988 51.4727V52H106.379Z" fill="#1884F4"/>
<defs>
<clipPath id="clip0_11_5671">
<rect width="63" height="46" fill="white" transform="translate(0 5)"/>
</clipPath>
</defs>
</svg>
