<svg width="32" height="32" viewBox="0 0 32 32" fill="none" xmlns="http://www.w3.org/2000/svg">
<path fill-rule="evenodd" clip-rule="evenodd" d="M18.7132 19.2521C21.6553 16.3363 21.6767 11.5876 18.761 8.64557C15.8452 5.70349 11.0966 5.68212 8.15447 8.59784C5.21239 11.5136 5.19102 16.2623 8.10675 19.2043C11.0225 22.1464 15.7712 22.1678 18.7132 19.2521ZM20.1211 20.6726C23.8477 16.9794 23.8748 10.9644 20.1815 7.23773C16.4883 3.51109 10.4733 3.48403 6.74663 7.17728C3.02 10.8705 2.99293 16.8855 6.68618 20.6122C10.3794 24.3388 16.3944 24.3659 20.1211 20.6726Z" fill="#9F9F9F"/>
<path d="M17.6477 20.3079L19.7785 18.1961L25.4099 23.8784L23.279 25.9901L17.6477 20.3079Z" fill="#9F9F9F"/>
</svg>
